<svg width="53" height="60" viewBox="0 0 53 60" fill="none" xmlns="http://www.w3.org/2000/svg">
<path d="M46.2891 5.85938H42.1875V1.75781C42.1875 0.787031 41.4005 0 40.4297 0H12.3047C11.3339 0 10.5469 0.787031 10.5469 1.75781V5.85938H6.44531C2.89137 5.85938 0 8.75074 0 12.3047V18.2776C0 22.4509 2.63508 26.213 6.55699 27.6389L11.8481 29.5629C12.5148 29.8054 13.3383 30.7187 13.5105 31.4068C13.7347 32.3025 13.4685 33.2645 12.8155 33.9173C12.0165 34.7162 10.9545 35.1562 9.82453 35.1562H8.78906C7.81828 35.1562 7.03125 35.9433 7.03125 36.9141C7.03125 37.8848 7.81828 38.6719 8.78906 38.6719H9.82453C11.8934 38.6719 13.8386 37.8662 15.3014 36.4032C15.6957 36.0089 16.0283 35.5656 16.2973 35.0897C17.6837 36.6244 19.2935 37.9743 21.0938 39.0885V49.4531H18.1641C17.6978 49.4531 17.2507 49.6383 16.9212 49.968L13.4055 53.4837C13.0758 53.8132 12.8906 54.2603 12.8906 54.7266V58.2422C12.8906 59.213 13.6777 60 14.6484 60H38.0859C39.0567 60 39.8438 59.213 39.8438 58.2422V54.7266C39.8438 54.2603 39.6586 53.8132 39.3288 53.4837L35.8132 49.968C35.4837 49.6383 35.0366 49.4531 34.5703 49.4531H31.6406V39.0885C33.441 37.9741 35.0507 36.6243 36.4371 35.0896C36.7061 35.5655 37.0385 36.0088 37.4329 36.4031C38.8958 37.8662 40.841 38.6719 42.9098 38.6719H43.9453C44.9161 38.6719 45.7031 37.8848 45.7031 36.9141C45.7031 35.9433 44.9161 35.1562 43.9453 35.1562H42.9098C41.7799 35.1562 40.7179 34.7162 39.9189 33.9173C39.266 33.2645 38.9996 32.3025 39.2238 31.4067C39.3961 30.7186 40.2195 29.8054 40.8861 29.5629L46.1774 27.6389C50.0993 26.213 52.7344 22.4509 52.7344 18.2776V12.3047C52.7344 8.75074 49.843 5.85938 46.2891 5.85938ZM7.7584 24.3349C5.2207 23.4122 3.51562 20.978 3.51562 18.2776V12.3047C3.51562 10.6893 4.82988 9.375 6.44531 9.375H10.5469V20.1614C10.5469 22.0175 10.781 23.8398 11.2234 25.5948L7.7584 24.3349ZM33.8422 52.9688L36.3281 55.4546V56.4844H16.4062V55.4546L18.8921 52.9688H33.8422ZM24.6094 49.4531V39.8438H28.125V49.4531H24.6094ZM38.6719 20.1614C38.6719 26.8164 35.1367 32.9699 29.4165 36.3281H23.318C17.5977 32.9699 14.0625 26.8164 14.0625 20.1614V18.75H38.6719V20.1614ZM38.6719 15.2344H14.0625V11.7188H38.6719V15.2344ZM38.6719 8.20312H14.0625V3.51562H38.6719V8.20312ZM49.2188 18.2776C49.2188 20.978 47.5137 23.4122 44.976 24.3349L41.5111 25.5948C41.9534 23.8398 42.1875 22.0174 42.1875 20.1614V9.375H46.2891C47.9045 9.375 49.2188 10.6893 49.2188 12.3047V18.2776Z" fill="#DBE5E5"/>
</svg>
