<svg width="48" height="48" viewBox="0 0 48 48" fill="none" xmlns="http://www.w3.org/2000/svg">
<path d="M37.5 0H10.5C4.701 0 0 4.701 0 10.5V37.5C0 43.299 4.701 48 10.5 48H37.5C43.299 48 48 43.299 48 37.5V10.5C48 4.701 43.299 0 37.5 0ZM45 37.5C45 41.6422 41.6422 45 37.5 45H10.5C6.35784 45 3 41.6422 3 37.5V10.5C3 6.35784 6.35784 3 10.5 3H37.5C41.6422 3 45 6.35784 45 10.5V37.5Z" fill="#DBE5E5"/>
<path d="M15 10.5H12C11.1715 10.5 10.5 11.1715 10.5 12V15C10.5 15.8285 11.1715 16.5 12 16.5H15C15.8285 16.5 16.5 15.8285 16.5 15V12C16.5 11.1715 15.8285 10.5 15 10.5Z" fill="#DBE5E5"/>
<path d="M15 21H12C11.1715 21 10.5 21.6715 10.5 22.5V25.5C10.5 26.3285 11.1715 27 12 27H15C15.8285 27 16.5 26.3285 16.5 25.5V22.5C16.5 21.6715 15.8285 21 15 21Z" fill="#DBE5E5"/>
<path d="M15 31.5H12C11.1715 31.5 10.5 32.1715 10.5 33V36C10.5 36.8285 11.1715 37.5 12 37.5H15C15.8285 37.5 16.5 36.8285 16.5 36V33C16.5 32.1715 15.8285 31.5 15 31.5Z" fill="#DBE5E5"/>
<path d="M37.5 12H19.5V15H37.5V12Z" fill="#DBE5E5"/>
<path d="M37.5 22.5H19.5V25.5H37.5V22.5Z" fill="#DBE5E5"/>
<path d="M37.5 33H19.5V36H37.5V33Z" fill="#DBE5E5"/>
</svg>
