<svg width="53" height="53" viewBox="0 0 53 53" fill="none" xmlns="http://www.w3.org/2000/svg">
<path d="M52.9379 3.95656C52.8231 1.85126 51.1488 0.177103 49.0435 0.0622002C44.7954 -0.169882 36.4827 0.0558859 28.5339 4.16722C24.4818 6.2632 20.1962 9.81679 16.7762 13.9168C16.7341 13.9674 16.6931 14.0182 16.6512 14.0688L8.88964 14.6684C7.61205 14.7671 6.4741 15.4368 5.7675 16.5055L0.472264 24.5147C-0.0636363 25.3252 -0.14883 26.3396 0.244219 27.228C0.637372 28.1166 1.44521 28.7358 2.40532 28.8846L8.9445 29.8974C8.92142 30.0245 8.89823 30.1515 8.87701 30.2786C8.65932 31.5809 9.09077 32.9197 10.0313 33.8602L19.1399 42.9688C19.9196 43.7486 20.9733 44.1785 22.053 44.1785C22.2754 44.1785 22.4989 44.1602 22.7215 44.123C22.8486 44.1018 22.9756 44.0786 23.1028 44.0555L24.1156 50.5948C24.2643 51.5549 24.8835 52.3629 25.7719 52.7559C26.1416 52.9195 26.5327 53.0002 26.9222 53.0002C27.469 53.0001 28.0121 52.8409 28.4854 52.528L36.4946 47.2326C37.5634 46.5259 38.2329 45.388 38.3315 44.1105L38.931 36.349C38.9816 36.3072 39.0326 36.2662 39.0831 36.2241C43.1832 32.804 46.7369 28.5185 48.8328 24.4662C52.9444 16.5172 53.1697 8.20433 52.9379 3.95656V3.95656ZM34.7819 44.6421L27.1206 49.7074L26.1335 43.3344C29.3715 42.3824 32.5745 40.8576 35.6261 38.815L35.2355 43.8712C35.2112 44.1866 35.0458 44.4676 34.7819 44.6421V44.6421ZM21.3357 40.7729L12.2271 31.6643C11.9947 31.4318 11.8872 31.1052 11.9399 30.7906C12.2107 29.1713 12.6315 27.6299 13.1524 26.1778L26.8194 39.8447C25.0753 40.4694 23.5132 40.8421 22.2094 41.0601C21.8943 41.1125 21.5681 41.0053 21.3357 40.7729V40.7729ZM9.12887 17.7646L14.185 17.3741C12.1422 20.4256 10.6174 23.6287 9.66539 26.8667L3.29255 25.8796L8.35798 18.2182C8.53251 17.9543 8.81356 17.789 9.12887 17.7646V17.7646ZM37.0941 33.8392C34.5856 35.9315 32.1506 37.4449 29.9062 38.54L14.4595 23.0933C15.894 20.1634 17.6448 17.7236 19.1609 15.9061C22.3259 12.1117 26.2623 8.83847 29.9608 6.9255C37.2559 3.15204 44.9421 2.94884 48.8744 3.16291C49.3949 3.19127 49.8089 3.60523 49.8372 4.12581C50.0516 8.05816 49.848 15.7442 46.0745 23.0395C44.1617 26.7379 40.8884 30.6742 37.0941 33.8392Z" fill="#DBE5E5"/>
<path d="M36.3055 24.4546C38.2932 24.4544 40.2817 23.6977 41.795 22.1844C43.2614 20.7181 44.0688 18.7685 44.0688 16.6949C44.0688 14.6212 43.2613 12.6716 41.795 11.2053C38.768 8.1782 33.8427 8.17841 30.8159 11.2053C29.3495 12.6716 28.542 14.6212 28.542 16.6949C28.542 18.7685 29.3496 20.7181 30.8159 22.1844C32.3295 23.698 34.317 24.4548 36.3055 24.4546ZM33.0116 13.4011C33.9196 12.4929 35.1124 12.0389 36.3053 12.0389C37.4982 12.0389 38.691 12.4929 39.599 13.4011C40.4788 14.2809 40.9633 15.4506 40.9633 16.6947C40.9633 17.9389 40.4788 19.1087 39.599 19.9885C37.7829 21.8047 34.8277 21.8046 33.0115 19.9885C32.1317 19.1087 31.6472 17.939 31.6472 16.6949C31.6472 15.4507 32.1318 14.2809 33.0116 13.4011Z" fill="#DBE5E5"/>
<path d="M1.58393 43.677C1.98133 43.677 2.37873 43.5254 2.68182 43.2221L7.75129 38.1526C8.35769 37.5462 8.35769 36.5631 7.75129 35.9567C7.145 35.3504 6.16181 35.3504 5.55542 35.9567L0.486046 41.0262C-0.120349 41.6326 -0.120349 42.6157 0.486046 43.2221C0.78914 43.5253 1.18654 43.677 1.58393 43.677V43.677Z" fill="#DBE5E5"/>
<path d="M12.3976 40.603C11.7913 39.9966 10.8081 39.9966 10.2017 40.603L0.455284 50.3495C-0.15111 50.9559 -0.15111 51.939 0.455284 52.5454C0.758482 52.8486 1.15578 53.0001 1.55317 53.0001C1.95057 53.0001 2.34797 52.8486 2.65106 52.5453L12.3975 42.7989C13.004 42.1925 13.004 41.2094 12.3976 40.603V40.603Z" fill="#DBE5E5"/>
<path d="M14.847 45.2485L9.77755 50.318C9.17116 50.9244 9.17116 51.9075 9.77755 52.5138C10.0807 52.817 10.4781 52.9687 10.8754 52.9687C11.2727 52.9687 11.6702 52.8171 11.9733 52.5138L17.0428 47.4444C17.6492 46.838 17.6492 45.8549 17.0428 45.2485C16.4365 44.6421 15.4533 44.6421 14.847 45.2485Z" fill="#DBE5E5"/>
</svg>
