<svg width="61" height="89" viewBox="0 0 61 89" fill="none" xmlns="http://www.w3.org/2000/svg">
<path d="M44.7706 63.4403C42.5865 63.4388 40.6057 62.325 39.472 60.4613C39.0465 59.7617 38.1343 59.5392 37.4343 59.9648C36.7345 60.3905 36.5123 61.3029 36.9379 62.0025C37.7263 63.2988 38.7942 64.3458 40.0376 65.0953L38.496 72.0695L34.7935 67.8003C35.4681 67.0251 35.3036 66.1225 34.726 65.6193C34.1083 65.0819 33.1716 65.1459 32.6337 65.7638L30.0241 68.7607L23.4598 61.4569C24.0089 60.4023 24.3578 59.2272 24.4575 57.9804C37.1248 61.7166 49.7929 52.2095 49.8945 39.1077C49.8954 39.0745 49.8951 33.4473 49.8951 33.4141C49.8951 32.5951 49.2311 31.9311 48.4121 31.9311C47.5931 31.9311 46.9291 32.5951 46.9291 33.4141V38.9522C46.9291 48.2539 39.3617 55.8213 30.0599 55.8213C20.7581 55.8213 13.1908 48.2539 13.1908 38.9522V26.923C13.2032 24.3941 16.0748 23.2296 17.8754 24.7821C22.0606 28.3908 27.2264 30.3294 32.3964 30.5853C33.676 30.6479 34.4285 29.161 33.6199 28.1678C32.8641 27.2394 32.4086 26.0243 32.4564 24.7465C37.3114 27.9713 42.9711 29.3323 48.5235 28.9145C49.3401 28.8531 49.9524 28.1411 49.891 27.3243C49.8295 26.5079 49.1176 25.896 48.3008 25.9568C42.7159 26.3774 37.0741 24.7713 32.4696 21.087C31.7107 20.4799 30.5817 20.7561 30.1876 21.6429C29.4126 23.3881 29.2511 25.3998 29.854 27.3141C26.1159 26.6397 22.6696 24.9995 19.8122 22.5357C16.0765 19.3152 10.2728 21.9054 10.2251 26.8262C10.2251 26.8765 10.2244 32.8908 10.2251 36.5371C9.23429 36.0234 8.55637 35.0007 8.55637 33.8238V15.7569C8.55637 13.8147 10.1363 12.2348 12.0785 12.2348C12.6849 12.2348 13.2302 11.8657 13.4555 11.3025C15.4811 6.23825 20.3144 2.96601 25.7687 2.96601H38.4016C45.7612 2.96601 51.7486 8.95344 51.7486 16.313V33.8236C51.7486 34.6426 52.4127 35.3066 53.2316 35.3066C54.0506 35.3066 54.7146 34.6426 54.7146 33.8236V16.313C54.7146 7.31806 47.3966 0 38.4016 0H25.7687C19.4066 0 13.7346 3.63892 11.0712 9.34681C7.9704 9.83231 5.59036 12.5219 5.59036 15.7569V33.8236C5.59036 36.6604 7.57518 39.0447 10.239 39.6852C10.516 47.2583 15.0582 53.7618 21.5299 56.8574C21.5213 58.2182 21.3452 59.9823 19.7067 61.6138C18.5622 62.7534 17.0228 63.4201 15.3122 63.4201C6.85147 63.4201 0.0118639 70.2645 0.00593193 78.7163L3.49363e-07 87.4766C-0.000555777 88.2958 0.662902 88.9601 1.48189 88.9607C2.30422 88.9607 2.96545 88.2952 2.96601 87.4788L2.97194 78.7185C2.97676 71.9145 8.47406 66.3863 15.3281 66.3863C15.9908 66.3863 16.6363 66.3145 17.259 66.1816L19.3219 75.5742C19.5825 76.7615 21.0902 77.1482 21.8895 76.2293L27.2298 70.0884L28.5587 71.5669L28.5526 80.452C28.5521 81.2715 29.2161 81.9361 30.0356 81.9361C30.8542 81.9361 31.5181 81.2728 31.5186 80.4542L31.5247 71.5545L32.8268 70.0593L38.1875 76.2406C38.985 77.1605 40.4936 76.7764 40.7559 75.589L42.8315 66.1988C43.4596 66.3329 44.1075 66.4059 44.7689 66.4065C51.5903 66.4109 57.1064 71.9353 57.1014 78.7556L57.0954 87.5159C57.0949 88.3351 57.7583 88.9994 58.5773 89C59.3996 89 60.0609 88.3345 60.0614 87.5181L60.0674 78.7578C60.0733 70.2964 53.2303 63.4458 44.7706 63.4403V63.4403ZM21.586 72.0578L20.0533 65.0794C20.6269 64.7346 21.1578 64.3273 21.6403 63.8694L25.2316 67.8654L21.586 72.0578Z" fill="#DBE5E6"/>
</svg>
