<svg width="70" height="90" viewBox="0 0 70 90" fill="none" xmlns="http://www.w3.org/2000/svg">
<path d="M65.041 79.6377V88.4994C65.041 89.3279 64.3693 89.9996 63.5408 89.9996C62.7124 89.9996 62.0407 89.3279 62.0407 88.4994V79.6377C62.0407 72.7381 56.4574 67.1543 49.5568 67.1543C48.3557 67.1543 47.1963 66.9274 46.125 66.5041L42.7008 88.7278C42.5741 89.5498 41.8035 90.1091 40.9897 89.982C40.1708 89.8558 39.6093 89.0898 39.7355 88.271L43.3547 64.781C42.695 64.1854 42.1118 63.4916 41.6325 62.7046C41.2016 61.997 41.4257 61.0741 42.1334 60.6431C42.8411 60.2116 43.7641 60.4361 44.195 61.144C45.3319 63.0106 47.3392 64.1539 49.557 64.1539C58.1149 64.1535 65.041 71.0791 65.041 79.6377V79.6377ZM67.2106 60.6317C66.1476 59.3699 66.0671 57.6225 67.0104 56.2838L67.424 55.6971C70.1607 51.8131 69.9239 46.7587 66.8348 43.1194C65.8239 41.9283 65.4929 40.3518 65.9494 38.9023L66.9826 35.6205C68.0042 32.3754 66.7077 28.9175 63.7559 27.0157C61.5893 25.6197 60.927 22.9669 62.2151 20.8451C64.3303 17.3611 62.4579 12.8593 58.3131 11.7672C56.1682 11.2022 54.4999 9.61141 53.9591 7.61562L53.632 6.40855C52.5939 2.57673 48.0043 0.654637 44.3152 2.64105C42.968 3.36657 41.2646 3.15861 40.1734 2.13606C37.1344 -0.712019 32.1901 -0.712019 29.1515 2.13606C28.0601 3.1588 26.3566 3.36639 25.0097 2.64105C23.219 1.677 21.116 1.58718 19.2398 2.39352C16.1549 3.72043 15.7116 6.33898 15.3658 7.61562C14.8252 9.61141 13.1568 11.2022 11.0118 11.7672C6.86491 12.86 4.99588 17.363 7.11 20.8451C8.39808 22.9669 7.73557 25.6197 5.56913 27.0157C2.61736 28.9175 1.32084 32.3754 2.34245 35.6205L3.3757 38.9023C3.83212 40.3518 3.50115 41.9285 2.49022 43.1194C-0.598822 46.7587 -0.835661 51.8131 1.90103 55.6971L2.31451 56.2838C3.25775 57.6225 3.17749 59.3697 2.11443 60.6317C-0.177273 63.3521 0.0633174 67.2484 2.6738 69.6948C3.27762 70.2611 4.22704 70.2311 4.7943 69.6262C5.3608 69.0216 5.33005 68.0722 4.72548 67.5057C3.29863 66.1685 3.16267 64.0444 4.40894 62.5647C6.36366 60.2443 6.50768 57.0257 4.76711 54.5554L4.35362 53.9687C2.41727 51.2207 2.58773 47.641 4.77761 45.0608C6.45968 43.0791 7.00536 40.4398 6.23765 38.0012L5.20441 34.7194C4.59384 32.7803 5.39343 30.698 7.1942 29.5376C10.7023 27.2772 11.7918 22.775 9.67473 19.2881C8.56442 17.4592 9.64454 15.2301 11.7761 14.6685C14.9561 13.8308 17.4413 11.4291 18.2619 8.40002L18.5889 7.19295C19.1196 5.23466 21.5951 4.21004 23.5875 5.28267C26.0532 6.61032 29.1852 6.21634 31.2035 4.325C33.111 2.53735 36.2146 2.53735 38.1221 4.325C40.1402 6.21634 43.272 6.61032 45.7381 5.28267C47.7324 4.20873 50.2066 5.2371 50.7367 7.19295L51.0637 8.40002C51.8843 11.4289 54.3695 13.8308 57.5493 14.6685C59.6816 15.2301 60.7608 17.4597 59.6509 19.2881C57.5338 22.7752 58.6235 27.2772 62.1314 29.5376C63.9322 30.698 64.7318 32.7803 64.1212 34.7194L63.088 38.0012C62.3201 40.4399 62.8658 43.0791 64.548 45.0608C66.7379 47.641 66.9083 51.2207 64.9722 53.9687L64.5585 54.5554C62.8179 57.0257 62.962 60.2443 64.9167 62.5645C65.3013 63.0211 65.561 63.5364 65.6885 64.0958C65.8729 64.9036 66.6769 65.409 67.4848 65.2248C68.2926 65.0407 68.798 64.2364 68.6139 63.4286C68.3815 62.413 67.8966 61.4459 67.2106 60.6317V60.6317ZM40.2617 69.7254C39.7549 69.0705 38.8126 68.9505 38.1572 69.4574L34.6623 72.1631L26.0844 65.5221L25.9698 64.7789C27.7173 63.2062 28.815 61.0465 29.0048 58.6438C41.8637 62.4289 54.7271 52.7237 54.7271 39.3923C54.7271 28.3772 54.7329 28.8389 54.7166 28.6962C54.6272 27.9101 53.9347 27.3489 53.2168 27.368C52.8979 27.371 51.0973 27.7183 49.3123 26.6446C46.4904 24.9469 46.476 21.2259 46.4762 21.1884C46.4835 19.9693 45.1048 19.2502 44.1091 19.9549C37.9565 24.3105 30.7259 27.2907 22.8382 28.3953C22.0178 28.51 21.4456 29.2684 21.5606 30.0889C21.6757 30.911 22.4358 31.4815 23.2543 31.3665C30.6006 30.338 37.6019 27.7472 43.8505 23.7457C44.955 27.8903 48.0521 30.2022 51.7266 30.4109V39.3921C51.7266 48.8015 44.0716 56.4565 34.6622 56.4565C25.2527 56.4565 17.5977 48.8015 17.5977 39.3921V28.8674C17.5977 28.039 16.926 27.3673 16.0975 27.3673C15.2691 27.3673 14.5974 28.039 14.5974 28.8674V39.3921C14.5974 47.3696 19.2775 54.2741 26.0362 57.5057V57.9014C26.0362 59.5728 25.3843 61.1431 24.2007 62.3233C22.1166 64.4022 19.4429 64.1537 19.7675 64.1537C11.2096 64.1537 4.28368 71.0789 4.28368 79.6376V88.4993C4.28368 89.3277 4.95538 89.9994 5.78385 89.9994C6.61232 89.9994 7.28402 89.3277 7.28402 88.4993V79.6376C7.28402 72.7377 12.8675 67.1541 19.7679 67.1541C20.9648 67.1541 22.1237 66.9274 23.1993 66.5002L26.624 88.7277C26.7519 89.5571 27.5288 90.1078 28.3352 89.9818C29.1541 89.8556 29.7155 89.0896 29.5893 88.2709L26.7482 69.8304L33.7439 75.2464C34.2845 75.6649 35.0396 75.6649 35.5806 75.2464L39.9938 71.8297C40.6492 71.3227 40.7692 70.3806 40.2617 69.7254V69.7254Z" fill="#DBE5E5"/>
</svg>
