<svg width="51" height="64" viewBox="0 0 51 64" fill="none" xmlns="http://www.w3.org/2000/svg">
<path d="M25.5 49.9298C19.8016 49.9298 14.2569 47.9261 9.88874 44.2878C4.28713 39.6373 1.07056 32.787 1.07056 25.5004C1.07029 12.0295 12.0294 1.07043 25.5 1.07043C38.9706 1.07043 49.9297 12.0295 49.9297 25.5001C49.9297 32.787 46.7128 39.637 41.104 44.2937C36.743 47.9258 31.1984 49.9298 25.5 49.9298V49.9298Z" fill="#27607A"/>
<path d="M25.4998 43.7655C21.0616 43.7655 16.9964 42.1855 13.8333 39.551V60.8906C13.8333 61.8184 14.8456 62.3895 15.6402 61.9125L24.8833 56.3323C25.2629 56.1053 25.7365 56.1053 26.1161 56.3323L26.8298 56.7639L35.3592 61.9125C36.1541 62.3895 37.1661 61.8184 37.1661 60.8906V40.4141V39.551C34.003 42.1855 29.9381 43.7655 25.4998 43.7655Z" fill="#FFD15C"/>
<path d="M25.4999 7.23486C15.4133 7.23486 7.23438 15.4105 7.23438 25.5004C7.23438 31.152 9.80068 36.2033 13.8333 39.5514C16.9964 42.1859 21.0616 43.7659 25.4999 43.7659C29.9381 43.7659 34.0031 42.1859 37.1665 39.5514C41.1991 36.2033 43.7654 31.152 43.7654 25.5004C43.7654 15.4105 35.5865 7.23486 25.4999 7.23486V7.23486Z" fill="#FFD15C"/>
<path d="M29.9775 20.4434H30.0916C32.6553 20.4434 34.7336 22.5217 34.7336 25.0854V31.7605C34.7336 34.3241 32.6553 36.4025 30.0916 36.4025H26.3619C24.2266 36.4025 22.29 35.5632 20.8585 34.1985C20.6673 34.0148 20.4109 33.9161 20.1472 33.9161H16.6919C15.6665 33.9161 14.8352 33.0848 14.8352 32.0594V24.2573C14.8352 23.2319 15.6665 22.4006 16.6919 22.4006H20.7267C20.9828 22.4006 21.2336 22.3078 21.4248 22.1351C23.2935 20.4421 26.098 16.1466 27.5002 14.0554C27.786 13.6284 28.3617 13.5151 28.7887 13.7993C30.5914 15.0143 30.7502 16.7442 29.9443 18.0212L29.2491 19.1228C28.8873 19.6961 29.2994 20.4434 29.9775 20.4434V20.4434Z" fill="#ECB090"/>
</svg>
