<svg width="55" height="55" viewBox="0 0 55 55" fill="none" xmlns="http://www.w3.org/2000/svg">
<g clip-path="url(#clip0)">
<path d="M42.002 1.61133V18.7988C42.002 19.3026 41.7656 19.7785 41.3639 20.0825L35.4557 24.5631L28.4732 29.8579C28.1854 30.076 27.8427 30.1855 27.5 30.1855C27.1573 30.1855 26.8146 30.076 26.5268 29.8579L19.5443 24.5631L13.6361 20.0825C13.2344 19.7785 12.998 19.3026 12.998 18.7988V1.61133C12.998 0.721875 13.7199 0 14.6094 0H40.3906C41.2801 0 42.002 0.721875 42.002 1.61133Z" fill="#72A3FC"/>
<path d="M40.3906 0H27.5V30.1855C27.8427 30.1855 28.1854 30.076 28.4732 29.8579L35.4557 24.5631L41.3639 20.0825C41.7656 19.7785 42.002 19.3026 42.002 18.7988V1.61133C42.002 0.721875 41.2801 0 40.3906 0Z" fill="#2892FC"/>
<path d="M35.4558 0V24.5631L28.4733 29.8579C28.1854 30.076 27.8428 30.1855 27.5001 30.1855C27.1574 30.1855 26.8147 30.076 26.5269 29.8579L19.5444 24.5631V0H35.4558Z" fill="#5458EA"/>
<path d="M27.5 0V30.1855C27.8427 30.1855 28.1854 30.076 28.4732 29.8579L35.4557 24.5631V0H27.5Z" fill="#394BF6"/>
<path d="M27.5 26.9629C19.7701 26.9629 13.4814 33.2516 13.4814 40.9814C13.4814 48.7113 19.7701 55 27.5 55C35.2299 55 41.5186 48.7113 41.5186 40.9814C41.5186 33.2516 35.2299 26.9629 27.5 26.9629Z" fill="#FAD557"/>
<path d="M27.5 26.9629V55C35.2299 55 41.5186 48.7113 41.5186 40.9814C41.5186 33.2516 35.2299 26.9629 27.5 26.9629Z" fill="#FCB12B"/>
<path d="M34.7222 39.2061C34.5483 38.6709 34.1078 38.2652 33.56 38.1358L30.5062 37.4149L28.877 34.7334C28.5847 34.2523 28.0627 33.9587 27.4999 33.9587C26.9371 33.9587 26.4151 34.2523 26.1229 34.7334L24.4936 37.4149L21.4398 38.1358C20.8921 38.2652 20.4515 38.6708 20.2776 39.2061C20.1037 39.7414 20.2217 40.3285 20.5887 40.7551L22.6354 43.1334L22.3775 46.2604C22.3312 46.8213 22.581 47.3656 23.0363 47.6965C23.4916 48.0271 24.0864 48.0964 24.6057 47.8791L27.4999 46.6675L30.3941 47.8791C30.9131 48.0963 31.508 48.0274 31.9634 47.6965C32.4188 47.3656 32.6684 46.8213 32.6222 46.2604L32.3643 43.1334L34.411 40.7551C34.7782 40.3285 34.8961 39.7414 34.7222 39.2061Z" fill="#FDA429"/>
<path d="M34.7223 39.2061C34.5484 38.6709 34.1078 38.2652 33.5601 38.1358L30.5063 37.4149L28.877 34.7334C28.5847 34.2523 28.0628 33.9587 27.5 33.9587V46.6675L30.3942 47.8791C30.9132 48.0963 31.5081 48.0274 31.9635 47.6965C32.4188 47.3656 32.6685 46.8213 32.6223 46.2604L32.3644 43.1334L34.4111 40.7551C34.7783 40.3285 34.8962 39.7414 34.7223 39.2061Z" fill="#E28117"/>
</g>
<defs>
<clipPath id="clip0">
<rect width="55" height="55" fill="white"/>
</clipPath>
</defs>
</svg>
