<svg width="53" height="58" viewBox="0 0 53 58" fill="none" xmlns="http://www.w3.org/2000/svg">
<path d="M26.449 45.8311C39.1049 45.8311 49.3645 35.5714 49.3645 22.9155C49.3645 10.2596 39.1049 0 26.449 0C13.7931 0 3.53345 10.2596 3.53345 22.9155C3.53345 35.5714 13.7931 45.8311 26.449 45.8311Z" fill="#FFD15C"/>
<path d="M7.88467 36.3217L0 49.9892L9.20257 49.5006L13.3835 57.7148L20.6774 45.0698C15.4512 43.7178 10.9636 40.5707 7.88467 36.3217Z" fill="#40596B"/>
<path d="M45.0584 36.2534C42.0023 40.5139 37.5146 43.6723 32.2998 45.047L39.6164 57.7147L43.7973 49.5006L52.9999 49.9891L45.0584 36.2534Z" fill="#40596B"/>
<path d="M26.4489 39.5257C35.6224 39.5257 43.059 32.0891 43.059 22.9156C43.059 13.7421 35.6224 6.30554 26.4489 6.30554C17.2755 6.30554 9.83887 13.7421 9.83887 22.9156C9.83887 32.0891 17.2755 39.5257 26.4489 39.5257Z" fill="#F8B64C"/>
<path d="M37.8329 21.1204C38.3442 20.6205 38.0601 19.7457 37.3557 19.6434L30.8003 18.6891C30.5163 18.6436 30.2777 18.4732 30.1527 18.2119L27.2216 12.27C26.9034 11.6224 25.9832 11.6224 25.6651 12.27L22.7452 18.2119C22.6203 18.4618 22.3703 18.6436 22.0977 18.6891L15.5422 19.6434C14.8378 19.7457 14.5538 20.6205 15.0651 21.1204L19.8027 25.7444C20.0072 25.9489 20.0981 26.2329 20.0526 26.5056L18.9392 33.0269C18.8143 33.7313 19.5641 34.2766 20.2003 33.9358L26.0627 30.8569C26.3127 30.7206 26.6194 30.7206 26.8694 30.8569L32.7317 33.9358C33.368 34.2653 34.1064 33.7313 33.9928 33.0269L32.8681 26.5056C32.8226 26.2215 32.9135 25.9375 33.118 25.7444L37.8329 21.1204Z" fill="white"/>
</svg>
