<svg width="34" height="60" viewBox="0 0 34 60" fill="none" xmlns="http://www.w3.org/2000/svg">
<path d="M27.6845 18.9663L20.6421 22.4875L16.8977 23.6593L13.1463 22.4875L6.10391 18.9663C5.82606 18.8273 5.65039 18.5433 5.65039 18.2326V0.00012207H28.1377V18.2326C28.1379 18.5434 27.9623 18.8273 27.6845 18.9663V18.9663Z" fill="#9BD8F9"/>
<path d="M13.1462 22.4875H20.6419V28.1094H13.1462V22.4875Z" fill="#F9D264"/>
<path d="M13.1465 22.488H15.5596V28.1095H13.1465V22.488Z" fill="#EFC356"/>
<path d="M15.5598 22.4882H13.1466L6.10355 18.9661C5.82569 18.8271 5.65015 18.543 5.65015 18.2324V0H8.06327V18.2324C8.06327 18.543 8.23882 18.8271 8.51667 18.9661L15.5598 22.4882Z" fill="#73C3F9"/>
<path d="M16.8942 60C26.2246 60 33.7884 52.4362 33.7884 43.1058C33.7884 33.7753 26.2246 26.2115 16.8942 26.2115C7.5638 26.2115 0 33.7753 0 43.1058C0 52.4362 7.5638 60 16.8942 60Z" fill="#FFF292"/>
<path d="M6.70734 43.1058C6.70734 34.9382 12.5334 28.1058 20.2479 26.546C19.1637 26.3267 18.0422 26.2117 16.8942 26.2117C7.57875 26.2117 0 33.7904 0 43.1059C0 52.4214 7.57875 60 16.8942 60C18.0421 60 19.1637 59.8848 20.2479 59.6657C12.5333 58.1058 6.70734 51.2734 6.70734 43.1058Z" fill="#F9E77D"/>
<path d="M16.8942 56.2233C24.1389 56.2233 30.0118 50.3503 30.0118 43.1057C30.0118 35.861 24.1389 29.988 16.8942 29.988C9.64957 29.988 3.77661 35.861 3.77661 43.1057C3.77661 50.3503 9.64957 56.2233 16.8942 56.2233Z" fill="#F9D264"/>
<path d="M17.7131 36.1191L19.3219 39.3789C19.4549 39.6484 19.712 39.8352 20.0094 39.8784L23.6068 40.4012C24.3559 40.5101 24.6549 41.4305 24.113 41.9589L21.5099 44.4962C21.2946 44.706 21.1964 45.0083 21.2473 45.3045L21.8618 48.8873C21.9898 49.6334 21.2067 50.2022 20.5367 49.85L17.3191 48.1584C17.0531 48.0186 16.7353 48.0186 16.4693 48.1584L13.2517 49.85C12.5817 50.2023 11.7988 49.6334 11.9266 48.8873L12.5412 45.3045C12.592 45.0082 12.4937 44.706 12.2785 44.4962L9.67545 41.9588C9.13346 41.4305 9.43252 40.51 10.1816 40.4011L13.779 39.8783C14.0764 39.8351 14.3335 39.6483 14.4665 39.3788L16.0754 36.1189C16.4103 35.4403 17.3781 35.4403 17.7131 36.1191V36.1191Z" fill="#FFF292"/>
<path d="M13.1462 0.00012207H20.642V22.4875H13.1462V0.00012207Z" fill="#F25A74"/>
<path d="M13.1465 0H15.5596V22.4882H13.1465V0Z" fill="#E83D5A"/>
<path d="M11.8254 31.0034C7.09759 32.9859 3.77661 37.658 3.77661 43.1058C3.77661 48.5537 7.09759 53.2257 11.8254 55.2083C8.67001 52.1371 6.70724 47.8464 6.70724 43.1058C6.70735 38.3651 8.67001 34.0744 11.8254 31.0034V31.0034Z" fill="#EFC356"/>
</svg>
