<svg width="61" height="61" viewBox="0 0 61 61" fill="none" xmlns="http://www.w3.org/2000/svg">
<path d="M30.5 36.6L5.3823 23.2033C2.06888 21.4374 0 17.9879 0 14.2334V14.2313C0 6.37164 6.37807 0 14.2312 0H14.2333H14.2312C14.2312 0 1.84561 7.94561 13.7585 19.8586L30.5 36.6Z" fill="#FF646E"/>
<path d="M30.5 36.6L55.6177 23.2033C58.9311 21.4374 61 17.9879 61 14.2334V14.2313C61 6.37164 54.6219 0 46.7688 0H46.7667H46.7688C46.7688 0 59.1544 7.94561 47.2415 19.8586L30.5 36.6Z" fill="#F0323C"/>
<path d="M46.7667 0H14.2335C9.7452 0 6.1001 3.6407 6.1001 8.13337C6.1001 10.7371 7.13412 13.234 8.9752 15.0752L13.7587 19.8586C12.3272 18.4262 11.5219 16.4843 11.5219 14.459C11.5219 10.9746 14.348 8.13337 17.8487 8.13337H43.1514C46.6522 8.13337 49.4781 10.9746 49.4781 14.459C49.4781 16.4842 48.6729 18.4261 47.2414 19.8586L52.0249 15.0752C53.8661 13.234 54.9 10.7371 54.9 8.13337C54.9001 3.6407 51.255 0 46.7667 0V0Z" fill="#F0323C"/>
<path d="M46.7666 0H30.5V8.13337H43.1514C46.6523 8.13337 49.4781 10.9746 49.4781 14.459C49.4781 16.4842 48.6729 18.4261 47.2414 19.8586L52.0249 15.0752C53.8661 13.234 54.9 10.7371 54.9 8.13337C54.9 3.6407 51.2549 0 46.7666 0V0Z" fill="#BE0000"/>
<path d="M30.5 61C37.8301 61 43.7723 55.0578 43.7723 47.7277C43.7723 40.3976 37.8301 34.4554 30.5 34.4554C23.17 34.4554 17.2278 40.3976 17.2278 47.7277C17.2278 55.0578 23.17 61 30.5 61Z" fill="#FFDC00"/>
<path d="M30.5 61V34.4554C37.8185 34.4554 43.7723 40.4094 43.7723 47.7277C43.7723 55.046 37.8185 61 30.5 61V61Z" fill="#FFB446"/>
<path d="M32.4142 49.769H32.2872V43.8993C32.2872 42.9123 31.487 42.1122 30.5001 42.1122C29.5131 42.1122 28.7129 42.9123 28.7129 43.8993V44.0263H28.5859C27.599 44.0263 26.7988 44.8264 26.7988 45.8134C26.7988 46.8004 27.599 47.6005 28.5859 47.6005H28.7129V49.7689H28.5859C27.599 49.7689 26.7988 50.569 26.7988 51.556C26.7988 52.5429 27.599 53.3431 28.5859 53.3431H32.4143C33.4012 53.3431 34.2014 52.5429 34.2014 51.556C34.2014 50.569 33.4012 49.769 32.4142 49.769V49.769Z" fill="#FFFF64"/>
<path d="M32.4141 53.3432C33.4011 53.3432 34.2012 52.5431 34.2012 51.5561C34.2012 50.5691 33.4011 49.769 32.4141 49.769H32.2871V43.8993C32.2871 42.9123 31.487 42.1122 30.5 42.1122V53.3432H32.4141Z" fill="#FFDC00"/>
</svg>
