<svg width="53" height="53" viewBox="0 0 53 53" fill="none" xmlns="http://www.w3.org/2000/svg">
<g clip-path="url(#clip0)">
<path d="M20.2794 7.80222L14.6275 4.41619L14.4744 3.92554H38.8596L38.7483 4.41619L33.1624 7.94959H20.2794" fill="#AABFCF"/>
<path d="M14.6273 4.41617H38.7481L39.75 0H13.2498L14.6273 4.41617Z" fill="#1179F0"/>
<path d="M27.1105 7.94959L22.0817 3.92554H14.4744L14.6275 4.41619L20.2794 7.80222V7.94959H27.1105Z" fill="#9BB1C2"/>
<path d="M17.1758 0H13.2498L14.6273 4.41617H22.6947L17.1758 0Z" fill="#116AF0"/>
<path d="M33.374 15.707L43.5547 7.59628C43.9711 7.2691 44.8878 7.31037 44.5133 6.93585L43.7038 3.95346L39.75 0L25.967 11.8313V18.2085H35.3333L33.374 15.707Z" fill="#118DF0"/>
<path d="M46.996 7.24557L43.6757 3.92566L30.9165 14.133V18.2086H35.3332V17.6664L46.9171 8.56471C47.3335 8.23753 47.3704 7.61998 46.996 7.24557V7.24557Z" fill="#D0E2ED"/>
<path d="M28.8618 9.34644L25.967 11.8313V18.2085H35.3333V17.6663L37.3412 16.0886L28.8618 9.34644Z" fill="#1179F0"/>
<path d="M32.893 12.5518L30.9165 14.1329V18.2085H35.3332V17.6662L37.3411 16.0886L32.893 12.5518Z" fill="#AABFCF"/>
<path d="M35.3333 17.6663L13.2498 0L9.31221 3.93736L7.57441 7.25268C7.19989 7.6272 7.84389 7.66623 8.26032 7.99351L19.4268 17.1298L17.6664 18.2086H35.3332V17.6663H35.3333Z" fill="#118DF0"/>
<path d="M9.32403 3.92566L6.0039 7.24557C5.62939 7.61998 5.66628 8.23764 6.08271 8.56481L17.6666 17.6664V18.2086H26.5001V17.6665L9.32403 3.92566Z" fill="#D0E2ED"/>
<path d="M24.7332 26.2509V22.9663C24.7332 21.9905 25.5241 21.1996 26.4999 21.1996C27.4756 21.1996 28.2666 21.9905 28.2666 22.9663V26.2509H24.7332Z" fill="#F58C31"/>
<path d="M36.4852 48.8576C42.0039 43.339 42.0039 34.3915 36.4852 28.8728C30.9666 23.3542 22.0191 23.3542 16.5004 28.8728C10.9818 34.3915 10.9818 43.339 16.5004 48.8576C22.0191 54.3763 30.9666 54.3763 36.4852 48.8576Z" fill="#FDBE40"/>
<path d="M33.6271 21.1997H19.3727C18.4304 21.1997 17.6665 20.4358 17.6665 19.4934V17.6663H35.3333V19.4934C35.3333 20.4358 34.5695 21.1997 33.6271 21.1997V21.1997Z" fill="#FDBE40"/>
<path d="M26.5 49.4667C32.3543 49.4667 37.1001 44.7209 37.1001 38.8666C37.1001 33.0123 32.3543 28.2665 26.5 28.2665C20.6457 28.2665 15.8999 33.0123 15.8999 38.8666C15.8999 44.7209 20.6457 49.4667 26.5 49.4667Z" fill="#F58C31"/>
<path d="M27.0736 32.6603L28.5347 35.6208C28.6279 35.8097 28.808 35.9405 29.0165 35.9708L32.2836 36.4456C32.8084 36.5218 33.0179 37.1668 32.6382 37.5369L30.2741 39.8414C30.1233 39.9884 30.0545 40.2002 30.09 40.4078L30.6481 43.6617C30.7377 44.1843 30.1891 44.583 29.7197 44.3362L26.7974 42.7999C26.611 42.7019 26.3883 42.7019 26.2019 42.7999L23.2797 44.3362C22.8102 44.583 22.2617 44.1843 22.3513 43.6617L22.9093 40.4078C22.9449 40.2003 22.876 39.9885 22.7253 39.8414L20.3612 37.5369C19.9814 37.1668 20.191 36.5218 20.7157 36.4456L23.9829 35.9708C24.1912 35.9405 24.3715 35.8097 24.4647 35.6208L25.9257 32.6603C26.1608 32.1847 26.8389 32.1847 27.0736 32.6603Z" fill="#FDBE40"/>
<path d="M26.5 24.733C26.0868 24.733 25.678 24.7518 25.2737 24.7866C32.505 25.4083 38.1808 31.4741 38.1808 38.8664C38.1808 46.2589 32.505 52.3247 25.2737 52.9463C25.678 52.9811 26.0868 52.9998 26.5 52.9998C34.3058 52.9998 40.6335 46.672 40.6335 38.8663C40.6335 31.0607 34.3058 24.733 26.5 24.733V24.733Z" fill="#FAA83C"/>
<path d="M32.8808 17.6663V19.4934C32.8808 20.4358 32.1168 21.1997 31.1746 21.1997H33.6273C34.5695 21.1997 35.3335 20.4358 35.3335 19.4934V17.6663H32.8808Z" fill="#FAA83C"/>
</g>
<defs>
<clipPath id="clip0">
<rect width="53" height="53" fill="white"/>
</clipPath>
</defs>
</svg>
