<svg width="254" height="489" viewBox="0 0 254 489" fill="none" xmlns="http://www.w3.org/2000/svg">
<path d="M15.3184 160.026C12.679 159.484 9.95669 159.484 7.31722 160.026C5.02275 160.429 2.79449 161.145 0.694934 162.154C-0.098345 166.273 -0.213352 170.494 0.354457 174.65C2.36327 189.375 12.6287 198.892 19.8808 205.633C26.1975 211.486 33.3526 216.364 41.1096 220.104C40.5989 218.282 39.8158 215.592 38.8795 212.341C36.2748 203.369 34.998 199.317 33.8915 195.538C27.5245 173.918 28.2055 167.704 21.8386 163.023C19.88 161.611 17.6655 160.593 15.3184 160.026V160.026Z" fill="#EBBFB0"/>
<path d="M240.527 161.303C242.806 161.203 245.088 161.345 247.337 161.729C249.402 162.072 251.423 162.643 253.363 163.431C254.077 167.553 254.191 171.756 253.704 175.91C252.691 183.324 249.893 190.381 245.549 196.475C235.335 211.949 219.298 218.929 213.068 221.329C213.663 219.423 214.583 216.512 215.706 212.971C220.405 198.075 222.771 190.635 223.061 189.546C224.763 182.924 226.959 176.403 228.815 169.815C229.428 167.67 230.415 164.095 233.479 162.376C235.131 161.525 236.935 161.439 240.527 161.303Z" fill="#EBBEAF"/>
<path d="M75.6509 465.264C76.2637 466.507 77.3533 468.669 78.3917 471.291C82.2221 480.466 82.171 483.99 85.729 486.357C87.7633 487.528 90.056 488.177 92.4024 488.246C95.6825 488.838 99.0644 488.447 102.123 487.123C104.42 486.174 106.378 484.554 107.741 482.475C109.443 479.53 108.524 477.606 109.596 473.112C110.275 470.374 111.428 467.776 113.001 465.434L75.6509 465.264Z" fill="#EBBFB0"/>
<path d="M182.339 390.427C183.31 392.64 184.212 394.598 186.357 395.654C188.059 396.539 190.885 396.811 192.247 395.466C192.826 394.888 193.03 393.866 193.456 391.823C193.967 389.338 193.677 389.048 194.103 388.18C195.107 386.222 197.32 386.376 198.87 385.201C200.419 384.026 201.61 381.303 200.572 374.646C197.909 376.586 194.971 378.118 191.856 379.192C188.224 380.465 184.4 381.104 180.552 381.081C180.475 384.288 181.084 387.475 182.339 390.427V390.427Z" fill="#EBBFB0"/>
<path d="M43.5438 376.315C42.9795 378.549 42.9795 380.889 43.5438 383.124C43.8163 384.466 44.3994 385.725 45.2462 386.801C46.1144 387.857 46.6421 387.874 49.4 389.815C50.605 390.541 51.7096 391.423 52.6856 392.436C53.8943 394.037 53.4176 394.752 54.6433 396.76C55.4025 398.078 56.4501 399.207 57.7076 400.063C58.2354 400.403 61.538 402.548 63.5638 401.187C64.4491 400.591 64.7044 399.586 65.062 398.139C65.5259 396.202 65.5665 394.187 65.1811 392.232C64.0397 390.809 63.1475 389.203 62.5424 387.482C61.7017 385.021 61.4566 382.396 61.8274 379.822C59.4169 380.187 56.9732 380.284 54.5412 380.111C51.8529 380.085 49.1986 379.506 46.7443 378.409C45.5985 377.839 44.5242 377.137 43.5438 376.315V376.315Z" fill="#EBBFB0"/>
<path d="M35.3555 201.343C38.3517 210.587 39.288 213.549 40.3435 217.278C42.8971 226.436 43.0503 228.769 44.5654 232.225C48.3617 240.822 55.7671 245.316 62.7639 249.419C80.0602 259.633 98.514 261.71 109.375 262.101V264.11C110.497 265.735 111.85 267.186 113.393 268.417C116.933 271.089 121.202 272.621 125.633 272.809C128.17 273.014 135.269 273.593 141.227 268.979C142.663 267.86 143.925 266.535 144.972 265.047V263.038C152.439 262.182 159.835 260.794 167.103 258.884C175.445 256.705 182.425 254.934 190.528 250.372C197.695 246.405 204.726 242.524 209.952 234.676C212.489 230.914 212.37 229.569 217.426 211.268C222.124 194.244 222.533 194.364 224.899 184.609C226.789 176.829 227.878 171.109 229.394 163.176C231.981 149.812 233.224 143.207 233.666 137.895C234.16 131.256 235.148 118.063 230.926 106.759C223.759 87.5388 203.551 79.0779 187.566 72.3705C163.869 62.4286 143.202 62.3605 130.008 62.4456C112.222 62.5079 94.5628 65.4396 77.7109 71.1278C56.9928 78.1927 43.6631 82.7721 33.8574 96.2891C22.9621 111.372 22.3833 129.588 21.9407 140.892C21.6807 149.756 22.4808 158.621 24.324 167.296C25.5327 172.488 25.9243 172.267 35.3555 201.343Z" fill="#EBBFB0"/>
<path d="M110.244 261.472C115.973 262.726 121.812 263.422 127.676 263.549C133.245 263.669 138.813 263.27 144.308 262.357L145.04 264.349C143.908 266.385 142.366 268.164 140.512 269.575C135.779 273.133 130.485 272.98 126.893 272.98C122.833 273.119 118.817 272.097 115.317 270.035C112.938 268.546 110.915 266.552 109.392 264.196L110.244 261.472Z" fill="#D1AA9D"/>
<path d="M80.5881 477.011C82.6768 472.968 86.0732 469.751 90.2236 467.886C92.1026 467.111 94.1154 466.712 96.1479 466.711C97.985 466.724 99.8056 467.058 101.527 467.699C104.724 468.95 107.462 471.148 109.375 473.997C109.172 475.043 109.041 476.101 108.984 477.164C108.984 477.658 108.984 478.1 108.865 478.866C108.781 479.559 108.662 480.246 108.507 480.926C107.769 482.753 106.545 484.343 104.966 485.523C103.084 486.947 100.89 487.904 98.5653 488.314C95.6761 488.778 92.7256 488.697 89.8661 488.076C89.1096 487.923 88.3687 487.701 87.653 487.412C86.5863 487.028 85.5995 486.451 84.742 485.71C84.2542 485.268 83.82 484.771 83.4481 484.229C82.9539 483.462 82.5538 482.639 82.2565 481.777C82.0352 481.267 81.8819 480.858 80.9456 478.185C80.8605 477.76 80.7073 477.317 80.5881 477.011Z" fill="#E5EFF0"/>
<path d="M92.0283 477.947L91.824 487.429" stroke="#659999" stroke-width="1.70239" stroke-linecap="round" stroke-linejoin="round"/>
<path d="M99.5527 487.14L99.6549 477.47" stroke="#659999" stroke-width="1.70239" stroke-linecap="round" stroke-linejoin="round"/>
<path d="M83.4143 482.186C85.6207 479.855 88.4139 478.162 91.5006 477.283C94.1812 476.524 97.0109 476.459 99.7232 477.096C102.608 477.796 105.257 479.247 107.401 481.301" stroke="#659999" stroke-width="1.70239" stroke-linecap="round" stroke-linejoin="round"/>
<path d="M92.1643 472.806C93.5949 472.352 95.0898 472.133 96.5905 472.159C97.842 472.174 99.0853 472.363 100.285 472.721" stroke="#659999" stroke-width="1.70239" stroke-linecap="round" stroke-linejoin="round"/>
<path d="M179.31 465.043C178.697 466.269 177.607 468.448 176.569 471.069C172.738 480.245 172.806 483.752 169.248 486.136C167.209 487.306 164.909 487.95 162.558 488.008C159.278 488.607 155.894 488.216 152.837 486.885C150.537 485.941 148.577 484.32 147.22 482.237C145.517 479.292 146.454 477.385 145.364 472.874C144.684 470.136 143.532 467.538 141.959 465.196L179.31 465.043Z" fill="#EBBFB0"/>
<path d="M174.373 476.772C172.283 472.722 168.871 469.508 164.703 467.665C161.101 466.143 157.05 466.075 153.399 467.477C150.203 468.712 147.467 470.906 145.568 473.759C145.755 474.813 145.886 475.875 145.96 476.943C145.96 477.436 145.96 477.862 146.062 478.56C146.062 478.56 146.198 479.717 146.42 480.637C147.163 482.461 148.386 484.049 149.961 485.233C151.845 486.651 154.038 487.602 156.361 488.008C159.251 488.472 162.201 488.391 165.061 487.77C165.818 487.619 166.559 487.397 167.274 487.106C168.343 486.728 169.331 486.15 170.185 485.403C170.671 484.954 171.105 484.452 171.479 483.905C171.97 483.141 172.375 482.324 172.687 481.471C172.892 480.96 173.045 480.552 173.998 477.862C174.1 477.538 174.271 477.096 174.373 476.772Z" fill="#E5EFF0"/>
<path d="M162.933 477.726C162.933 480.875 163.069 484.041 163.154 487.191" stroke="#659999" stroke-width="1.70239" stroke-linecap="round" stroke-linejoin="round"/>
<path d="M155.408 486.884C155.408 483.667 155.408 480.432 155.323 477.215" stroke="#659999" stroke-width="1.70239" stroke-linecap="round" stroke-linejoin="round"/>
<path d="M171.479 481.948C169.285 479.618 166.503 477.924 163.426 477.045C160.657 476.261 157.729 476.22 154.938 476.925C152.148 477.63 149.591 479.057 147.526 481.062" stroke="#659999" stroke-width="1.70239" stroke-linecap="round" stroke-linejoin="round"/>
<path d="M162.796 472.585C161.373 472.125 159.883 471.9 158.387 471.921C157.131 471.945 155.883 472.134 154.676 472.483" stroke="#659999" stroke-width="1.70239" stroke-linecap="round" stroke-linejoin="round"/>
<path d="M68.0923 287.178L179.973 285.901C179.462 285.067 178.918 284.198 178.271 283.364C177.624 282.53 177.317 281.968 176.841 281.304C160.01 281.577 142.986 281.741 125.769 281.798C107.894 281.798 90.212 281.73 72.7228 281.594C71.9227 282.428 71.0204 283.296 70.2203 284.369C69.4201 285.441 68.8243 286.275 68.0923 287.178Z" fill="#CADFDF"/>
<path d="M41.0416 361.964C40.9224 362.628 40.7522 363.564 40.599 364.704C40.3495 366.2 40.2525 367.717 40.3096 369.233C40.3879 370.587 40.681 371.92 41.1778 373.182C42.3269 375.48 44.2589 377.291 46.6254 378.29C48.0296 378.961 49.5278 379.414 51.0686 379.634C54.6128 380.263 58.2364 380.303 61.7937 379.754C76.9449 379.992 172.891 381.456 181.284 381.013C183.259 380.894 185.234 380.605 185.234 380.605C189.056 380.206 192.776 379.122 196.214 377.404C197.916 376.485 203.194 373.659 204.726 369.199C205.22 367.609 205.495 365.96 205.543 364.296C205.542 363.412 205.474 362.53 205.339 361.657L41.0416 361.964Z" fill="#63AFAF"/>
<path d="M205.339 361.674L41.0415 361.964C41.3479 360.448 41.6544 358.899 42.0119 357.316C42.2842 356.09 42.5566 354.882 42.846 353.69L203.977 354.422C204.232 355.512 204.488 356.652 204.726 357.827C204.964 359.001 205.169 360.465 205.339 361.674Z" fill="#ACCFCF"/>
<path d="M42.8459 353.69L203.977 354.422C203.5 352.481 203.006 350.507 202.462 348.481C202.07 347.068 201.679 345.655 201.287 344.276L45.2293 343.748C44.9058 345.127 44.5654 346.506 44.2249 347.902L42.8459 353.69Z" fill="#63AFAF"/>
<path d="M72.8591 281.594C90.7909 282.082 109.211 282.292 128.119 282.224C144.802 282.156 161.088 281.849 176.977 281.304C175.922 279.823 174.713 278.291 173.368 276.708C172.278 275.414 171.189 274.239 170.134 273.15C156.446 273.524 142.487 273.751 128.255 273.831C112.865 273.899 97.7877 273.785 83.0224 273.49C81.2101 274.613 79.465 275.841 77.7961 277.168C76.0633 278.543 74.4147 280.021 72.8591 281.594V281.594Z" fill="#8BBFBE"/>
<path d="M55.0181 313.496L191.924 313.905C191.328 312.049 190.698 310.143 190.034 308.219C189.37 306.295 188.604 304.201 187.889 302.278L59.8018 301.988C58.9846 303.827 58.0994 305.717 57.3674 307.657C56.6353 309.598 55.7501 311.539 55.0181 313.496Z" fill="#8BBFBE"/>
<path d="M59.8018 301.988L187.889 302.278C187.021 299.929 186 297.443 184.791 294.872C183.36 291.804 181.774 288.81 180.041 285.901C160.362 285.901 140.501 286.026 120.458 286.275C102.889 286.48 85.4737 286.78 68.2115 287.178C66.8837 289.033 65.5218 291.11 64.1939 293.408C62.5685 296.183 61.1021 299.048 59.8018 301.988V301.988Z" fill="#63AFAF"/>
<path d="M47.6638 334.027L197.95 333.295C196.963 330.061 195.942 326.809 194.92 323.54C193.899 320.272 192.877 317.088 191.856 313.905L54.95 313.496C53.5881 316.697 52.2603 320.102 50.9664 323.711C49.7748 327.32 48.6853 330.759 47.6638 334.027Z" fill="#CADFDF"/>
<path d="M201.287 344.276L45.2292 343.748C45.6378 342.045 46.0464 340.343 46.489 338.726C46.9316 337.109 47.3062 335.576 47.7318 334.027L198.018 333.295L199.551 338.402C200.146 340.343 200.725 342.318 201.287 344.276Z" fill="#8BBFBE"/>
<path d="M83.0222 273.49C97.867 273.774 113.03 273.888 128.51 273.831C142.64 273.763 156.514 273.536 170.133 273.15C166.972 269.774 163.004 267.259 158.602 265.841C154.2 264.424 149.509 264.15 144.972 265.047C143.349 267.295 141.258 269.165 138.843 270.528C135.477 272.318 131.688 273.16 127.88 272.963C123.934 273.105 120.02 272.213 116.525 270.375C113.708 268.841 111.266 266.701 109.375 264.11C105.012 264.61 100.714 265.574 96.5562 266.987C91.8 268.604 87.2559 270.787 83.0222 273.49V273.49Z" fill="#63AFAF"/>
<path opacity="0.33" d="M86.6824 320.272C94.7394 321.158 102.863 321.272 110.941 320.612C138.997 316.663 154.182 314.501 154.693 314.382C154.693 314.382 142.997 318.348 126.791 324.272C116.287 328.137 107.758 331.661 102.072 334.095L77.115 334.01C77.7619 329.073 78.4258 324.136 79.0727 319.216C81.5071 319.625 84.0437 320.051 86.6824 320.272Z" fill="#E5EFF0"/>
<path opacity="0.33" d="M75.2425 316.493C76.5981 317.284 77.88 318.196 79.0728 319.216C78.6302 322.167 78.216 325.163 77.8301 328.205C77.5747 330.146 77.3364 332.086 77.1151 334.01H47.6638L54.95 313.479C61.8581 312.069 69.0422 313.136 75.2425 316.493V316.493Z" fill="#E5EFF0"/>
<path d="M154.693 314.381C141.618 319.131 131.319 322.723 124.612 325.021C124.612 325.021 113.512 328.852 97.6969 336.053C93.9006 337.755 88.9466 339.458 84.9971 344.275C82.8468 347.129 80.9984 350.199 79.4814 353.434C77.3534 357.452 75.7702 360.891 74.7147 363.325C71.9858 364.648 69.5266 366.466 67.4625 368.688C64.3857 371.639 62.3995 375.545 61.8276 379.77C61.4839 384.456 62.9938 389.09 66.0325 392.674C67.8785 394.908 70.2066 396.695 72.8421 397.901C72.9782 416.207 73.1031 434.519 73.2166 452.837L113.58 453.773C114.312 451.117 120.134 429.939 123.675 417.887C124.186 416.184 125.293 412.507 126.842 412.473C128.391 412.439 129.48 415.605 130.025 417.138C133.43 426.756 138.861 446.282 140.869 453.552L180.62 453.245C181.471 428.254 180.858 406.906 179.905 390.257C179.616 384.945 176.892 355.869 173.742 326.162C173.215 321.191 171.291 309.138 170.576 292.914C170.202 284.556 170.202 277.712 170.27 273.303C168.444 271.342 166.338 269.661 164.022 268.315C161.429 266.795 158.606 265.708 155.663 265.097L154.693 314.381Z" fill="#3E5151"/>
<path opacity="0.5" d="M155.663 265.336L155.51 273.15C155.51 276.878 155.356 280.623 155.288 284.352H158.693C158.693 282.258 158.829 279.67 158.88 276.691C159.051 269.217 159.051 266.238 157.433 265.421C156.869 265.196 156.246 265.166 155.663 265.336V265.336Z" fill="#2F3D3D"/>
<path opacity="0.5" d="M155.543 291.791C155.32 292.996 155.161 294.212 155.067 295.434C154.934 296.985 154.9 298.543 154.965 300.099L170.95 299.673C170.95 298.379 170.78 297.051 170.712 295.723C170.712 294.123 170.541 292.557 170.49 291.008L155.543 291.791Z" fill="#2F3D3D"/>
<path opacity="0.5" d="M154.778 305.478V308.644L171.512 306.942L171.206 303.844L154.778 305.478Z" fill="#2F3D3D"/>
<path d="M105.221 352.958C105.043 354.717 105.246 356.494 105.817 358.167C106.24 359.394 106.861 360.545 107.655 361.572C108.609 362.745 109.762 363.742 111.06 364.517C115.044 366.798 121.819 365.521 131.046 365.521C136.377 365.623 141.71 365.401 147.015 364.857C148.215 364.703 149.373 364.309 150.419 363.7C151.049 363.337 151.623 362.884 152.122 362.355C152.6 361.777 152.985 361.128 153.262 360.431C153.892 358.848 154.42 345.808 154.488 327.898L137.362 328.018L140.767 324.885H157.791C157.995 343.867 157.791 357.86 156.991 360.993C156.782 361.862 156.444 362.694 155.986 363.461C154.843 365.13 153.206 366.398 151.305 367.087C150.084 367.601 148.792 367.928 147.474 368.058C141.737 368.637 132.629 368.466 130.859 368.449C123.658 368.449 113.835 369.232 110.175 367.479C109.059 366.913 108.018 366.21 107.077 365.385C106.333 364.673 105.665 363.886 105.085 363.036C103.523 360.298 102.663 357.215 102.582 354.064L105.221 352.958Z" fill="#2F3D3D"/>
<path d="M133.804 331.167C138.384 331.167 141.771 331.167 142.759 331.167C143.133 331.164 143.498 331.283 143.797 331.508C143.968 331.632 144.112 331.79 144.22 331.971C144.328 332.153 144.399 332.354 144.427 332.563C144.474 332.895 144.402 333.233 144.223 333.517C143.993 333.768 143.711 333.965 143.396 334.094C143.081 334.224 142.741 334.282 142.401 334.266C140.852 334.368 136.256 334.266 130.161 334.112L133.804 331.167Z" fill="#2F3D3D"/>
<path d="M155.033 331.457C151.628 331.457 149.007 331.457 148.224 331.61C147.882 331.634 147.558 331.772 147.304 332.001C147.149 332.15 147.037 332.339 146.981 332.546C146.923 332.773 146.924 333.011 146.984 333.237C147.043 333.463 147.159 333.671 147.321 333.84C147.495 333.991 147.698 334.105 147.918 334.175C148.137 334.245 148.369 334.27 148.598 334.248H154.931L155.033 331.457Z" fill="#2F3D3D"/>
<path opacity="0.5" d="M180.143 398.667C168.652 400.539 152.514 403.212 151.203 403.655C151.033 403.655 150.505 403.91 150.505 404.131C150.505 404.353 151.033 404.455 151.203 404.506C153.178 404.983 170.968 405.102 172.925 405.851C173.339 406.021 173.728 406.244 174.083 406.515C174.437 406.803 174.747 407.141 175.002 407.519C175.581 408.387 177.913 425.343 180.688 448.547C180.927 440.307 181.012 431.744 180.892 422.892C180.824 414.482 180.575 406.407 180.143 398.667Z" fill="#2F3D3D"/>
<path opacity="0.5" d="M121.973 423.76C120.465 424.826 119.102 426.085 117.921 427.505C115.742 430.161 114.516 433.157 110.686 444.444C109.46 448.121 109.256 448.819 108.371 449.296C105.664 450.726 102.361 446.964 95.3644 446.385C93.8619 446.249 92.3493 446.278 90.853 446.47C91.6667 447.564 92.6912 448.485 93.8663 449.177C95.4402 449.945 97.0673 450.599 98.7351 451.134C100.218 451.78 101.604 452.628 102.855 453.654L113.512 453.858C116.349 443.791 119.169 433.759 121.973 423.76Z" fill="#2F3D3D"/>
<path opacity="0.5" d="M77.4382 403.467C78.1362 402.293 79.8556 402.123 81.4558 402.02L93.2874 401.322C93.696 401.322 94.5982 401.22 94.6663 400.897C94.7344 400.573 94.3429 400.386 93.696 400.012C92.1979 399.143 88.9974 397.645 88.1462 397.135C87.993 397.032 87.6866 396.845 87.6695 396.556C87.6607 396.407 87.7095 396.261 87.8057 396.147C89.2231 394.09 90.7519 392.113 92.3851 390.223C92.5712 389.999 92.7892 389.804 93.032 389.644C93.1957 389.541 93.3664 389.45 93.5428 389.372C94.5642 388.98 99.9608 389.78 101.918 389.882C102.242 389.882 102.821 389.882 102.889 389.695C102.957 389.508 102.616 389.236 102.429 389.082C101.169 388.095 98.3946 386.307 97.8498 385.916C97.6968 385.801 97.5693 385.657 97.4753 385.49C97.3721 385.284 97.3195 385.057 97.3221 384.826C97.41 383.74 97.5635 382.66 97.7817 381.592H96.4879C93.2225 384.342 89.8129 386.916 86.2736 389.304C82.042 392.144 77.6354 394.714 73.0801 396.998L73.4206 451.628L77.0977 451.747C77.0977 425.667 77.0977 406.651 77.0977 404.676C77.0959 404.249 77.2139 403.831 77.4382 403.467V403.467Z" fill="#2F3D3D"/>
<path d="M74.7145 363.325C70.0164 365.04 66.1218 368.437 63.7852 372.859C62.4097 375.616 61.715 378.664 61.7593 381.745C62.6281 382.769 63.6934 383.609 64.8922 384.214C66.0911 384.819 67.3992 385.178 68.7391 385.269C70.3736 385.28 71.9876 384.906 73.4513 384.179C74.915 383.451 76.1874 382.39 77.1659 381.081L74.7145 363.325Z" fill="#445957"/>
<path d="M62.3211 386.682C63.0748 389.609 64.7893 392.199 67.1899 394.036C69.118 395.605 71.5143 396.486 73.9994 396.539C77.4042 396.437 80.2131 394.428 85.4565 390.717L86.1715 390.206L87.8739 388.997L92.981 385.337C88.209 383.272 84.3368 379.563 82.0687 374.885C80.4524 376.747 78.7181 378.504 76.8765 380.145C73.2163 383.396 71.3437 385.031 68.8923 385.167C68.1092 385.167 65.147 385.167 61.7763 381.762C61.69 383.421 61.874 385.082 62.3211 386.682V386.682Z" fill="#5D7876"/>
<path d="M75.9916 357.827C78.293 350.855 82.8131 344.828 88.8616 340.667C88.8616 349.394 88.8219 358.139 88.7424 366.9L83.6353 372.842C81.3371 375.616 79.0729 378.357 76.8257 381.081C73.8049 373.673 73.5093 365.433 75.9916 357.827V357.827Z" fill="#5D7876"/>
<path d="M88.8616 340.666C88.8616 349.394 88.8219 358.139 88.7424 366.9L154.693 314.382C143.593 318.723 134.417 321.787 127.965 323.83C114.465 328.103 103.196 330.912 89.9341 339.917C89.4745 340.224 89.0999 340.479 88.8616 340.666Z" fill="#526B6A"/>
<path d="M83.4138 373.25C85.3602 370.559 87.536 368.041 89.9169 365.726C91.2278 364.466 92.3513 363.479 93.3217 362.644L94.4112 361.776C97.0159 359.733 102.446 355.869 103.587 355.052C103.912 360.426 103.145 365.81 101.334 370.88C99.5235 375.95 96.7052 380.602 93.0493 384.554C91.2968 379.753 87.8771 375.741 83.4138 373.25V373.25Z" fill="#445957"/>
<path opacity="0.4" d="M76.2126 357.146C75.3162 359.691 74.7442 362.339 74.5103 365.028C79.2769 359.467 84.055 353.905 88.8443 348.344V340.667C86.0325 342.606 83.5301 344.959 81.4219 347.646C79.1768 350.506 77.4169 353.715 76.2126 357.146V357.146Z" fill="#445957"/>
<path d="M82.0517 373.863C82.3288 373.462 82.739 373.173 83.2093 373.046C83.451 373.014 83.6968 373.043 83.9243 373.131C85.7629 373.795 89.4571 377.949 89.4571 377.949C90.9041 379.651 92.1298 380.672 92.947 381.575C93.3196 381.889 93.6115 382.288 93.7982 382.738C93.9848 383.188 94.0607 383.677 94.0195 384.162C93.926 384.621 93.68 385.035 93.3215 385.337C93.0424 385.597 92.6931 385.768 92.3171 385.831C91.9491 385.871 91.5772 385.806 91.2446 385.643C90.0189 385.116 89.0655 383.941 86.6992 381.319C84.8967 379.534 83.1918 377.653 81.5921 375.684C81.5526 375.442 81.5526 375.195 81.5921 374.952V374.952C81.641 374.554 81.8002 374.176 82.0517 373.863V373.863Z" fill="#747475"/>
<path d="M172.091 290.174C171.478 291.553 169.248 291.672 162.983 291.876C156.719 292.08 155.255 292.046 154.352 290.77C153.842 289.877 153.566 288.87 153.552 287.842C153.436 286.881 153.596 285.906 154.012 285.033C154.846 283.688 156.787 283.773 162.779 283.858C168.772 283.943 170.968 283.858 171.768 285.356C172.105 286.107 172.296 286.916 172.33 287.739C172.414 288.559 172.333 289.386 172.091 290.174V290.174Z" fill="#B0B0B1"/>
<path d="M139.899 452.462C140.081 457.161 140.274 461.86 140.478 466.558L181.029 465.843C181.165 461.213 181.284 456.582 181.42 451.952L139.899 452.462Z" fill="#717C87"/>
<path d="M72.4165 451.798C72.8421 456.65 73.2847 461.519 73.7103 466.371L114.823 466.558C114.704 461.893 114.568 457.212 114.448 452.547L72.4165 451.798Z" fill="#717C87"/>
<path d="M185.234 184.643C186.717 186.105 187.791 187.93 188.349 189.937C189.355 193.202 189.531 196.666 188.86 200.015C188.7 203.19 187.79 206.283 186.204 209.038C185.455 210.212 181.897 215.711 175.768 215.847C174.102 215.818 172.46 215.449 170.941 214.765C169.422 214.08 168.058 213.093 166.933 211.864C163.528 208.17 163.818 203.539 164.073 197.53C164.328 191.52 164.516 186.89 167.954 184.03C171.393 181.17 176.211 181.561 177.76 181.715C180.515 181.797 183.156 182.832 185.234 184.643Z" fill="#9EB7B6"/>
<path d="M68.7141 186.895C67.2305 188.357 66.1562 190.183 65.5982 192.189C64.592 195.453 64.4164 198.916 65.0874 202.265C65.2468 205.44 66.1571 208.532 67.7435 211.286C68.4927 212.461 72.0513 217.958 78.1808 218.095C79.8471 218.065 81.4899 217.697 83.0091 217.012C84.5284 216.327 85.8923 215.34 87.0176 214.112C90.423 210.418 90.1335 205.789 89.8781 199.78C89.6227 193.772 89.4354 189.142 85.996 186.283C82.5567 183.423 77.7382 183.815 76.1887 183.968C73.4335 184.05 70.792 185.085 68.7141 186.895Z" fill="#9EB7B6"/>
<path d="M187.974 181.681C189.836 183.571 191.163 185.92 191.822 188.49C192.522 190.822 192.782 193.264 192.588 195.691C192.379 197.853 192.02 199.997 191.515 202.109C191.115 204.373 190.38 206.564 189.336 208.612C188.779 209.634 188.129 210.603 187.395 211.506C186.665 212.399 185.874 213.241 185.029 214.026C183.266 215.631 181.149 216.798 178.849 217.431C176.47 218.053 173.965 218 171.614 217.277C169.345 216.528 167.274 215.277 165.554 213.617C163.798 211.873 162.55 209.684 161.945 207.284C161.417 205.105 161.143 202.871 161.128 200.628C161.128 198.517 161.043 196.559 161.025 194.448C160.953 192.165 161.141 189.88 161.587 187.639C161.889 186.301 162.388 185.016 163.068 183.826C163.811 182.578 164.761 181.467 165.877 180.54C168.036 178.806 170.636 177.71 173.385 177.374C174.626 177.211 175.879 177.148 177.13 177.186C177.76 177.186 178.254 177.186 178.832 177.322C179.462 177.374 180.087 177.465 180.705 177.595C183.472 178.226 185.997 179.645 187.974 181.681ZM182.493 187.588C181.489 186.851 180.32 186.372 179.088 186.192L177.964 186.022L176.653 185.885C175.889 185.819 175.12 185.819 174.355 185.885C173.053 185.924 171.782 186.293 170.661 186.958C169.621 187.637 168.845 188.652 168.465 189.835C167.559 193.455 167.011 197.156 166.831 200.883C166.507 204.765 166.711 208.204 168.908 210.502C169.975 211.744 171.366 212.666 172.925 213.165C174.485 213.664 176.153 213.72 177.743 213.328C179.327 212.75 180.772 211.844 181.983 210.671C183.194 209.498 184.145 208.083 184.774 206.518C185.357 204.876 185.684 203.153 185.744 201.411C185.942 199.54 186.011 197.657 185.948 195.776C185.857 194.156 185.476 192.564 184.825 191.078C184.399 189.715 183.589 188.503 182.493 187.588V187.588Z" fill="#282828"/>
<path d="M110.073 232.105C112.021 234.218 114.256 236.046 116.713 237.536C118.508 238.653 120.435 239.545 122.45 240.191C124.87 241.016 127.419 241.397 129.974 241.315C133.779 241.078 137.438 239.767 140.529 237.536C143.922 235.173 146.592 231.913 148.241 228.122L142.265 226.164L136.511 230.607L129.702 227.39L123.999 231.356L117.189 228.275L110.073 232.105Z" fill="#D1474C"/>
<path d="M152.361 193.291C153.478 190.161 155.415 187.389 157.97 185.263C160.524 183.137 163.602 181.735 166.882 181.204C163.549 181.267 160.278 182.113 157.332 183.672C155.603 184.573 154.015 185.72 152.616 187.077C156.895 183.447 161.847 180.694 167.188 178.974C174.53 176.504 182.531 176.881 189.609 180.029C195.902 182.793 201.176 187.453 204.692 193.359L196.708 200.168L199.21 195.061C197.654 193.06 195.897 191.223 193.967 189.58C190.472 186.561 186.425 184.249 182.05 182.77C173.64 180.284 161.928 184.336 152.361 193.291Z" fill="#282828" stroke="#282828" stroke-width="1.70239" stroke-linecap="round" stroke-linejoin="round"/>
<path d="M102.31 193.292C101.193 190.163 99.2557 187.391 96.7015 185.265C94.1473 183.139 91.0695 181.737 87.7891 181.205C91.1225 181.265 94.3947 182.111 97.3395 183.674C99.0679 184.575 100.656 185.721 102.055 187.079C97.7779 183.445 92.8258 180.692 87.4826 178.975C80.1413 176.503 72.1388 176.879 65.0622 180.031C58.7688 182.788 53.4992 187.45 49.9961 193.361L57.9633 200.17C57.1291 198.468 56.2609 196.765 55.4778 195.063C57.0275 193.061 58.7788 191.225 60.7041 189.581C64.2017 186.567 68.2478 184.254 72.6208 182.772C81.0817 180.286 92.743 184.338 102.31 193.292Z" fill="#282828" stroke="#282828" stroke-width="1.70239" stroke-linecap="round" stroke-linejoin="round"/>
<path d="M105.681 223.593C113.145 224.591 120.69 224.836 128.203 224.325C135.55 223.817 142.827 222.574 149.926 220.614C149.949 222.019 149.789 223.421 149.449 224.785C149.173 225.928 148.768 227.036 148.241 228.087L142.265 226.13L136.511 230.573L129.702 227.355L123.999 231.322L117.189 228.241L109.937 232.105C107.859 229.629 106.358 226.722 105.545 223.593H105.681Z" fill="white"/>
<path d="M164.652 228.547L181.216 229.654Z" fill="#F3998B"/>
<path d="M164.652 228.547L181.216 229.654" stroke="#F3998B" stroke-width="1.70239" stroke-miterlimit="10" stroke-linecap="round"/>
<path d="M163.358 233.688L186.408 236.668" stroke="#F3998B" stroke-width="1.70239" stroke-miterlimit="10" stroke-linecap="round"/>
<path d="M164.992 239.034L170.712 239.919Z" fill="white"/>
<path d="M164.992 239.034L170.712 239.919" stroke="#F3998B" stroke-width="1.70239" stroke-miterlimit="10" stroke-linecap="round"/>
<path d="M92.6919 227.917L75.1233 229.62Z" fill="white"/>
<path d="M92.6919 227.917L75.1233 229.62" stroke="#F3998B" stroke-width="1.70239" stroke-miterlimit="10" stroke-linecap="round"/>
<path d="M92.811 233.093L70.6799 236.497Z" fill="white"/>
<path d="M92.811 233.093L70.6799 236.497" stroke="#F3998B" stroke-width="1.70239" stroke-miterlimit="10" stroke-linecap="round"/>
<path d="M91.6873 238.438L84.2139 239.562Z" fill="white"/>
<path d="M91.6873 238.438L84.2139 239.562" stroke="#F3998B" stroke-width="1.70239" stroke-miterlimit="10" stroke-linecap="round"/>
<path d="M72.1441 187.775C71.0853 188.679 70.296 189.857 69.8629 191.18C69.2113 192.667 68.8308 194.258 68.7393 195.879C68.6857 197.759 68.754 199.641 68.9436 201.513C69.0157 203.256 69.3485 204.977 69.931 206.621C70.5439 208.204 71.4883 209.639 72.7009 210.828C73.9135 212.017 75.3663 212.933 76.9618 213.515C78.5492 213.908 80.2145 213.852 81.7718 213.353C83.329 212.854 84.7169 211.932 85.7802 210.689C87.9933 208.374 88.1976 204.952 87.8741 201.071C87.6868 197.306 87.1164 193.57 86.1717 189.92C85.7983 188.739 85.0287 187.723 83.9927 187.043C82.8702 186.383 81.6001 186.014 80.2985 185.971C79.5339 185.904 78.7649 185.904 78.0003 185.971L76.6894 186.107L75.5659 186.277C74.3193 186.487 73.144 187.002 72.1441 187.775V187.775ZM66.6624 181.868C68.6656 179.907 71.1878 178.56 73.9316 177.986C74.5497 177.858 75.175 177.767 75.8042 177.714C76.4 177.714 76.8767 177.612 77.5066 177.578C78.7637 177.54 80.0218 177.603 81.2689 177.765C84.0113 178.105 86.605 179.201 88.7594 180.932C89.886 181.853 90.8425 182.965 91.5853 184.217C92.2609 185.408 92.7543 186.693 93.0494 188.03C93.492 190.272 93.6861 192.556 93.6282 194.84C93.6282 196.951 93.6282 198.909 93.526 201.02C93.4938 203.261 93.2199 205.493 92.7089 207.676C92.0996 210.074 90.8525 212.262 89.0998 214.009C87.3737 215.669 85.2967 216.92 83.0223 217.669C80.6717 218.392 78.1662 218.445 75.7872 217.822C73.4905 217.184 71.3745 216.018 69.6075 214.417C68.7636 213.636 67.9784 212.794 67.2582 211.898C66.5186 210.999 65.8686 210.029 65.3175 209.004C64.2735 206.956 63.5391 204.764 63.1384 202.501C62.6191 200.391 62.255 198.246 62.0489 196.083C61.8712 193.656 62.1307 191.217 62.815 188.882C63.4467 186.242 64.7754 183.819 66.6624 181.868Z" fill="#282828"/>
<path d="M150.42 143.99C153.21 148.191 156.882 151.735 161.179 154.374C165.422 156.915 170.205 158.414 175.139 158.75C180.102 159.091 185.084 158.472 189.813 156.928C194.59 155.329 199.029 152.859 202.905 149.642C203.115 149.436 203.398 149.323 203.691 149.326C203.985 149.329 204.265 149.449 204.471 149.659C204.676 149.869 204.79 150.152 204.787 150.445C204.784 150.739 204.664 151.02 204.454 151.225C200.827 155.375 196.247 158.582 191.107 160.571C185.92 162.561 180.351 163.352 174.815 162.886C169.23 162.442 163.859 160.54 159.238 157.371C154.723 154.209 151.123 149.91 148.803 144.909C148.698 144.686 148.685 144.429 148.768 144.197C148.851 143.964 149.023 143.773 149.245 143.666C149.448 143.575 149.677 143.557 149.891 143.616C150.106 143.675 150.293 143.807 150.42 143.99V143.99Z" fill="#7BA8A7"/>
<path d="M60.9256 162.495C63.2523 157.498 66.8583 153.205 71.3783 150.05C75.9924 146.866 81.3661 144.957 86.9551 144.518C92.4923 144.051 98.0632 144.848 103.247 146.85C108.382 148.831 112.957 152.033 116.577 156.179C116.787 156.384 116.906 156.665 116.91 156.959C116.913 157.252 116.799 157.535 116.594 157.745C116.388 157.955 116.108 158.075 115.814 158.078C115.52 158.081 115.237 157.968 115.027 157.762C111.152 154.545 106.713 152.074 101.936 150.476C97.2138 148.929 92.2352 148.316 87.2786 148.672C82.3465 149.001 77.5626 150.495 73.319 153.03C69.016 155.669 65.3435 159.22 62.5599 163.431C62.4215 163.636 62.2079 163.777 61.9656 163.825C61.7232 163.873 61.4718 163.823 61.2661 163.687C61.0766 163.561 60.9382 163.372 60.8758 163.154C60.8134 162.935 60.831 162.702 60.9256 162.495V162.495Z" fill="#7BA8A7"/>
<path d="M65.9984 27.6148C64.7919 27.5018 63.5753 27.5707 62.3893 27.819C60.178 28.3063 58.1202 29.3294 56.3969 30.7982C39.4922 44.6557 27.235 65.4077 27.235 65.4077C16.6121 83.419 13.1563 95.1655 12.3051 98.1957C11.0453 102.707 9.85366 108.58 9.70044 109.414C8.46242 114.347 7.74914 119.398 7.57246 124.481C7.48977 128.561 7.9943 132.631 9.07056 136.567C11.3177 144.501 14.0415 144.347 15.0459 151.004C15.7609 155.719 14.8076 158.443 17.0377 160.486C18.8423 162.188 20.8681 161.644 22.6556 163.891C23.6039 165.266 24.1628 166.872 24.2729 168.538C24.4261 169.355 25.6178 172.488 28.0011 178.753C30.8611 186.226 32.7337 191.146 36.1045 195.947C39.4134 200.577 43.6014 204.51 48.4297 207.523C45.2608 204.34 42.8009 200.522 41.2116 196.321C40.2003 193.467 39.5095 190.51 39.1517 187.503C38.5263 183.212 38.1907 178.884 38.1473 174.548C38.0111 170.768 37.7558 165.202 37.2791 158.239C41.3233 165.533 46.8359 171.909 53.4688 176.965C51.7285 173.563 50.3915 169.969 49.4852 166.257C49.1618 164.912 48.9064 163.618 48.7021 162.393C45.7968 160.16 43.1629 157.594 40.8541 154.749C36.4098 149.215 33.1844 142.805 31.3888 135.938C29.4626 127.785 28.7456 119.393 29.2609 111.032C29.2561 111.077 29.2561 111.123 29.2609 111.168C28.338 119.485 29.067 127.903 31.4059 135.938C33.2543 142.781 36.4682 149.18 40.8541 154.749C43.5569 158.187 46.8411 161.126 50.5577 163.431C52.7044 164.72 54.9884 165.765 57.3673 166.547C55.9466 165.049 54.6164 163.469 53.3837 161.814C51.6783 159.412 50.175 156.872 48.8894 154.221C44.8265 145.354 42.393 135.827 41.7053 126.098C41.326 118.032 42.3808 109.962 44.8207 102.264C42.4502 109.977 41.397 118.035 41.7053 126.098C42.12 135.262 44.3113 144.258 48.1573 152.587C48.0982 143.498 48.856 134.422 50.4215 125.468C52.3452 114.505 55.3925 104.171 56.0224 104.307C56.6523 104.443 55.4095 108.155 55.5287 114.76C55.6521 119.704 56.2219 124.627 57.2311 129.469C58.0059 133.629 59.1452 137.714 60.6358 141.675C63.1043 148.059 64.6705 149.267 66.7644 153.83C66.7644 153.983 67.0368 154.391 67.1219 154.374C67.4794 154.272 65.4195 146.322 65.2493 145.284C63.9214 139.751 63.5469 129.111 67.9901 106.674C67.3013 111.288 67.0108 115.952 67.1219 120.616C67.2219 124.609 67.5973 128.591 68.2455 132.533C68.8754 136.55 69.1988 136.908 70.4756 143.871C71.1361 147.044 71.6361 150.249 71.9737 153.472C72.2694 156.871 72.2694 160.288 71.9737 163.687C73.8974 160.861 76.2127 157.32 78.7833 153.166C78.7833 153.166 82.6817 146.782 86.2057 140.142C94.5303 124.481 98.7012 109.874 106.515 94.6718C111.288 85.4008 116.992 76.6394 123.539 68.5231C116.746 76.4582 111.023 85.2493 106.515 94.6718C106.515 94.6718 94.5984 119.765 95.6709 142.747C96.1136 149.676 96.5732 149.131 96.8967 154.579C96.8967 154.851 96.8967 155.583 97.0499 155.583C97.2031 155.583 97.7479 146.254 98.2926 141.504C99.0587 134.848 101.544 125.655 109.137 114.726C108.592 116.684 107.809 119.578 106.89 123.068C105.187 129.724 104.234 133.095 103.655 135.904C102.773 140.221 102.148 144.587 101.783 148.978C100.874 158.42 100.539 167.908 100.778 177.391C101.585 172.8 103.053 168.35 105.136 164.18C109.256 155.992 113.955 152.757 120.866 144.705C125.67 138.854 129.942 132.587 133.634 125.979C139.078 115.716 142.303 104.423 143.099 92.8332C143.942 96.1347 144.405 99.5217 144.478 102.928C144.478 105.124 144.478 111.185 140.359 122.489C136.954 132.09 134.298 139.257 127.659 146.526C123.752 150.803 119.147 154.383 114.04 157.115C118.743 156.176 123.316 154.673 127.659 152.638C134.57 149.491 140.759 144.953 145.84 139.308C152.899 131.12 157.319 120.992 158.523 110.249C157.737 120.99 154.086 131.324 147.951 140.177C144.859 144.566 141.176 148.507 137.005 151.889C140.715 150.691 144.269 149.057 147.594 147.02C154.078 142.941 159.602 137.505 163.783 131.086C167.263 126.016 170.008 120.479 171.938 114.641C172.383 118.02 173.13 121.353 174.168 124.6C176.313 131.222 179.837 137.946 188.128 147.65C196.715 157.621 206.504 166.49 217.272 174.054C214.879 170.907 212.674 167.621 210.667 164.214C207.564 158.937 204.937 153.394 202.819 147.65C206.894 151.468 210.531 155.727 213.663 160.35C218.235 167.13 221.684 174.603 223.878 182.481C225.669 180.302 227.115 177.862 228.168 175.246C229.206 172.675 230.211 170.139 231.436 166.734C231.896 165.406 232.253 164.299 232.509 163.516C234.193 162.497 236.061 161.82 238.007 161.524C238.774 161.416 239.548 161.365 240.323 161.371C243.306 161.38 246.281 161.671 249.209 162.239C249.209 159.414 249.209 153.728 249.345 143.837C249.599 137.011 249.263 130.176 248.341 123.408C248.017 121.331 247.643 119.407 247.251 117.654C246.504 114.132 245.543 110.658 244.374 107.252C241.787 100.88 238.131 94.9961 233.564 89.854C243.065 100.189 249.764 112.783 253.022 126.438C252.985 120.45 252.484 114.474 251.524 108.563C249.585 97.0989 246.043 85.9642 241.004 75.4859C238.32 69.8785 235.242 64.4684 231.794 59.2962C229.453 55.5276 226.829 51.9423 223.946 48.5711C220.132 44.2835 215.919 40.3675 211.365 36.8757C210.548 36.2288 209.85 35.7181 209.373 35.3776C208.578 31.7757 206.958 28.4074 204.641 25.5378C201.41 21.537 196.933 18.7324 191.924 17.5707C181.71 15.3576 173.708 21.6734 172.619 22.5587C171.09 19.9966 169.159 17.6973 166.899 15.7491C161.583 11.3978 154.972 8.93654 148.104 8.75232C146.024 8.6457 143.938 8.73118 141.874 9.00768C131.085 1.53534 117.815 -1.45542 104.864 0.665985C96.2138 2.33706 88.1198 6.14706 81.3198 11.7485C75.3844 16.1695 70.2094 21.5285 65.9984 27.6148V27.6148Z" fill="#7BA8A7"/>
<path d="M220.49 107.593C219.551 102.629 218.346 97.7189 216.881 92.8841C215.454 88.2338 213.789 83.6597 211.893 79.1799C216.287 81.726 220.456 84.6419 224.354 87.8962C228.522 91.4 232.357 95.2809 235.812 99.4894C235.931 98.4145 235.931 97.3297 235.812 96.2549C235.511 93.9627 234.746 91.7558 233.564 89.7688C238.281 94.9649 241.993 100.991 244.511 107.542C248.375 117.16 248.818 125.264 249.465 139.512C249.821 147.068 249.781 154.637 249.345 162.188L243.898 161.388C243.422 155.626 242.385 149.924 240.799 144.364C239.175 138.654 236.968 133.126 234.211 127.868C231.589 122.891 228.463 118.197 224.882 113.858C227.198 116.68 229.33 119.649 231.266 122.744C233.689 126.667 235.795 130.777 237.565 135.035C241.001 143.477 243.137 152.391 243.898 161.473C242.205 161.223 240.484 161.223 238.791 161.473C236.64 161.745 234.557 162.409 232.645 163.431C233.083 160.651 233.083 157.819 232.645 155.038C231.98 151.775 230.899 148.611 229.428 145.624C224.32 133.401 224.32 132.856 224.491 132.737C225.069 132.38 228.049 135.308 229.445 139.019C230.163 140.912 230.453 142.941 230.296 144.96C228.032 142.628 224.899 139.24 221.392 134.95C215.699 127.851 210.549 120.334 205.986 112.462C203.704 108.716 200.879 103.745 197.695 97.787C205.979 99.2189 213.811 102.578 220.558 107.593H220.49Z" fill="#719392"/>
<path d="M205.713 112.121C193.759 109.728 183.081 103.073 175.666 93.3948C177.289 100.881 180.506 107.93 185.097 114.062C188.213 118.164 191.788 121.569 199.483 127.102C209.388 134.183 219.892 140.386 230.875 145.641C223.965 138.531 217.699 130.823 212.148 122.608C209.799 118.982 207.688 115.492 205.713 112.121Z" fill="#719392"/>
<path d="M163.511 82.8572C164.729 86.9468 165.427 91.1737 165.588 95.4378C166.201 112.887 157.382 126.2 151.969 134.337C147.696 140.762 142.673 146.654 137.005 151.889C141.654 150.363 146.058 148.173 150.079 145.386C155.855 141.286 160.757 136.078 164.498 130.064C167.659 125.307 170.183 120.156 172.006 114.743C172.817 120.648 174.54 126.39 177.113 131.767C179.99 137.396 183.596 142.622 187.838 147.31C192.118 152.453 196.785 157.262 201.798 161.695C206.714 166.151 211.899 170.301 217.323 174.122C213.195 168.66 209.625 162.797 206.667 156.622C205.185 153.523 203.943 150.527 202.887 147.701C204.317 149.046 205.747 150.493 207.16 152.042C214.98 160.829 220.738 171.252 224.014 182.549C226.12 179.302 227.954 175.885 229.496 172.335C230.742 169.44 231.794 166.466 232.645 163.431C233.341 157.341 232.624 151.172 230.551 145.403C222.373 141.511 214.477 137.051 206.922 132.056C195.669 124.6 190.715 120.139 188.025 117.228C185.054 114.005 182.344 110.549 179.922 106.895C178.356 104.529 177.215 102.401 177.113 102.196C175.955 100.017 175.24 98.3659 175.087 98.0254C174.032 95.6421 171.138 91.284 163.511 82.8572Z" fill="#719392"/>
<path d="M113.955 157.115C120.165 153.838 125.622 149.297 129.974 143.786C133.634 139.104 135.575 134.388 139.473 124.923C143.763 114.522 144.325 109.908 144.581 107.457C144.846 103.658 144.611 99.8399 143.883 96.1018C145.092 97.9849 146.053 100.016 146.743 102.145C148.471 107.524 148.519 113.303 146.879 118.71C154.077 110.994 158.3 100.973 158.795 90.4329C159.955 93.4813 160.911 96.6036 161.655 99.779C162.255 102.316 162.67 104.894 162.898 107.491C163.613 116.769 156.957 126.983 154.931 129.962L158.608 110.283C157.786 118.04 155.251 125.517 151.186 132.175C139.235 151.412 118.483 156.179 113.955 157.115Z" fill="#719392"/>
<path d="M97.0329 155.617C95.6626 147.681 95.325 139.602 96.0285 131.579C96.2905 125.242 97.5486 118.986 99.7567 113.04C104.694 100.919 114.278 93.5311 120.968 89.5305C121.764 101.757 120.197 114.021 116.355 125.655C119.232 121.45 122.501 117.143 126.195 112.564C131.398 106.255 137.011 100.295 142.997 94.7228C142.595 99.0289 141.861 103.298 140.801 107.491C139.23 113.626 136.986 119.569 134.111 125.213C131.371 130.463 128.145 135.444 124.475 140.091C114.925 152.587 110.329 154.221 105.545 163.431C103.244 167.857 101.62 172.602 100.727 177.51C99.6619 156.286 102.495 135.047 109.086 114.845C100.631 126.744 96.3782 141.119 96.9989 155.702L97.0329 155.617Z" fill="#719392"/>
<path d="M63.1555 81.2397C57.9949 91.4935 55.3789 102.839 55.5288 114.317C55.8012 135.937 66.1347 154.051 66.7646 153.829C66.7084 152.626 66.52 151.433 66.2028 150.271C66.2028 150.271 65.7601 147.514 65.3345 144.092C64.5279 135.311 64.7622 126.465 66.0325 117.739C66.39 115.049 66.9859 111.236 67.9903 106.673C67.6668 108.852 67.4115 111.202 67.2582 113.704C67.009 117.332 67.009 120.972 67.2582 124.6C68.0073 129.06 68.7053 133.639 69.3181 138.338C70.4928 147.139 71.344 155.6 71.9228 163.72C73.7273 161.099 76.4341 157.03 79.4814 151.906C84.231 143.905 87.5677 137.044 97.1181 115.662C99.5525 110.197 102.617 103.303 106.141 95.2334C95.7579 100.707 86.8067 108.545 80.0091 118.113C80.2221 113.669 80.1368 109.216 79.7538 104.784C79.2722 99.0799 78.2925 93.4291 76.8257 87.8961C74.7942 90.2561 72.9122 92.7407 71.1908 95.3355C69.3595 98.0579 67.7157 100.902 66.2709 103.847C68.2648 96.1962 67.1446 88.0665 63.1555 81.2397V81.2397Z" fill="#719392"/>
<path d="M63.1554 81.2397C60.687 88.0493 58.3207 95.4376 56.2267 103.371C51.9569 119.483 49.2546 135.971 48.1574 152.604C40.8033 136.807 39.5897 118.839 44.7527 102.196C42.6921 108.677 41.6245 115.433 41.5862 122.233C41.4841 144.364 52.4985 160.367 57.3333 166.597C49.7032 163.969 43.1675 158.871 38.7603 152.11C38.2155 159.805 38.1133 166.223 38.1304 170.836C38.1304 188.456 40.02 193.699 41.3309 196.696C43.0708 200.627 45.4462 204.244 48.3617 207.404C42.2609 203.61 37.2141 198.341 33.6871 192.082C32.6317 190.124 31.7124 187.979 29.8908 183.74C26.7925 176.505 25.2433 172.896 24.9028 170.598C24.4772 167.925 24.6134 166.223 23.2004 164.691C21.694 163.483 20.1071 162.38 18.4508 161.388C16.7484 160.162 16.5271 159.975 16.3569 159.686C15.0801 157.983 15.5738 156.128 15.6078 153.744C15.5644 150.552 14.8205 147.408 13.4288 144.534C11.9136 140.976 11.0284 141.504 9.53029 138.048C8.32191 135.039 7.69793 131.826 7.69171 128.583C7.50357 125.16 7.76108 121.726 8.45778 118.369C13.1383 117.312 17.644 115.592 21.8385 113.262C24.528 111.79 27.0804 110.081 29.4652 108.154C33.1649 105.107 36.4551 101.593 39.2539 97.7018C40.768 95.6455 42.1607 93.5025 43.4248 91.2838C43.8334 92.3393 44.2249 93.4288 44.5994 94.5865C45.9834 98.7918 46.9025 103.136 47.3403 107.542C49.0374 98.3857 53.5694 89.9948 60.2954 83.555C61.2828 82.7378 62.2021 81.9547 63.1554 81.2397Z" fill="#719392"/>
<path d="M38.8285 152.093C38.0996 154.673 37.9543 157.383 38.4029 160.026C42.3353 166.556 47.4708 172.281 53.5371 176.897C52.3966 174.659 51.4291 172.337 50.6431 169.951C49.813 167.464 49.1867 164.913 48.7704 162.325C47.2723 161.014 45.7402 159.584 44.174 158.001C42.1652 155.992 40.3947 154 38.8285 152.093Z" fill="#719392"/>
<path d="M8.90047 114.573C7.6407 115.458 6.22772 116.275 4.67855 117.245C3.12938 118.216 1.69938 118.846 0.354492 119.493C1.75045 119.493 3.26557 119.254 4.84879 119.016C5.97237 118.863 7.02785 118.658 8.01523 118.454L8.90047 114.573Z" fill="#7BA8A7"/>
<path d="M233.564 89.7688C237.136 89.4946 240.726 89.9463 244.119 91.0967C245.376 91.5349 246.599 92.0641 247.779 92.6799C250.08 100.071 251.637 107.673 252.427 115.373C252.835 119.254 253.005 122.931 253.022 126.353C249.775 112.694 243.075 100.097 233.564 89.7688V89.7688Z" fill="#719392"/>
</svg>
