<svg width="515" height="543" viewBox="0 0 515 543" fill="none" xmlns="http://www.w3.org/2000/svg">
<g clip-path="url(#clip0)">
<path d="M0 0H315C425.457 0 515 89.543 515 200V544H0V0Z" fill="#CFEAEC"/>
<path d="M79.9173 291.41C75.9685 290.598 71.8958 290.598 67.947 291.41C64.5144 292.012 61.1807 293.083 58.0397 294.593C56.8529 300.755 56.6808 307.07 57.5303 313.287C60.5356 335.318 75.8933 349.555 86.743 359.64C96.1931 368.397 106.898 375.693 118.503 381.289C117.738 378.564 116.567 374.54 115.166 369.675C111.269 356.253 109.359 350.191 107.704 344.537C98.1784 312.192 99.1972 302.896 89.6719 295.892C86.7417 293.78 83.4287 292.257 79.9173 291.41V291.41Z" fill="#EBBFB0"/>
<path d="M416.844 293.32C420.253 293.169 423.668 293.383 427.031 293.956C430.121 294.47 433.145 295.324 436.047 296.503C437.115 302.669 437.286 308.957 436.557 315.172C435.042 326.264 430.855 336.822 424.357 345.938C409.076 369.089 385.084 379.531 375.763 383.123C376.654 380.27 378.029 375.915 379.71 370.617C386.74 348.332 390.28 337.202 390.713 335.572C393.26 325.665 396.545 315.911 399.321 306.054C400.238 302.845 401.715 297.497 406.3 294.924C408.77 293.651 411.47 293.523 416.844 293.32Z" fill="#EBBEAF"/>
<path d="M109.894 353.222C114.376 367.052 115.777 371.483 117.356 377.061C121.177 390.763 121.406 394.252 123.673 399.422C129.352 412.284 140.431 419.008 150.899 425.146C176.775 440.427 204.383 443.534 220.632 444.12V447.125C222.31 449.556 224.335 451.727 226.643 453.569C231.939 457.566 238.326 459.858 244.955 460.14C248.75 460.446 259.37 461.312 268.284 454.41C270.432 452.736 272.32 450.753 273.887 448.526V445.521C285.058 444.241 296.122 442.164 306.997 439.307C319.476 436.047 329.919 433.398 342.042 426.572C352.764 420.638 363.283 414.831 371.102 403.09C374.897 397.461 374.718 395.449 382.282 368.07C389.312 342.602 389.923 342.78 393.463 328.186C396.29 316.547 397.92 307.99 400.187 296.121C404.058 276.128 405.917 266.246 406.58 258.3C407.318 248.367 408.795 228.629 402.479 211.718C391.757 182.963 361.525 170.305 337.61 160.271C302.158 145.397 271.239 145.295 251.5 145.422C224.891 145.516 198.472 149.902 173.26 158.411C142.265 168.981 122.323 175.832 107.653 196.054C91.3527 218.62 90.4867 245.871 89.8245 262.783C89.4355 276.045 90.6326 289.306 93.3902 302.285C95.1984 310.053 95.7842 309.721 109.894 353.222Z" fill="#EBBFB0"/>
<path d="M221.931 443.178C230.504 445.055 239.238 446.095 248.011 446.285C256.343 446.465 264.673 445.869 272.894 444.502L273.989 447.482C272.295 450.528 269.989 453.19 267.215 455.301C260.134 460.624 252.214 460.395 246.84 460.395C240.765 460.603 234.757 459.074 229.521 455.989C225.962 453.761 222.936 450.779 220.658 447.253L221.931 443.178Z" fill="#D1AA9D"/>
<path d="M158.87 481.636L326.251 479.726C325.487 478.478 324.672 477.179 323.704 475.931C322.736 474.683 322.278 473.842 321.565 472.849C296.385 473.257 270.916 473.503 245.159 473.588C218.416 473.588 191.963 473.486 165.798 473.282C164.601 474.53 163.251 475.829 162.054 477.433C160.857 479.038 159.966 480.286 158.87 481.636Z" fill="#CADFDF"/>
<path d="M166.002 473.282C192.829 474.012 220.386 474.326 248.673 474.224C273.633 474.122 297.998 473.664 321.769 472.849C320.19 470.633 318.381 468.341 316.369 465.972C314.739 464.037 313.109 462.279 311.53 460.649C291.053 461.21 270.169 461.549 248.877 461.668C225.853 461.77 203.296 461.6 181.207 461.159C178.495 462.839 175.884 464.675 173.388 466.66C170.795 468.718 168.329 470.929 166.002 473.282V473.282Z" fill="#8BBFBE"/>
<path d="M139.311 521.01L344.13 521.622C343.239 518.846 342.297 515.993 341.303 513.115C340.31 510.237 339.164 507.105 338.094 504.227L146.467 503.794C145.245 506.544 143.92 509.371 142.825 512.275C141.73 515.178 140.406 518.082 139.311 521.01Z" fill="#8BBFBE"/>
<path d="M146.467 503.794L338.094 504.227C336.795 500.712 335.267 496.994 333.459 493.148C331.318 488.557 328.946 484.078 326.353 479.726C296.911 479.726 267.198 479.913 237.213 480.286C210.929 480.592 184.874 481.042 159.049 481.636C157.062 484.412 155.025 487.519 153.038 490.958C150.607 495.108 148.413 499.394 146.467 503.794V503.794Z" fill="#63AFAF"/>
<path d="M128.308 551.726L353.146 550.631C351.669 545.791 350.141 540.927 348.613 536.037C347.085 531.147 345.557 526.384 344.029 521.622L139.209 521.01C137.171 525.798 135.185 530.892 133.249 536.292C131.466 541.691 129.836 546.836 128.308 551.726Z" fill="#CADFDF"/>
<path d="M181.207 461.159C203.415 461.583 226.099 461.753 249.259 461.668C270.398 461.566 291.155 461.227 311.53 460.65C306.801 455.599 300.864 451.836 294.278 449.716C287.692 447.595 280.675 447.185 273.887 448.526C271.459 451.889 268.331 454.687 264.719 456.727C259.682 459.405 254.013 460.664 248.317 460.369C242.414 460.582 236.557 459.248 231.329 456.498C227.115 454.203 223.461 451.002 220.632 447.126C214.104 447.873 207.675 449.316 201.454 451.43C194.339 453.848 187.54 457.114 181.207 461.159V461.159Z" fill="#63AFAF"/>
<path opacity="0.33" d="M186.682 531.147C198.736 532.473 210.889 532.644 222.975 531.656C264.948 525.748 287.666 522.513 288.43 522.335C288.43 522.335 270.933 528.269 246.687 537.132C230.973 542.914 218.213 548.186 209.706 551.828L172.369 551.7C173.337 544.314 174.33 536.928 175.298 529.568C178.94 530.179 182.735 530.816 186.682 531.147Z" fill="#E5EFF0"/>
<path opacity="0.33" d="M169.568 525.493C171.596 526.677 173.513 528.041 175.298 529.568C174.636 533.983 174.016 538.465 173.439 543.015C173.057 545.919 172.7 548.822 172.369 551.7H128.308L139.209 520.985C149.544 518.875 160.292 520.471 169.568 525.493V525.493Z" fill="#E5EFF0"/>
<path d="M288.43 522.334C268.87 529.44 253.461 534.814 243.427 538.252C243.427 538.252 226.821 543.983 203.161 554.756C197.481 557.303 190.07 559.85 184.161 567.057C180.944 571.327 178.179 575.919 175.909 580.76C172.725 586.77 170.357 591.915 168.778 595.557C164.695 597.536 161.016 600.256 157.928 603.58C153.325 607.995 150.353 613.839 149.498 620.16C148.984 627.171 151.243 634.103 155.789 639.465C158.55 642.808 162.033 645.481 165.976 647.284C166.18 674.672 166.367 702.067 166.537 729.472L226.923 730.873C228.018 726.899 236.728 695.216 242.026 677.184C242.79 674.638 244.446 669.136 246.763 669.085C249.081 669.034 250.711 673.772 251.526 676.064C256.62 690.454 264.744 719.666 267.749 730.542L327.219 730.083C328.492 692.695 327.576 660.757 326.149 635.849C325.716 627.902 321.641 584.402 316.93 539.959C316.14 532.522 313.262 514.49 312.192 490.218C311.632 477.713 311.632 467.475 311.734 460.878C309.002 457.945 305.853 455.43 302.387 453.416C298.508 451.142 294.284 449.516 289.882 448.602L288.43 522.334Z" fill="#3E5151"/>
<path opacity="0.5" d="M289.881 448.959L289.652 460.649C289.652 466.227 289.423 471.83 289.321 477.408H294.415C294.415 474.275 294.619 470.404 294.695 465.947C294.95 454.766 294.95 450.309 292.53 449.086C291.686 448.75 290.754 448.705 289.881 448.959V448.959Z" fill="#2F3D3D"/>
<path opacity="0.5" d="M289.703 488.537C289.369 490.34 289.131 492.16 288.99 493.988C288.791 496.308 288.74 498.639 288.837 500.966L312.752 500.329C312.752 498.394 312.497 496.407 312.395 494.421C312.395 492.027 312.141 489.684 312.064 487.366L289.703 488.537Z" fill="#2F3D3D"/>
<path opacity="0.5" d="M288.557 509.014V513.751L313.593 511.204L313.134 506.569L288.557 509.014Z" fill="#2F3D3D"/>
<path d="M214.417 580.047C214.15 582.678 214.454 585.337 215.309 587.84C215.942 589.677 216.871 591.397 218.059 592.934C219.487 594.689 221.211 596.18 223.153 597.34C229.113 600.753 239.249 598.843 253.053 598.843C261.029 598.994 269.007 598.663 276.943 597.849C278.74 597.618 280.472 597.029 282.037 596.117C282.979 595.575 283.838 594.897 284.584 594.105C285.3 593.241 285.875 592.27 286.29 591.227C287.232 588.859 288.022 569.35 288.124 542.557L262.502 542.735L267.596 538.049H293.065C293.37 566.446 293.065 587.382 291.868 592.068C291.556 593.368 291.049 594.613 290.365 595.761C288.655 598.257 286.206 600.154 283.361 601.186C281.535 601.955 279.603 602.444 277.631 602.637C269.048 603.503 255.422 603.249 252.773 603.223C242 603.223 227.304 604.395 221.829 601.772C220.158 600.925 218.601 599.873 217.193 598.639C216.08 597.574 215.082 596.396 214.213 595.124C211.877 591.028 210.591 586.417 210.469 581.702L214.417 580.047Z" fill="#2F3D3D"/>
<path d="M189.942 561.658C189.942 574.715 189.883 587.798 189.764 600.906L288.43 522.335C271.825 528.829 258.097 533.413 248.444 536.47C228.247 542.862 211.387 547.065 191.547 560.538C190.859 560.996 190.299 561.378 189.942 561.658Z" fill="#526B6A"/>
<path d="M314.459 486.118C313.542 488.181 310.206 488.359 300.834 488.665C291.461 488.97 289.271 488.919 287.921 487.009C287.157 485.674 286.745 484.167 286.724 482.629C286.55 481.191 286.789 479.734 287.411 478.426C288.659 476.414 291.563 476.542 300.528 476.669C309.493 476.796 312.778 476.669 313.975 478.91C314.481 480.034 314.766 481.244 314.816 482.476C314.942 483.701 314.821 484.94 314.459 486.118V486.118Z" fill="#B0B0B1"/>
<path d="M334.121 328.237C336.341 330.425 337.948 333.156 338.782 336.158C340.287 341.042 340.55 346.224 339.546 351.235C339.308 355.986 337.946 360.612 335.573 364.734C334.453 366.491 329.13 374.718 319.961 374.921C317.468 374.877 315.011 374.326 312.739 373.301C310.466 372.277 308.426 370.8 306.742 368.962C301.649 363.435 302.082 356.507 302.464 347.517C302.846 338.526 303.126 331.599 308.271 327.32C313.415 323.041 320.623 323.627 322.941 323.856C327.062 323.98 331.013 325.528 334.121 328.237Z" fill="#9EB7B6"/>
<path d="M159.8 331.607C157.581 333.795 155.974 336.525 155.139 339.527C153.634 344.41 153.371 349.591 154.375 354.602C154.613 359.351 155.975 363.976 158.349 368.098C159.469 369.855 164.793 378.08 173.963 378.283C176.456 378.239 178.914 377.688 181.187 376.664C183.46 375.639 185.5 374.163 187.184 372.325C192.278 366.799 191.845 359.873 191.463 350.884C191.081 341.895 190.801 334.969 185.655 330.691C180.51 326.413 173.301 326.998 170.983 327.228C166.861 327.351 162.909 328.899 159.8 331.607Z" fill="#9EB7B6"/>
<path d="M338.221 323.806C341.006 326.633 342.992 330.148 343.977 333.993C345.025 337.482 345.414 341.135 345.124 344.766C344.811 348 344.275 351.208 343.519 354.368C342.92 357.755 341.821 361.033 340.259 364.097C339.425 365.626 338.454 367.075 337.356 368.427C336.262 369.762 335.08 371.022 333.815 372.196C331.177 374.598 328.01 376.343 324.57 377.29C321.011 378.221 317.263 378.142 313.746 377.061C310.351 375.939 307.252 374.068 304.679 371.585C302.052 368.976 300.185 365.701 299.28 362.111C298.49 358.849 298.08 355.508 298.057 352.152C298.057 348.994 297.93 346.065 297.904 342.907C297.795 339.49 298.077 336.072 298.745 332.72C299.196 330.718 299.943 328.796 300.961 327.015C302.071 325.149 303.492 323.486 305.163 322.099C308.393 319.506 312.283 317.865 316.395 317.362C318.252 317.119 320.126 317.025 321.998 317.082C322.94 317.082 323.679 317.082 324.545 317.286C325.486 317.363 326.422 317.499 327.346 317.693C331.486 318.637 335.263 320.761 338.221 323.806ZM330.021 332.643C328.519 331.541 326.77 330.824 324.927 330.555L323.246 330.3L321.285 330.096C320.141 329.997 318.99 329.997 317.846 330.096C315.898 330.155 313.996 330.707 312.32 331.701C310.763 332.716 309.603 334.236 309.034 336.005C307.678 341.421 306.859 346.958 306.589 352.534C306.105 358.341 306.411 363.486 309.696 366.924C311.293 368.783 313.374 370.162 315.707 370.908C318.041 371.655 320.536 371.739 322.915 371.152C325.285 370.287 327.446 368.933 329.258 367.178C331.07 365.422 332.493 363.305 333.433 360.965C334.306 358.507 334.795 355.93 334.885 353.324C335.182 350.524 335.284 347.707 335.191 344.894C335.054 342.469 334.484 340.089 333.51 337.864C332.872 335.825 331.661 334.013 330.021 332.643V332.643Z" fill="#282828"/>
<path d="M284.941 341.175C286.613 336.493 289.511 332.346 293.332 329.165C297.154 325.984 301.758 323.887 306.666 323.092C301.68 323.187 296.786 324.452 292.378 326.785C289.792 328.133 287.416 329.849 285.323 331.879C291.726 326.448 299.133 322.329 307.124 319.756C318.108 316.062 330.079 316.625 340.667 321.335C350.082 325.47 357.971 332.441 363.232 341.277L351.287 351.465L355.031 343.824C352.703 340.83 350.074 338.082 347.187 335.623C341.958 331.108 335.904 327.648 329.359 325.436C316.777 321.717 299.255 327.779 284.941 341.175Z" fill="#282828" stroke="#282828" stroke-width="1.70239" stroke-linecap="round" stroke-linejoin="round"/>
<path d="M210.063 341.178C208.391 336.496 205.493 332.348 201.672 329.168C197.85 325.987 193.246 323.89 188.338 323.095C193.325 323.184 198.22 324.449 202.626 326.788C205.212 328.135 207.588 329.851 209.681 331.882C203.282 326.446 195.873 322.326 187.88 319.758C176.897 316.059 164.924 316.623 154.337 321.338C144.922 325.462 137.038 332.437 131.797 341.28L143.717 351.467C142.469 348.92 141.17 346.373 139.998 343.826C142.317 340.832 144.937 338.084 147.817 335.626C153.05 331.115 159.103 327.656 165.645 325.438C178.303 321.72 195.749 327.781 210.063 341.178Z" fill="#282828" stroke="#282828" stroke-width="1.70239" stroke-linecap="round" stroke-linejoin="round"/>
<path d="M303.329 393.921L328.11 395.576Z" fill="#F3998B"/>
<path d="M303.329 393.921L328.11 395.576" stroke="#F3998B" stroke-width="1.70239" stroke-miterlimit="10" stroke-linecap="round"/>
<path d="M301.394 401.613L335.879 406.07" stroke="#F3998B" stroke-width="1.70239" stroke-miterlimit="10" stroke-linecap="round"/>
<path d="M303.839 409.61L312.396 410.934Z" fill="white"/>
<path d="M303.839 409.61L312.396 410.934" stroke="#F3998B" stroke-width="1.70239" stroke-miterlimit="10" stroke-linecap="round"/>
<path d="M195.673 392.979L169.389 395.526Z" fill="white"/>
<path d="M195.673 392.979L169.389 395.526" stroke="#F3998B" stroke-width="1.70239" stroke-miterlimit="10" stroke-linecap="round"/>
<path d="M195.851 400.721L162.741 405.815Z" fill="white"/>
<path d="M195.851 400.721L162.741 405.815" stroke="#F3998B" stroke-width="1.70239" stroke-miterlimit="10" stroke-linecap="round"/>
<path d="M194.17 408.719L182.989 410.4Z" fill="white"/>
<path d="M194.17 408.719L182.989 410.4" stroke="#F3998B" stroke-width="1.70239" stroke-miterlimit="10" stroke-linecap="round"/>
<path d="M164.932 332.923C163.348 334.276 162.167 336.038 161.519 338.017C160.544 340.241 159.975 342.622 159.838 345.047C159.758 347.86 159.86 350.676 160.144 353.477C160.252 356.083 160.75 358.659 161.621 361.117C162.538 363.487 163.951 365.633 165.765 367.412C167.579 369.191 169.753 370.562 172.14 371.432C174.514 372.02 177.006 371.936 179.336 371.189C181.665 370.443 183.742 369.063 185.332 367.204C188.643 363.741 188.949 358.621 188.465 352.815C188.185 347.182 187.332 341.592 185.918 336.132C185.36 334.365 184.208 332.845 182.658 331.828C180.979 330.84 179.079 330.289 177.132 330.224C175.988 330.124 174.837 330.124 173.693 330.224L171.732 330.427L170.051 330.682C168.186 330.996 166.428 331.766 164.932 332.923V332.923ZM156.731 324.086C159.728 321.152 163.501 319.137 167.606 318.279C168.531 318.086 169.467 317.95 170.408 317.871C171.299 317.871 172.012 317.719 172.955 317.668C174.835 317.611 176.718 317.705 178.583 317.948C182.686 318.456 186.566 320.096 189.79 322.685C191.475 324.064 192.906 325.728 194.017 327.6C195.028 329.382 195.766 331.305 196.208 333.305C196.87 336.659 197.16 340.076 197.074 343.493C197.074 346.651 197.074 349.58 196.921 352.738C196.873 356.092 196.463 359.431 195.698 362.696C194.787 366.284 192.921 369.558 190.299 372.171C187.717 374.654 184.609 376.525 181.207 377.647C177.69 378.728 173.942 378.807 170.382 377.876C166.946 376.92 163.781 375.176 161.137 372.782C159.875 371.614 158.7 370.354 157.622 369.013C156.516 367.667 155.544 366.217 154.719 364.683C153.157 361.619 152.058 358.34 151.459 354.954C150.682 351.797 150.137 348.588 149.829 345.352C149.563 341.721 149.951 338.072 150.975 334.579C151.92 330.629 153.908 327.005 156.731 324.086Z" fill="#282828"/>
<path d="M282.038 267.418C286.212 273.703 291.705 279.005 298.134 282.954C304.481 286.754 311.638 288.997 319.019 289.499C326.444 290.01 333.898 289.085 340.973 286.774C348.119 284.382 354.759 280.686 360.558 275.874C360.872 275.566 361.296 275.396 361.735 275.401C362.174 275.406 362.594 275.585 362.901 275.899C363.209 276.213 363.379 276.636 363.374 277.076C363.369 277.515 363.19 277.935 362.876 278.242C357.45 284.45 350.598 289.248 342.908 292.224C335.149 295.201 326.817 296.385 318.535 295.688C310.179 295.024 302.143 292.178 295.231 287.436C288.475 282.706 283.089 276.274 279.618 268.793C279.461 268.459 279.443 268.075 279.567 267.727C279.691 267.379 279.947 267.094 280.281 266.934C280.584 266.797 280.926 266.77 281.247 266.859C281.568 266.947 281.848 267.145 282.038 267.418V267.418Z" fill="#7BA8A7"/>
<path d="M148.149 295.102C151.63 287.627 157.024 281.204 163.787 276.485C170.69 271.721 178.729 268.865 187.09 268.207C195.374 267.509 203.709 268.702 211.464 271.697C219.146 274.66 225.991 279.45 231.406 285.654C231.72 285.961 231.899 286.38 231.904 286.82C231.909 287.259 231.739 287.683 231.432 287.997C231.124 288.311 230.705 288.49 230.265 288.495C229.826 288.499 229.403 288.329 229.088 288.022C223.29 283.209 216.649 279.512 209.503 277.121C202.438 274.806 194.99 273.889 187.574 274.422C180.196 274.915 173.039 277.149 166.69 280.942C160.252 284.891 154.758 290.203 150.594 296.503C150.387 296.809 150.067 297.021 149.705 297.093C149.342 297.164 148.966 297.09 148.658 296.885C148.375 296.698 148.168 296.415 148.074 296.088C147.981 295.761 148.007 295.412 148.149 295.102V295.102Z" fill="#7BA8A7"/>
<path d="M155.738 93.3134C153.933 93.1445 152.113 93.2475 150.338 93.619C147.03 94.348 143.952 95.8786 141.373 98.0761C116.083 118.808 97.7454 149.854 97.7454 149.854C81.8529 176.8 76.6827 194.374 75.4093 198.907C73.5246 205.656 71.7418 214.443 71.5126 215.691C69.6604 223.071 68.5933 230.626 68.329 238.231C68.2053 244.335 68.9601 250.425 70.5702 256.314C73.9321 268.182 78.0071 267.953 79.5098 277.911C80.5795 284.966 79.1532 289.041 82.4896 292.097C85.1893 294.644 88.2201 293.829 90.8943 297.191C92.3131 299.248 93.1491 301.65 93.3139 304.144C93.5431 305.366 95.3259 310.053 98.8915 319.425C103.17 330.606 105.972 337.966 111.015 345.149C115.965 352.076 122.231 357.961 129.454 362.467C124.713 357.705 121.033 351.994 118.655 345.709C117.142 341.439 116.109 337.014 115.574 332.516C114.638 326.097 114.136 319.621 114.071 313.134C113.867 307.48 113.485 299.152 112.772 288.735C118.822 299.648 127.07 309.187 136.993 316.751C134.389 311.661 132.389 306.285 131.033 300.731C130.549 298.719 130.167 296.783 129.862 294.95C125.515 291.609 121.574 287.771 118.12 283.514C111.471 275.235 106.646 265.645 103.96 255.371C101.078 243.174 100.005 230.62 100.776 218.11C100.769 218.178 100.769 218.246 100.776 218.314C99.3956 230.757 100.486 243.351 103.985 255.371C106.751 265.61 111.559 275.183 118.12 283.514C122.164 288.658 127.077 293.054 132.638 296.503C135.849 298.432 139.266 299.995 142.825 301.164C140.7 298.924 138.71 296.56 136.865 294.084C134.314 290.49 132.065 286.69 130.142 282.725C124.063 269.458 120.423 255.206 119.394 240.65C118.826 228.583 120.404 216.51 124.055 204.994C120.508 216.533 118.933 228.587 119.394 240.65C120.014 254.361 123.293 267.82 129.047 280.28C128.958 266.682 130.092 253.103 132.434 239.708C135.312 223.306 139.871 207.846 140.813 208.05C141.755 208.254 139.896 213.806 140.075 223.688C140.259 231.085 141.112 238.45 142.621 245.693C143.781 251.918 145.485 258.028 147.715 263.954C151.408 273.505 153.751 275.313 156.884 282.139C156.884 282.368 157.291 282.979 157.419 282.954C157.954 282.801 154.872 270.907 154.617 269.354C152.631 261.076 152.07 245.158 158.718 211.59C157.687 218.493 157.252 225.472 157.419 232.449C157.568 238.424 158.13 244.38 159.1 250.277C160.042 256.288 160.526 256.823 162.436 267.24C163.424 271.987 164.172 276.781 164.677 281.604C165.12 286.688 165.12 291.801 164.677 296.885C167.555 292.657 171.019 287.36 174.865 281.146C174.865 281.146 180.697 271.595 185.969 261.662C198.423 238.231 204.663 216.379 216.353 193.635C223.494 179.765 232.028 166.657 241.822 154.515C231.66 166.386 223.098 179.538 216.353 193.635C216.353 193.635 198.525 231.176 200.13 265.559C200.792 275.925 201.48 275.11 201.964 283.26C201.964 283.667 201.964 284.762 202.193 284.762C202.422 284.762 203.237 270.805 204.052 263.7C205.198 253.741 208.917 239.988 220.276 223.637C219.461 226.566 218.289 230.896 216.914 236.117C214.367 246.075 212.941 251.118 212.075 255.32C210.756 261.779 209.82 268.311 209.273 274.88C207.914 289.006 207.412 303.201 207.771 317.388C208.978 310.519 211.174 303.862 214.291 297.624C220.454 285.373 227.483 280.534 237.824 268.488C245.01 259.735 251.402 250.359 256.925 240.472C265.07 225.118 269.894 208.223 271.086 190.884C272.347 195.823 273.039 200.891 273.149 205.987C273.149 209.273 273.149 218.34 266.985 235.251C261.892 249.615 257.918 260.338 247.986 271.213C242.141 277.61 235.251 282.967 227.611 287.054C234.647 285.65 241.488 283.401 247.986 280.356C258.326 275.647 267.585 268.859 275.186 260.414C285.746 248.164 292.359 233.011 294.161 216.939C292.984 233.009 287.523 248.47 278.344 261.713C273.718 268.28 268.208 274.176 261.968 279.235C267.518 277.443 272.836 274.998 277.81 271.951C287.511 265.849 295.774 257.716 302.03 248.113C307.236 240.528 311.343 232.245 314.23 223.51C314.896 228.566 316.013 233.552 317.566 238.409C320.775 248.316 326.047 258.377 338.451 272.894C351.298 287.811 365.944 301.079 382.053 312.396C378.473 307.687 375.173 302.772 372.171 297.675C367.528 289.78 363.599 281.487 360.43 272.894C366.526 278.606 371.967 284.978 376.654 291.893C383.494 302.037 388.654 313.217 391.935 325.003C394.614 321.743 396.779 318.093 398.353 314.179C399.907 310.333 401.41 306.538 403.243 301.444C403.931 299.458 404.466 297.802 404.848 296.631C407.367 295.106 410.163 294.093 413.074 293.651C414.221 293.488 415.379 293.412 416.538 293.422C421.001 293.435 425.452 293.87 429.833 294.72C429.833 290.493 429.833 281.986 430.036 267.189C430.416 256.977 429.913 246.752 428.534 236.626C428.05 233.519 427.49 230.641 426.904 228.018C425.786 222.748 424.349 217.551 422.6 212.456C418.729 202.923 413.26 194.12 406.427 186.427C420.641 201.889 430.662 220.731 435.538 241.16C435.482 232.201 434.732 223.26 433.296 214.417C430.395 197.266 425.096 180.608 417.557 164.932C413.542 156.543 408.937 148.449 403.778 140.711C400.276 135.073 396.351 129.709 392.037 124.665C386.331 118.251 380.029 112.392 373.216 107.168C371.993 106.201 370.949 105.437 370.236 104.927C369.047 99.5384 366.623 94.4992 363.155 90.2062C358.322 84.2207 351.625 80.0248 344.13 78.2868C328.849 74.9759 316.879 84.4248 315.249 85.7492C312.961 81.9161 310.072 78.4763 306.691 75.5617C298.738 69.0518 288.847 65.3696 278.574 65.094C275.461 64.9345 272.341 65.0624 269.252 65.4761C253.111 54.297 233.259 49.8226 213.883 52.9964C200.942 55.4964 188.833 61.1964 178.66 69.5765C169.78 76.1906 162.038 84.2081 155.738 93.3134V93.3134Z" fill="#7BA8A7"/>
<path d="M386.867 212.966C385.463 205.539 383.66 198.194 381.468 190.961C379.333 184.003 376.842 177.16 374.006 170.458C380.579 174.267 386.816 178.63 392.649 183.498C398.883 188.74 404.621 194.546 409.789 200.842C409.968 199.234 409.968 197.611 409.789 196.003C409.339 192.574 408.195 189.273 406.427 186.3C413.484 194.074 419.037 203.089 422.804 212.889C428.585 227.279 429.247 239.402 430.215 260.72C430.748 272.023 430.689 283.347 430.037 294.644L421.887 293.447C421.176 284.827 419.623 276.296 417.252 267.978C414.822 259.435 411.519 251.165 407.395 243.299C403.472 235.853 398.795 228.83 393.438 222.338C396.902 226.561 400.092 231.002 402.989 235.633C406.614 241.502 409.765 247.651 412.413 254.021C417.554 266.65 420.748 279.987 421.887 293.574C419.354 293.2 416.779 293.2 414.246 293.574C411.028 293.981 407.912 294.974 405.052 296.503C405.708 292.344 405.708 288.107 405.052 283.947C404.058 279.065 402.44 274.332 400.238 269.863C392.598 251.576 392.598 250.761 392.852 250.583C393.718 250.048 398.175 254.429 400.264 259.981C401.338 262.814 401.773 265.849 401.537 268.87C398.15 265.38 393.464 260.312 388.217 253.894C379.7 243.274 371.996 232.027 365.168 220.25C361.755 214.647 357.527 207.21 352.765 198.296C365.158 200.438 376.875 205.463 386.969 212.966H386.867Z" fill="#719392"/>
<path d="M364.76 219.74C346.876 216.16 330.901 206.204 319.808 191.725C322.236 202.925 327.048 213.471 333.918 222.644C338.579 228.782 343.927 233.876 355.439 242.153C370.258 252.746 385.972 262.026 402.403 269.888C392.066 259.251 382.691 247.72 374.388 235.429C370.873 230.004 367.715 224.783 364.76 219.74Z" fill="#719392"/>
<path d="M301.623 175.96C303.446 182.078 304.489 188.402 304.73 194.781C305.647 220.887 292.454 240.803 284.355 252.977C277.963 262.589 270.448 271.404 261.968 279.235C268.923 276.953 275.512 273.676 281.528 269.506C290.169 263.373 297.502 255.581 303.1 246.584C307.829 239.467 311.605 231.761 314.332 223.663C315.546 232.496 318.124 241.088 321.973 249.131C326.276 257.554 331.671 265.372 338.018 272.384C344.421 280.08 351.403 287.275 358.902 293.905C366.257 300.573 374.014 306.782 382.13 312.498C375.953 304.325 370.612 295.554 366.186 286.316C363.971 281.68 362.111 277.198 360.532 272.97C362.672 274.982 364.811 277.147 366.925 279.465C378.624 292.61 387.239 308.203 392.139 325.105C395.291 320.247 398.034 315.135 400.34 309.823C402.205 305.493 403.779 301.043 405.052 296.503C406.093 287.392 405.021 278.162 401.919 269.532C389.684 263.71 377.871 257.037 366.569 249.564C349.734 238.409 342.322 231.736 338.298 227.381C333.853 222.558 329.799 217.388 326.175 211.922C323.832 208.381 322.125 205.198 321.973 204.892C320.241 201.632 319.171 199.162 318.942 198.652C317.363 195.087 313.033 188.567 301.623 175.96Z" fill="#719392"/>
<path d="M227.484 287.054C236.775 282.151 244.939 275.358 251.45 267.112C256.926 260.108 259.829 253.054 265.661 238.893C272.079 223.332 272.92 216.429 273.302 212.762C273.699 207.078 273.348 201.367 272.258 195.774C274.067 198.592 275.505 201.63 276.536 204.816C279.123 212.863 279.194 221.508 276.74 229.597C287.509 218.054 293.827 203.062 294.568 187.293C296.303 191.854 297.733 196.525 298.847 201.276C299.744 205.071 300.366 208.927 300.706 212.813C301.776 226.693 291.818 241.975 288.787 246.432L294.288 216.99C293.058 228.595 289.265 239.782 283.184 249.743C265.305 278.522 234.258 285.654 227.484 287.054Z" fill="#719392"/>
<path d="M202.168 284.813C200.118 272.941 199.612 260.853 200.665 248.851C201.057 239.37 202.939 230.011 206.243 221.116C213.629 202.982 227.968 191.928 237.977 185.943C239.166 204.234 236.823 222.583 231.075 239.988C235.379 233.697 240.269 227.254 245.796 220.402C253.58 210.964 261.978 202.047 270.933 193.711C270.331 200.153 269.233 206.54 267.648 212.813C265.297 221.992 261.941 230.883 257.639 239.326C253.54 247.18 248.714 254.633 243.223 261.585C228.935 280.28 222.059 282.725 214.902 296.503C211.459 303.124 209.03 310.224 207.694 317.566C206.101 285.814 210.339 254.039 220.2 223.815C207.55 241.616 201.188 263.122 202.117 284.94L202.168 284.813Z" fill="#719392"/>
<path d="M151.485 173.54C143.764 188.88 139.851 205.854 140.075 223.026C140.482 255.371 155.942 282.47 156.884 282.139C156.8 280.339 156.518 278.554 156.044 276.816C156.044 276.816 155.382 272.69 154.745 267.571C153.538 254.434 153.888 241.2 155.789 228.145C156.324 224.121 157.215 218.416 158.718 211.59C158.234 214.85 157.852 218.365 157.623 222.109C157.25 227.536 157.25 232.982 157.623 238.409C158.743 245.082 159.788 251.933 160.705 258.962C162.462 272.13 163.735 284.788 164.601 296.936C167.301 293.014 171.35 286.927 175.909 279.261C183.015 267.291 188.007 257.027 202.295 225.038C205.937 216.862 210.521 206.548 215.793 194.475C200.26 202.665 186.869 214.39 176.699 228.705C177.018 222.057 176.89 215.395 176.317 208.763C175.596 200.23 174.131 191.776 171.936 183.498C168.897 187.029 166.082 190.746 163.506 194.628C160.766 198.701 158.307 202.956 156.146 207.363C159.129 195.916 157.453 183.753 151.485 173.54V173.54Z" fill="#719392"/>
<path d="M151.485 173.54C147.792 183.728 144.252 194.781 141.119 206.649C134.731 230.755 130.688 255.422 129.047 280.305C118.045 256.672 116.229 229.79 123.953 204.892C120.87 214.588 119.273 224.695 119.216 234.869C119.063 267.978 135.541 291.919 142.775 301.24C131.36 297.308 121.582 289.681 114.988 279.567C114.173 291.078 114.02 300.68 114.046 307.582C114.046 333.942 116.873 341.787 118.834 346.269C121.437 352.15 124.991 357.563 129.353 362.289C120.225 356.614 112.675 348.731 107.398 339.367C105.819 336.438 104.444 333.229 101.719 326.887C97.0836 316.063 94.766 310.664 94.2566 307.226C93.6199 303.227 93.8236 300.68 91.7097 298.388C89.4559 296.582 87.0818 294.931 84.6039 293.447C82.0571 291.613 81.726 291.333 81.4713 290.9C79.5611 288.353 80.2997 285.577 80.3506 282.012C80.2857 277.235 79.1728 272.532 77.0906 268.233C74.8239 262.91 73.4995 263.699 71.2583 258.529C69.4505 254.027 68.517 249.221 68.5077 244.369C68.2262 239.247 68.6115 234.11 69.6538 229.087C76.6561 227.506 83.3969 224.933 89.6722 221.447C93.6958 219.245 97.5144 216.688 101.082 213.806C106.617 209.246 111.54 203.99 115.727 198.168C117.992 195.092 120.075 191.886 121.967 188.567C122.578 190.146 123.164 191.776 123.724 193.508C125.794 199.799 127.169 206.298 127.824 212.889C130.363 199.191 137.144 186.638 147.206 177.004C148.683 175.781 150.059 174.61 151.485 173.54Z" fill="#719392"/>
<path d="M115.09 279.541C114 283.401 113.782 287.455 114.454 291.409C120.337 301.179 128.02 309.744 137.095 316.649C135.389 313.301 133.942 309.827 132.766 306.258C131.524 302.537 130.587 298.721 129.964 294.848C127.723 292.887 125.431 290.747 123.087 288.379C120.082 285.373 117.433 282.394 115.09 279.541Z" fill="#719392"/>
<path d="M70.3161 223.408C68.4314 224.732 66.3175 225.955 63.9998 227.407C61.6822 228.858 59.5428 229.801 57.5308 230.769C59.6192 230.769 61.8859 230.412 64.2545 230.055C65.9355 229.826 67.5145 229.521 68.9917 229.215L70.3161 223.408Z" fill="#7BA8A7"/>
<path d="M406.427 186.3C411.771 185.89 417.142 186.565 422.218 188.287C424.098 188.942 425.928 189.734 427.694 190.655C431.136 201.712 433.465 213.085 434.647 224.605C435.258 230.412 435.513 235.913 435.538 241.032C430.68 220.597 420.656 201.751 406.427 186.3V186.3Z" fill="#719392"/>
</g>
<defs>
<clipPath id="clip0">
<rect width="515" height="543" fill="white"/>
</clipPath>
</defs>
</svg>
