<svg width="516" height="127" viewBox="0 0 516 127" fill="none" xmlns="http://www.w3.org/2000/svg">
<g clip-path="url(#clip0)">
<path d="M0.0345459 51.5L312.167 18.4685C420.577 6.99598 515.035 91.985 515.035 201V201H0.0345459V51.5Z" fill="#CFEAEC"/>
<path d="M0.0345459 0C6.91715 4.15679 17.0283 10.0437 28.8551 16.3519C43.4704 24.3071 58.578 31.6099 74.1147 38.2297C98.1029 47.7384 123.685 54.1261 149.976 57.1723C206.605 64.8477 267.198 57.6645 340.271 45.9599C388.079 38.3026 446.649 27.4638 515.127 12.6233C515.228 46.2423 515.025 80.3932 515.127 114H0.126744C0.257426 76.0784 -0.110657 37.9094 0.0345459 0Z" fill="#9CCDCD"/>
<rect y="110" width="515" height="68" fill="#9BCDCD"/>
</g>
<defs>
<clipPath id="clip0">
<rect width="515.07" height="127" fill="white"/>
</clipPath>
</defs>
</svg>
