<svg width="48" height="30" viewBox="0 0 48 30" fill="none" xmlns="http://www.w3.org/2000/svg">
<path d="M38.8936 11.6489C38.2881 11.6489 37.6837 11.7091 37.0903 11.8292C36.6428 9.59574 35.196 7.69056 33.1647 6.65934C31.1338 5.62813 28.7419 5.58487 26.6747 6.54171C24.8039 1.38847 19.1097 -1.27224 13.9565 0.598584C8.80325 2.4694 6.14255 8.16392 8.01337 13.3168C3.49923 13.4595 -0.066565 17.1958 0.000942903 21.7116C0.068855 26.2278 3.74541 29.855 8.26198 29.8623H38.8936C43.9227 29.8623 48.0003 25.7851 48.0003 20.7556C48.0003 15.726 43.9227 11.6489 38.8936 11.6489V11.6489Z" fill="#E2EAEF"/>
</svg>
