<svg width="515" height="829" viewBox="0 0 515 829" fill="none" xmlns="http://www.w3.org/2000/svg">
<g clip-path="url(#clip0)">
<path d="M0 245H315C425.457 245 515 334.543 515 445V829H0V245Z" fill="#CFEAEC"/>
<path d="M222.288 199.69C216.321 199.69 210.529 200.454 205.011 201.883C195.121 187.61 178.625 178.261 159.937 178.261C153.866 178.261 148.037 179.261 142.579 181.082C133.378 140.395 97.0041 110 53.5067 110C3.06004 110 -37.8347 150.866 -37.8347 201.278C-37.8347 202.318 -37.7892 203.347 -37.758 204.374C-44.1779 202.363 -51.0076 201.278 -58.0909 201.278C-95.5949 201.278 -126 231.656 -126 269.143C-126 306.62 -95.5936 337 -58.0909 337H145.237H182.973H222.291C260.237 337 291 306.261 291 268.345C290.997 230.426 260.235 199.69 222.288 199.69Z" fill="#6DB3B2"/>
<path d="M199.288 210.69C193.321 210.69 187.529 211.454 182.011 212.883C172.121 198.61 155.625 189.261 136.937 189.261C130.866 189.261 125.037 190.261 119.579 192.082C110.378 151.395 74.0041 121 30.5067 121C-19.94 121 -60.8347 161.866 -60.8347 212.278C-60.8347 213.318 -60.7892 214.347 -60.758 215.374C-67.1779 213.363 -74.0076 212.278 -81.0909 212.278C-118.595 212.278 -149 242.656 -149 280.143C-149 317.62 -118.594 348 -81.0909 348H122.237H159.973H199.291C237.237 348 268 317.261 268 279.345C267.997 241.426 237.235 210.69 199.288 210.69Z" fill="#CFEAEC"/>
<path d="M420.295 393.659C421.751 388.969 423.765 384.603 426.235 380.614C417.423 369.356 414.096 354.108 418.655 339.419C420.136 334.646 422.344 330.309 425.107 326.463C395.356 309.3 380.327 273.29 390.938 239.1C403.245 199.446 445.359 177.276 485.003 189.58C485.821 189.833 486.619 190.12 487.419 190.396C487.404 184.859 488.217 179.225 489.945 173.658C499.094 144.178 530.401 127.693 559.881 136.842C589.353 145.989 605.826 177.305 596.677 206.783L547.073 366.607L537.868 396.269L528.276 427.175C519.018 457.002 487.34 473.68 457.523 464.426C427.704 455.169 411.038 423.487 420.295 393.659Z" fill="#63AFAF"/>
<path d="M404.815 416.227C406.674 411.681 409.06 407.507 411.869 403.748C404.07 391.766 402.083 376.286 407.904 362.049C409.795 357.424 412.372 353.295 415.46 349.704C387.315 330.017 375.478 292.835 389.026 259.698C404.738 221.267 448.623 202.847 487.045 218.555C487.837 218.879 488.607 219.235 489.38 219.579C489.847 214.061 491.147 208.52 493.354 203.124C505.035 174.553 537.658 160.856 566.229 172.537C594.793 184.215 608.478 216.846 596.797 245.416L533.468 400.315L521.714 429.062L509.468 459.016C497.649 487.924 464.639 501.781 435.741 489.966C406.841 478.148 392.996 445.135 404.815 416.227Z" fill="#CFEAEC"/>
</g>
<defs>
<clipPath id="clip0">
<rect width="515" height="829" fill="white"/>
</clipPath>
</defs>
</svg>
