<svg width="517" height="658" viewBox="0 0 517 658" fill="none" xmlns="http://www.w3.org/2000/svg">
<path d="M0 97.063H315C425.457 97.063 515 186.606 515 297.063V657.063H0V97.063Z" fill="#CFEAEC"/>
<path d="M1.09233 150.13C7.97493 154.287 17.9939 160.107 29.8207 166.415C44.436 174.37 59.5436 181.673 75.0803 188.293C99.0685 197.801 124.65 204.189 150.941 207.235C207.57 214.911 268.163 207.728 341.237 196.023C389.045 188.366 447.615 177.527 516.092 162.686C516.194 196.305 515.991 230.456 516.092 264.063H1.09234C1.22303 226.141 0.947129 188.04 1.09233 150.13Z" fill="#9CCDCD"/>
<path opacity="0.76" d="M1.09222 0.562988C24.834 2.59571 48.9012 8.19744 70.2667 17.099C77.3018 20.0707 135.608 45.4308 165.251 99.8155C176.315 120.125 173.114 125.631 187.031 145.121C200.519 163.348 217.978 179.291 238.498 192.122C270.842 212.723 301.226 220.49 329.039 227.345C378.372 239.524 419.842 240.709 465.559 241.93C486.904 242.532 503.503 242.24 516.092 241.93C516.092 247.983 516.092 444.937 516.092 451.063L465 410.063L440 390.563L414 374.563L375 353.063L334.5 335.563L290.5 319.063L248 303.063L216 294.563L187.031 288.063L141 277.063L100 271.063L67 267.063L33 264.063H1.09219C1.41164 177.39 0.772773 87.2236 1.09222 0.562988Z" fill="#63AFAF"/>
</svg>
