<svg width="199" height="88" viewBox="0 0 199 88" fill="none" xmlns="http://www.w3.org/2000/svg">
<g clip-path="url(#clip0)">
<path d="M45.2949 44.9537C45.3457 44.9544 45.3945 44.9475 45.4447 44.9481C46.6697 68.2492 65.7426 86.929 89.4119 87.2447C103.005 87.426 115.238 81.4961 123.56 72.0268C126.06 72.5698 128.649 72.8741 131.306 72.9096C149.099 73.1469 164.211 61.3272 168.961 45.0361C183.647 40.7545 194.468 27.2948 194.682 11.2018C194.946 -8.53585 179.158 -24.7503 159.42 -25.0136L46.2483 -26.5233C26.5103 -26.7866 10.2962 -10.9993 10.033 8.73868C9.76966 28.4763 25.5569 44.6904 45.2949 44.9537Z" fill="#9BCDCD"/>
<path d="M49.0674 -14.5707L122.328 -13.5934C142.047 -13.3304 158.746 2.35227 158.788 22.0738C158.819 36.9072 149.833 49.5661 137.063 55.0163C134.237 56.2224 131.926 58.3388 130.646 61.1317C128.821 65.1148 126.426 68.7793 123.572 72.0295C126.068 72.5707 128.653 72.875 131.305 72.9103C149.099 73.1477 164.211 61.328 168.96 45.0369C183.914 40.6763 194.861 26.8002 194.683 10.3178C194.472 -9.27579 177.846 -24.7678 158.253 -25.0291L49.2263 -26.4835C45.9365 -26.5274 43.2343 -23.896 43.1904 -20.6065C43.1466 -17.3167 45.7776 -14.6146 49.0674 -14.5707Z" fill="#8DC5C5"/>
</g>
<defs>
<clipPath id="clip0">
<rect width="199" height="88" fill="white"/>
</clipPath>
</defs>
</svg>
