<svg width="135" height="146" viewBox="0 0 135 146" fill="none" xmlns="http://www.w3.org/2000/svg">
<g clip-path="url(#clip0)">
<path d="M103.485 80.479C105.352 54.3439 81.2889 34.198 56.028 40.3298C50.907 17.2556 30.3246 0 5.70854 0C-23.4644 0 -46.9887 24.2417 -45.7913 53.6785C-45.8071 53.6785 -45.8225 53.6776 -45.8384 53.6776C-71.3331 53.6776 -92 74.3445 -92 99.8388C-92 124.733 -72.2927 145.021 -47.6286 145.962V146H100.663C118.792 146 133.488 131.304 133.488 113.175C133.488 95.998 120.292 81.9112 103.485 80.479Z" fill="#CEE6E8"/>
<path d="M103.485 80.479C105.352 54.3435 81.289 34.198 56.0282 40.3298C50.9071 17.2556 30.3247 0 5.70865 0C-2.4371 0 -10.1416 1.89154 -16.9912 5.25669C-15.2736 5.08361 -13.5318 4.99333 -11.7689 4.99333C12.8472 4.99333 33.4296 22.2489 38.5506 45.3231C63.8115 39.1909 87.8744 59.3368 86.0079 85.4723C102.814 86.9049 116.011 100.991 116.011 118.168C116.011 129.905 109.846 140.197 100.583 146H100.663C118.792 146 133.489 131.304 133.489 113.175C133.488 95.998 120.292 81.9112 103.485 80.479Z" fill="#ACD7D8"/>
</g>
<defs>
<clipPath id="clip0">
<rect width="135" height="146" fill="white"/>
</clipPath>
</defs>
</svg>
