<svg width="123" height="111" viewBox="0 0 123 111" fill="none" xmlns="http://www.w3.org/2000/svg">
<g clip-path="url(#clip0)">
<path d="M125.396 59.225C126.584 40.9663 111.272 26.8917 95.1969 31.1756C91.9382 15.0552 78.8407 3 63.1763 3C44.6123 3 29.6427 19.936 30.4047 40.5014C30.3946 40.5014 30.3848 40.5008 30.3747 40.5008C14.1513 40.5008 1 54.9393 1 72.7504C1 90.1424 13.5406 104.316 29.2355 104.974V105H123.6C135.136 105 144.488 94.7326 144.488 82.0673C144.488 70.0671 136.091 60.2256 125.396 59.225Z" fill="#CEE6E8"/>
<path d="M125.396 59.225C126.584 40.966 111.272 26.8918 95.197 31.1756C91.9382 15.0553 78.8407 3.00003 63.1764 3.00003C57.9929 3.00003 53.0902 4.32152 48.7314 6.67251C49.8244 6.55159 50.9328 6.48852 52.0547 6.48852C67.719 6.48852 80.8165 18.5438 84.0752 34.6641C100.15 30.38 115.462 44.4545 114.274 62.7135C124.969 63.7144 133.366 73.5556 133.366 85.5561C133.366 93.7558 129.444 100.946 123.549 105H123.6C135.137 105 144.489 94.7327 144.489 82.0673C144.488 70.0671 136.091 60.2256 125.396 59.225Z" fill="#ACD7D8"/>
</g>
<defs>
<clipPath id="clip0">
<rect width="123" height="111" fill="white"/>
</clipPath>
</defs>
</svg>
