<svg width="371" height="371" viewBox="0 0 371 371" fill="none" xmlns="http://www.w3.org/2000/svg">
<g clip-path="url(#clip0)">
<circle cx="184.694" cy="184.693" r="200.824" fill="#CADFDF"/>
<path d="M41.8341 262.147C41.808 262.147 41.783 262.151 41.7572 262.151C40.9687 250.197 31.0493 240.738 18.8959 240.738C11.9162 240.738 5.67659 243.866 1.46935 248.784C0.182361 248.522 -1.14888 248.384 -2.51309 248.384C-11.6496 248.384 -19.3267 254.555 -21.6533 262.951C-29.1633 265.25 -34.6265 272.234 -34.6265 280.497C-34.6265 290.632 -26.4107 298.848 -16.2759 298.848H41.8341C51.9689 298.848 60.1846 290.632 60.1846 280.497C60.1846 270.363 51.9689 262.147 41.8341 262.147Z" fill="#9BCDCD"/>
<path d="M40.3048 292.731H2.68812C-7.43722 292.731 -16.1174 284.794 -16.2737 274.67C-16.3913 267.055 -11.8648 260.495 -5.34638 257.609C-3.90403 256.971 -2.73204 255.869 -2.0941 254.426C-1.18432 252.369 0.0202621 250.471 1.4628 248.783C0.178034 248.522 -1.15117 248.384 -2.51316 248.384C-11.6497 248.384 -19.3268 254.555 -21.6533 262.951C-29.3004 265.292 -34.8254 272.491 -34.621 280.951C-34.3782 291.008 -25.7369 298.848 -15.6767 298.848H40.3048C41.994 298.848 43.3632 297.478 43.3632 295.789C43.3632 294.1 41.994 292.731 40.3048 292.731Z" fill="#8DC5C5"/>
<path d="M353.474 83.2424C353.448 83.2424 353.423 83.2462 353.397 83.2462C352.609 71.2924 342.689 61.8334 330.536 61.8334C323.556 61.8334 317.317 64.9614 313.109 69.8797C311.823 69.6181 310.491 69.4796 309.127 69.4796C299.991 69.4796 292.313 75.651 289.987 84.0469C282.477 86.3456 277.014 93.3296 277.014 101.593C277.014 111.727 285.229 119.943 295.364 119.943H353.474C363.609 119.943 371.825 111.728 371.825 101.593C371.825 91.4581 363.609 83.2424 353.474 83.2424Z" fill="#9BCDCD"/>
<path d="M351.945 113.826H314.328C304.203 113.826 295.522 105.89 295.366 95.7655C295.249 88.1506 299.775 81.5903 306.294 78.7049C307.736 78.0664 308.908 76.964 309.546 75.5215C310.456 73.4642 311.66 71.5665 313.103 69.8784C311.818 69.6176 310.489 69.4791 309.127 69.4791C299.99 69.4791 292.313 75.6505 289.987 84.0465C282.339 86.3875 276.814 93.5861 277.019 102.047C277.262 112.104 285.903 119.943 295.963 119.943H351.945C353.634 119.943 355.003 118.574 355.003 116.885C355.003 115.196 353.634 113.826 351.945 113.826Z" fill="#8DC5C5"/>
<path d="M67.3248 189.942C64.5319 189.368 61.6513 189.368 58.8584 189.942C56.4305 190.368 54.0727 191.126 51.8511 192.194C51.0117 196.552 50.89 201.018 51.4908 205.416C53.6164 220.998 64.4787 231.068 72.1525 238.201C78.8365 244.394 86.4076 249.555 94.6156 253.513C94.0752 251.585 93.2466 248.739 92.2558 245.298C89.4997 235.805 88.1487 231.518 86.9778 227.519C80.2407 204.641 80.9612 198.066 74.2241 193.113C72.1516 191.619 69.8084 190.542 67.3248 189.942V189.942Z" fill="#EBBFB0"/>
<path d="M305.628 191.293C308.039 191.187 310.455 191.338 312.834 191.744C315.019 192.107 317.158 192.711 319.211 193.545C319.966 197.906 320.087 202.353 319.571 206.749C318.499 214.594 315.538 222.062 310.942 228.51C300.134 244.884 283.165 252.27 276.572 254.81C277.203 252.792 278.175 249.712 279.364 245.965C284.336 230.203 286.84 222.331 287.146 221.178C288.948 214.171 291.271 207.271 293.235 200.3C293.883 198.03 294.928 194.247 298.171 192.428C299.918 191.527 301.827 191.437 305.628 191.293Z" fill="#EBBEAF"/>
<path d="M88.527 233.661C91.6974 243.443 92.6881 246.577 93.805 250.522C96.507 260.214 96.6692 262.682 98.2724 266.338C102.289 275.435 110.125 280.191 117.529 284.532C135.831 295.34 155.358 297.538 166.851 297.952V300.078C168.037 301.797 169.469 303.333 171.102 304.636C174.848 307.463 179.365 309.084 184.054 309.283C186.738 309.499 194.249 310.112 200.554 305.23C202.073 304.046 203.409 302.644 204.517 301.069V298.943C212.418 298.038 220.244 296.569 227.935 294.548C236.762 292.242 244.148 290.369 252.722 285.541C260.306 281.344 267.745 277.237 273.276 268.932C275.96 264.951 275.834 263.528 281.184 244.163C286.156 226.15 286.588 226.276 289.092 215.954C291.091 207.722 292.244 201.669 293.847 193.275C296.585 179.134 297.9 172.145 298.369 166.524C298.891 159.499 299.936 145.538 295.469 133.577C287.885 113.24 266.503 104.287 249.588 97.1896C224.513 86.6695 202.644 86.5975 188.683 86.6876C169.863 86.7534 151.177 89.8556 133.345 95.8746C111.422 103.35 97.3176 108.196 86.9417 122.499C75.413 138.459 74.8005 157.734 74.3321 169.695C74.057 179.075 74.9036 188.455 76.8541 197.634C78.133 203.128 78.5474 202.894 88.527 233.661Z" fill="#EBBFB0"/>
<path d="M167.769 297.286C173.832 298.613 180.01 299.349 186.215 299.484C192.108 299.611 198 299.189 203.815 298.223L204.589 300.33C203.391 302.485 201.759 304.368 199.797 305.86C194.79 309.625 189.187 309.463 185.387 309.463C181.09 309.61 176.841 308.529 173.137 306.347C170.62 304.771 168.48 302.662 166.868 300.168L167.769 297.286Z" fill="#D1AA9D"/>
<path d="M123.167 324.487L241.553 323.136C241.013 322.253 240.436 321.334 239.752 320.452C239.067 319.569 238.743 318.975 238.239 318.272C220.429 318.56 202.415 318.734 184.197 318.794C165.283 318.794 146.573 318.722 128.067 318.578C127.22 319.461 126.265 320.38 125.419 321.514C124.572 322.649 123.942 323.532 123.167 324.487Z" fill="#CADFDF"/>
<path d="M128.211 318.578C147.185 319.094 166.676 319.317 186.683 319.245C204.337 319.173 221.57 318.848 238.383 318.272C237.266 316.705 235.987 315.083 234.564 313.408C233.411 312.039 232.258 310.796 231.141 309.643C216.658 310.04 201.887 310.28 186.828 310.364C170.543 310.436 154.589 310.316 138.965 310.004C137.047 311.192 135.201 312.491 133.435 313.895C131.601 315.35 129.857 316.914 128.211 318.578V318.578Z" fill="#8BBFBE"/>
<path d="M109.333 352.336L254.199 352.768C253.568 350.805 252.902 348.787 252.199 346.751C251.497 344.716 250.686 342.5 249.93 340.465L114.394 340.158C113.53 342.104 112.593 344.103 111.818 346.157C111.044 348.211 110.107 350.264 109.333 352.336Z" fill="#8BBFBE"/>
<path d="M114.395 340.159L249.93 340.465C249.011 337.979 247.93 335.349 246.651 332.629C245.137 329.382 243.459 326.214 241.625 323.136C220.802 323.136 199.786 323.268 178.577 323.532C159.987 323.748 141.559 324.066 123.293 324.487C121.888 326.45 120.447 328.648 119.042 331.08C117.322 334.016 115.77 337.047 114.395 340.159V340.159Z" fill="#63AFAF"/>
<path d="M101.551 374.06L260.576 373.286C259.531 369.863 258.45 366.422 257.369 362.964C256.289 359.505 255.208 356.137 254.127 352.768L109.261 352.336C107.82 355.722 106.414 359.325 105.045 363.144C103.784 366.963 102.632 370.602 101.551 374.06Z" fill="#CADFDF"/>
<path d="M138.965 310.004C154.673 310.304 170.717 310.424 187.098 310.364C202.049 310.292 216.73 310.052 231.141 309.643C227.796 306.072 223.597 303.41 218.939 301.91C214.281 300.41 209.318 300.12 204.517 301.069C202.799 303.448 200.587 305.426 198.032 306.869C194.47 308.763 190.46 309.653 186.431 309.445C182.256 309.596 178.114 308.652 174.416 306.707C171.435 305.084 168.851 302.82 166.85 300.078C162.233 300.607 157.686 301.627 153.286 303.122C148.253 304.833 143.445 307.143 138.965 310.004V310.004Z" fill="#63AFAF"/>
<path opacity="0.33" d="M142.838 359.505C151.364 360.443 159.959 360.564 168.508 359.865C198.194 355.686 214.263 353.398 214.803 353.272C214.803 353.272 202.428 357.47 185.279 363.738C174.164 367.827 165.139 371.556 159.123 374.132L132.715 374.042C133.399 368.818 134.102 363.594 134.786 358.388C137.362 358.821 140.046 359.271 142.838 359.505Z" fill="#E5EFF0"/>
<path opacity="0.33" d="M130.733 355.506C132.167 356.344 133.524 357.308 134.786 358.388C134.318 361.511 133.879 364.681 133.471 367.9C133.201 369.953 132.949 372.007 132.715 374.042H101.551L109.261 352.318C116.57 350.825 124.172 351.954 130.733 355.506V355.506Z" fill="#E5EFF0"/>
<path d="M214.803 353.273C200.968 358.298 190.07 362.099 182.973 364.531C182.973 364.531 171.228 368.584 154.493 376.204C150.476 378.005 145.234 379.807 141.055 384.905C138.78 387.925 136.824 391.172 135.218 394.596C132.967 398.847 131.291 402.486 130.175 405.062C127.287 406.461 124.685 408.386 122.501 410.736C119.245 413.859 117.143 417.993 116.538 422.463C116.174 427.422 117.772 432.325 120.988 436.118C122.941 438.482 125.404 440.372 128.193 441.648C128.337 461.019 128.469 480.395 128.589 499.778L171.3 500.769C172.074 497.959 178.235 475.55 181.982 462.796C182.522 460.995 183.693 457.104 185.333 457.068C186.972 457.032 188.125 460.382 188.701 462.003C192.304 472.181 198.05 492.843 200.176 500.535L242.238 500.21C243.139 473.766 242.49 451.177 241.481 433.56C241.175 427.939 238.293 397.172 234.96 365.738C234.402 360.478 232.366 347.724 231.61 330.557C231.214 321.712 231.214 314.471 231.286 309.805C229.353 307.73 227.126 305.952 224.675 304.527C221.931 302.919 218.943 301.769 215.83 301.123L214.803 353.273Z" fill="#3E5151"/>
<path opacity="0.5" d="M215.83 301.375L215.668 309.643C215.668 313.588 215.505 317.551 215.433 321.496H219.036C219.036 319.281 219.18 316.543 219.234 313.39C219.414 305.482 219.414 302.33 217.703 301.465C217.106 301.227 216.447 301.195 215.83 301.375V301.375Z" fill="#2F3D3D"/>
<path opacity="0.5" d="M215.704 329.368C215.467 330.643 215.299 331.93 215.199 333.223C215.059 334.865 215.022 336.513 215.091 338.159L232.006 337.709C232.006 336.34 231.826 334.935 231.754 333.529C231.754 331.836 231.574 330.179 231.52 328.54L215.704 329.368Z" fill="#2F3D3D"/>
<path opacity="0.5" d="M214.893 343.851V347.202L232.601 345.401L232.276 342.122L214.893 343.851Z" fill="#2F3D3D"/>
<path d="M162.455 394.092C162.266 395.953 162.481 397.833 163.085 399.604C163.533 400.903 164.19 402.12 165.031 403.207C166.041 404.448 167.26 405.503 168.634 406.323C172.849 408.737 180.018 407.386 189.782 407.386C195.423 407.493 201.066 407.259 206.679 406.683C207.949 406.52 209.174 406.103 210.281 405.458C210.948 405.075 211.555 404.595 212.083 404.035C212.589 403.424 212.996 402.737 213.29 402C213.956 400.324 214.515 386.526 214.587 367.576L196.465 367.702L200.068 364.387H218.081C218.297 384.472 218.081 399.28 217.235 402.594C217.014 403.514 216.656 404.394 216.172 405.206C214.962 406.972 213.23 408.314 211.218 409.043C209.926 409.587 208.56 409.933 207.165 410.07C201.094 410.682 191.457 410.502 189.584 410.484C181.964 410.484 171.57 411.313 167.697 409.457C166.516 408.859 165.414 408.115 164.418 407.242C163.631 406.489 162.925 405.656 162.311 404.756C160.658 401.858 159.749 398.597 159.663 395.263L162.455 394.092Z" fill="#2F3D3D"/>
<path d="M145.144 381.086C145.144 390.321 145.102 399.574 145.018 408.845L214.803 353.272C203.058 357.866 193.349 361.108 186.521 363.27C172.237 367.792 160.311 370.764 146.279 380.293C145.792 380.617 145.396 380.888 145.144 381.086Z" fill="#526B6A"/>
<path d="M233.213 327.657C232.565 329.116 230.205 329.242 223.576 329.458C216.947 329.675 215.398 329.639 214.443 328.288C213.903 327.343 213.611 326.277 213.596 325.189C213.474 324.172 213.642 323.142 214.083 322.217C214.965 320.794 217.019 320.884 223.36 320.974C229.701 321.064 232.024 320.974 232.871 322.559C233.228 323.354 233.43 324.21 233.466 325.081C233.555 325.948 233.469 326.824 233.213 327.657V327.657Z" fill="#B0B0B1"/>
<path d="M247.12 215.99C248.689 217.537 249.826 219.469 250.416 221.592C251.481 225.047 251.667 228.712 250.957 232.256C250.788 235.616 249.825 238.888 248.147 241.804C247.354 243.047 243.589 248.865 237.104 249.009C235.341 248.978 233.603 248.588 231.996 247.863C230.389 247.139 228.946 246.094 227.755 244.794C224.152 240.885 224.458 235.985 224.729 229.626C224.999 223.267 225.197 218.368 228.836 215.341C232.475 212.315 237.572 212.729 239.212 212.892C242.127 212.979 244.921 214.074 247.12 215.99Z" fill="#9EB7B6"/>
<path d="M123.825 218.374C122.256 219.921 121.119 221.852 120.528 223.975C119.464 227.429 119.278 231.094 119.988 234.637C120.157 237.996 121.12 241.268 122.798 244.183C123.591 245.426 127.357 251.243 133.843 251.387C135.606 251.356 137.344 250.966 138.952 250.241C140.559 249.517 142.002 248.473 143.193 247.173C146.797 243.264 146.49 238.365 146.22 232.008C145.95 225.65 145.752 220.751 142.112 217.725C138.473 214.7 133.374 215.114 131.735 215.276C128.819 215.363 126.024 216.458 123.825 218.374Z" fill="#9EB7B6"/>
<path d="M250.02 212.856C251.989 214.856 253.394 217.342 254.091 220.061C254.832 222.529 255.106 225.113 254.901 227.681C254.68 229.968 254.301 232.237 253.766 234.472C253.342 236.867 252.565 239.186 251.461 241.353C250.871 242.435 250.184 243.46 249.407 244.416C248.634 245.36 247.797 246.251 246.903 247.082C245.037 248.78 242.797 250.015 240.364 250.684C237.847 251.343 235.196 251.287 232.708 250.522C230.307 249.729 228.115 248.405 226.296 246.649C224.437 244.804 223.117 242.487 222.477 239.948C221.918 237.642 221.628 235.278 221.612 232.905C221.612 230.671 221.522 228.6 221.504 226.366C221.427 223.949 221.626 221.532 222.098 219.16C222.417 217.745 222.945 216.385 223.666 215.125C224.451 213.806 225.456 212.63 226.638 211.649C228.923 209.814 231.674 208.654 234.582 208.298C235.895 208.126 237.221 208.06 238.545 208.1C239.211 208.1 239.734 208.1 240.346 208.244C241.012 208.298 241.674 208.395 242.328 208.532C245.255 209.2 247.927 210.702 250.02 212.856ZM244.219 219.106C243.157 218.327 241.92 217.819 240.616 217.629L239.428 217.449L238.041 217.305C237.231 217.235 236.418 217.235 235.609 217.305C234.231 217.346 232.886 217.737 231.7 218.44C230.599 219.158 229.778 220.233 229.376 221.484C228.417 225.315 227.838 229.231 227.647 233.175C227.304 237.282 227.521 240.921 229.844 243.353C230.974 244.667 232.445 245.643 234.096 246.171C235.746 246.699 237.511 246.758 239.193 246.343C240.87 245.731 242.398 244.773 243.68 243.532C244.962 242.291 245.968 240.793 246.633 239.138C247.25 237.399 247.596 235.577 247.66 233.734C247.87 231.753 247.942 229.761 247.876 227.771C247.779 226.056 247.377 224.372 246.687 222.799C246.236 221.357 245.379 220.075 244.219 219.106V219.106Z" fill="#282828"/>
<path d="M167.589 266.212C169.65 268.448 172.015 270.382 174.614 271.959C176.515 273.141 178.554 274.085 180.685 274.769C183.246 275.641 185.943 276.044 188.647 275.958C192.673 275.707 196.545 274.32 199.816 271.959C203.406 269.458 206.231 266.009 207.976 261.997L201.653 259.925L195.564 264.627L188.359 261.222L182.324 265.42L175.119 262.159L167.589 266.212Z" fill="#D1474C"/>
<path d="M212.335 225.141C213.518 221.829 215.568 218.896 218.271 216.646C220.973 214.397 224.23 212.913 227.701 212.351C224.175 212.418 220.713 213.313 217.595 214.963C215.766 215.916 214.086 217.13 212.606 218.566C217.134 214.725 222.373 211.811 228.025 209.991C235.794 207.378 244.261 207.777 251.749 211.108C258.409 214.032 263.989 218.964 267.71 225.213L259.261 232.418L261.909 227.014C260.262 224.897 258.403 222.953 256.361 221.214C252.663 218.02 248.381 215.573 243.751 214.008C234.853 211.378 222.459 215.666 212.335 225.141Z" fill="#282828" stroke="#282828" stroke-width="3.52442" stroke-linecap="round" stroke-linejoin="round"/>
<path d="M159.375 225.143C158.192 221.831 156.143 218.898 153.44 216.648C150.737 214.398 147.48 212.915 144.009 212.353C147.536 212.416 150.999 213.311 154.115 214.965C155.944 215.918 157.625 217.131 159.105 218.568C154.579 214.723 149.339 211.809 143.685 209.993C135.917 207.377 127.449 207.775 119.961 211.11C113.302 214.027 107.726 218.96 104.019 225.215L112.449 232.42C111.567 230.619 110.648 228.817 109.819 227.016C111.459 224.898 113.312 222.955 115.349 221.216C119.05 218.026 123.332 215.579 127.959 214.01C136.912 211.38 149.251 215.667 159.375 225.143Z" fill="#282828" stroke="#282828" stroke-width="3.52442" stroke-linecap="round" stroke-linejoin="round"/>
<path d="M162.941 257.205C170.84 258.261 178.824 258.52 186.774 257.98C194.547 257.443 202.248 256.127 209.759 254.053C209.784 255.54 209.614 257.023 209.255 258.466C208.963 259.676 208.534 260.849 207.976 261.961L201.653 259.889L195.564 264.591L188.359 261.186L182.324 265.384L175.119 262.123L167.445 266.212C165.246 263.592 163.658 260.516 162.797 257.205H162.941Z" fill="white"/>
<path d="M225.341 262.447L242.868 263.618Z" fill="#F3998B"/>
<path d="M225.341 262.447L242.868 263.618" stroke="#F3998B" stroke-width="3.52442" stroke-miterlimit="10" stroke-linecap="round"/>
<path d="M223.972 267.888L248.363 271.04" stroke="#F3998B" stroke-width="3.52442" stroke-miterlimit="10" stroke-linecap="round"/>
<path d="M225.701 273.544L231.754 274.481Z" fill="white"/>
<path d="M225.701 273.544L231.754 274.481" stroke="#F3998B" stroke-width="3.52442" stroke-miterlimit="10" stroke-linecap="round"/>
<path d="M149.198 261.781L130.607 263.582Z" fill="white"/>
<path d="M149.198 261.781L130.607 263.582" stroke="#F3998B" stroke-width="3.52442" stroke-miterlimit="10" stroke-linecap="round"/>
<path d="M149.323 267.257L125.905 270.86Z" fill="white"/>
<path d="M149.323 267.257L125.905 270.86" stroke="#F3998B" stroke-width="3.52442" stroke-miterlimit="10" stroke-linecap="round"/>
<path d="M148.135 272.913L140.227 274.102Z" fill="white"/>
<path d="M148.135 272.913L140.227 274.102" stroke="#F3998B" stroke-width="3.52442" stroke-miterlimit="10" stroke-linecap="round"/>
<path d="M127.454 219.305C126.334 220.261 125.499 221.507 125.041 222.907C124.351 224.481 123.949 226.164 123.852 227.879C123.795 229.869 123.867 231.861 124.068 233.842C124.144 235.685 124.496 237.507 125.113 239.246C125.761 240.922 126.761 242.44 128.044 243.698C129.327 244.956 130.864 245.926 132.552 246.541C134.232 246.957 135.994 246.898 137.642 246.37C139.29 245.842 140.758 244.866 141.883 243.551C144.225 241.101 144.441 237.48 144.099 233.373C143.901 229.389 143.297 225.436 142.298 221.574C141.903 220.324 141.088 219.249 139.992 218.53C138.804 217.831 137.46 217.441 136.083 217.395C135.274 217.325 134.46 217.325 133.651 217.395L132.264 217.539L131.075 217.719C129.756 217.942 128.512 218.486 127.454 219.305V219.305ZM121.654 213.054C123.774 210.979 126.443 209.554 129.346 208.947C130 208.81 130.662 208.714 131.327 208.658C131.958 208.658 132.462 208.55 133.129 208.514C134.459 208.474 135.79 208.541 137.11 208.713C140.012 209.072 142.756 210.232 145.036 212.063C146.228 213.038 147.24 214.215 148.026 215.54C148.741 216.8 149.263 218.16 149.575 219.575C150.044 221.947 150.249 224.363 150.188 226.78C150.188 229.014 150.188 231.086 150.08 233.319C150.046 235.691 149.756 238.053 149.215 240.363C148.57 242.9 147.251 245.216 145.396 247.064C143.57 248.82 141.372 250.144 138.965 250.937C136.478 251.701 133.827 251.757 131.309 251.099C128.879 250.423 126.64 249.189 124.77 247.496C123.877 246.67 123.047 245.779 122.284 244.83C121.502 243.879 120.814 242.853 120.231 241.768C119.126 239.601 118.349 237.282 117.925 234.886C117.376 232.654 116.99 230.384 116.772 228.095C116.584 225.527 116.859 222.946 117.583 220.475C118.251 217.682 119.657 215.119 121.654 213.054Z" fill="#282828"/>
<path d="M210.282 172.973C213.234 177.419 217.119 181.169 221.667 183.962C226.156 186.65 231.218 188.236 236.438 188.591C241.69 188.952 246.962 188.298 251.966 186.664C257.02 184.972 261.717 182.358 265.818 178.954C266.04 178.736 266.34 178.616 266.651 178.62C266.961 178.623 267.258 178.75 267.476 178.972C267.693 179.194 267.813 179.493 267.81 179.804C267.806 180.115 267.68 180.412 267.458 180.629C263.62 185.02 258.773 188.414 253.335 190.519C247.846 192.624 241.953 193.462 236.096 192.969C230.185 192.499 224.502 190.486 219.613 187.132C214.835 183.786 211.026 179.237 208.571 173.946C208.459 173.709 208.446 173.438 208.534 173.192C208.622 172.946 208.803 172.744 209.039 172.631C209.254 172.534 209.495 172.515 209.722 172.578C209.949 172.64 210.147 172.78 210.282 172.973V172.973Z" fill="#7BA8A7"/>
<path d="M115.584 192.554C118.046 187.267 121.861 182.724 126.644 179.386C131.527 176.017 137.213 173.997 143.127 173.532C148.986 173.038 154.881 173.881 160.366 176C165.799 178.095 170.641 181.484 174.471 185.871C174.693 186.088 174.819 186.385 174.823 186.696C174.826 187.007 174.706 187.306 174.489 187.528C174.271 187.751 173.974 187.877 173.664 187.881C173.353 187.884 173.053 187.764 172.831 187.546C168.73 184.142 164.033 181.528 158.979 179.837C153.982 178.199 148.714 177.551 143.469 177.927C138.25 178.276 133.188 179.856 128.698 182.539C124.144 185.332 120.258 189.089 117.313 193.545C117.167 193.761 116.941 193.911 116.684 193.962C116.428 194.013 116.162 193.96 115.944 193.815C115.744 193.682 115.597 193.482 115.531 193.251C115.465 193.02 115.484 192.773 115.584 192.554V192.554Z" fill="#7BA8A7"/>
<path d="M120.951 49.8315C119.675 49.712 118.387 49.7849 117.132 50.0477C114.792 50.5633 112.615 51.6458 110.791 53.2001C92.9039 67.8632 79.934 89.822 79.934 89.822C68.6934 108.88 65.0366 121.31 64.136 124.516C62.8029 129.29 61.542 135.505 61.3799 136.387C60.0699 141.607 59.3151 146.951 59.1281 152.33C59.0406 156.647 59.5745 160.954 60.7134 165.119C63.0912 173.514 65.9734 173.352 67.0362 180.395C67.7927 185.385 66.784 188.267 69.1438 190.429C71.0532 192.23 73.1969 191.654 75.0883 194.031C76.0918 195.486 76.6831 197.186 76.7996 198.949C76.9617 199.814 78.2227 203.128 80.7446 209.757C83.7709 217.665 85.7524 222.871 89.3191 227.951C92.8204 232.851 97.252 237.013 102.361 240.201C99.0079 236.832 96.405 232.793 94.7232 228.347C93.6532 225.327 92.9221 222.198 92.5436 219.016C91.8818 214.476 91.5267 209.896 91.4808 205.308C91.3367 201.309 91.0665 195.418 90.5621 188.051C94.8415 195.769 100.675 202.516 107.693 207.866C105.852 204.266 104.437 200.463 103.478 196.535C103.136 195.112 102.865 193.743 102.649 192.446C99.575 190.083 96.788 187.369 94.345 184.358C89.6423 178.502 86.2292 171.719 84.3293 164.453C82.2911 155.826 81.5324 146.946 82.0776 138.099C82.0725 138.147 82.0725 138.195 82.0776 138.243C81.1011 147.044 81.8725 155.951 84.3473 164.453C86.3033 171.694 89.704 178.465 94.345 184.358C97.2049 187.996 100.68 191.106 104.613 193.545C106.884 194.909 109.301 196.015 111.818 196.841C110.315 195.257 108.907 193.585 107.603 191.834C105.798 189.292 104.208 186.604 102.847 183.8C98.5483 174.417 95.9733 164.336 95.2456 154.041C94.8443 145.506 95.9604 136.967 98.5422 128.822C96.0338 136.983 94.9194 145.509 95.2456 154.041C95.6845 163.738 98.0032 173.257 102.073 182.07C102.01 172.452 102.812 162.849 104.469 153.374C106.504 141.774 109.729 130.839 110.395 130.983C111.062 131.127 109.747 135.054 109.873 142.044C110.003 147.275 110.606 152.484 111.674 157.608C112.494 162.01 113.7 166.332 115.277 170.523C117.889 177.279 119.546 178.558 121.762 183.385C121.762 183.547 122.05 183.98 122.14 183.962C122.518 183.854 120.339 175.441 120.159 174.342C118.754 168.488 118.357 157.229 123.059 133.487C122.33 138.37 122.023 143.305 122.14 148.24C122.246 152.466 122.643 156.679 123.329 160.85C123.996 165.101 124.338 165.48 125.689 172.847C126.388 176.205 126.917 179.596 127.274 183.007C127.587 186.603 127.587 190.219 127.274 193.815C129.31 190.825 131.759 187.078 134.48 182.683C134.48 182.683 138.605 175.928 142.334 168.902C151.142 152.33 155.556 136.874 163.824 120.788C168.875 110.978 174.91 101.707 181.838 93.1185C174.65 101.515 168.594 110.817 163.824 120.788C163.824 120.788 151.214 147.34 152.349 171.658C152.817 178.99 153.304 178.413 153.646 184.178C153.646 184.466 153.646 185.241 153.808 185.241C153.97 185.241 154.547 175.369 155.123 170.343C155.934 163.3 158.564 153.573 166.598 142.008C166.022 144.079 165.193 147.142 164.22 150.834C162.419 157.878 161.41 161.445 160.798 164.417C159.864 168.985 159.203 173.605 158.816 178.251C157.855 188.242 157.5 198.282 157.753 208.316C158.607 203.458 160.161 198.75 162.365 194.338C166.724 185.673 171.696 182.25 179.009 173.73C184.092 167.539 188.613 160.908 192.52 153.915C198.28 143.055 201.693 131.106 202.535 118.842C203.427 122.336 203.917 125.92 203.994 129.524C203.994 131.848 203.994 138.261 199.635 150.222C196.032 160.382 193.222 167.965 186.197 175.657C182.063 180.182 177.19 183.971 171.786 186.862C176.763 185.868 181.601 184.278 186.197 182.124C193.51 178.794 200.059 173.992 205.436 168.02C212.904 159.356 217.582 148.638 218.856 137.27C218.024 148.636 214.161 159.571 207.669 168.938C204.397 173.583 200.5 177.754 196.086 181.332C200.012 180.064 203.773 178.335 207.291 176.18C214.153 171.863 219.997 166.111 224.422 159.319C228.104 153.954 231.009 148.096 233.051 141.918C233.522 145.494 234.312 149.02 235.41 152.456C237.68 159.463 241.409 166.578 250.182 176.846C259.268 187.397 269.627 196.782 281.021 204.786C278.489 201.455 276.155 197.979 274.032 194.374C270.748 188.79 267.969 182.924 265.727 176.846C270.039 180.886 273.888 185.393 277.202 190.284C282.04 197.459 285.689 205.366 288.01 213.702C289.905 211.397 291.436 208.815 292.55 206.046C293.649 203.326 294.712 200.642 296.009 197.04C296.495 195.635 296.873 194.464 297.143 193.635C298.925 192.557 300.903 191.84 302.962 191.527C303.773 191.412 304.592 191.358 305.412 191.365C308.568 191.375 311.716 191.682 314.815 192.284C314.815 189.294 314.815 183.277 314.959 172.811C315.227 165.589 314.871 158.356 313.896 151.195C313.554 148.997 313.158 146.961 312.743 145.106C311.953 141.379 310.936 137.703 309.699 134.1C306.961 127.357 303.093 121.131 298.26 115.69C308.314 126.626 315.402 139.952 318.85 154.401C318.81 148.065 318.28 141.741 317.265 135.487C315.212 123.356 311.465 111.574 306.132 100.486C303.292 94.5527 300.036 88.828 296.387 83.355C293.91 79.3674 291.134 75.5736 288.082 72.0064C284.047 67.4694 279.589 63.3257 274.77 59.631C273.906 58.9465 273.167 58.406 272.663 58.0458C271.822 54.2344 270.107 50.6702 267.655 47.6338C264.236 43.4004 259.499 40.4326 254.199 39.2034C243.39 36.8616 234.924 43.5447 233.771 44.4814C232.153 41.7704 230.11 39.3374 227.719 37.2759C222.094 32.6716 215.098 30.0672 207.831 29.8723C205.63 29.7595 203.423 29.8499 201.238 30.1425C189.822 22.2357 175.781 19.071 162.077 21.3158C152.924 23.084 144.359 27.1156 137.164 33.0427C130.883 37.7208 125.407 43.3914 120.951 49.8315V49.8315Z" fill="#7BA8A7"/>
<path d="M284.426 134.46C283.432 129.207 282.158 124.012 280.607 118.896C279.097 113.975 277.335 109.135 275.329 104.395C279.979 107.089 284.39 110.175 288.515 113.618C292.925 117.326 296.983 121.432 300.638 125.886C300.765 124.748 300.765 123.6 300.638 122.463C300.32 120.037 299.511 117.702 298.261 115.6C303.252 121.098 307.179 127.475 309.843 134.406C313.932 144.584 314.401 153.158 315.085 168.236C315.463 176.231 315.42 184.24 314.959 192.23L309.195 191.383C308.692 185.286 307.594 179.253 305.916 173.37C304.198 167.327 301.862 161.478 298.945 155.914C296.17 150.648 292.862 145.68 289.074 141.089C291.524 144.076 293.78 147.217 295.829 150.492C298.392 154.644 300.621 158.993 302.494 163.498C306.13 172.431 308.389 181.863 309.195 191.473C307.403 191.209 305.582 191.209 303.791 191.473C301.515 191.761 299.311 192.463 297.288 193.545C297.752 190.603 297.752 187.606 297.288 184.664C296.585 181.212 295.44 177.864 293.883 174.703C288.479 161.769 288.479 161.192 288.659 161.066C289.272 160.688 292.424 163.786 293.901 167.713C294.661 169.717 294.969 171.864 294.802 174C292.406 171.532 289.092 167.948 285.381 163.408C279.357 155.897 273.907 147.942 269.078 139.612C266.665 135.649 263.674 130.389 260.306 124.084C269.071 125.599 277.358 129.153 284.498 134.46H284.426Z" fill="#719392"/>
<path d="M268.79 139.252C256.141 136.719 244.842 129.677 236.996 119.437C238.713 127.358 242.117 134.817 246.976 141.305C250.272 145.647 254.055 149.249 262.197 155.104C272.678 162.596 283.793 169.16 295.415 174.721C288.103 167.197 281.472 159.041 275.599 150.348C273.114 146.511 270.88 142.818 268.79 139.252Z" fill="#719392"/>
<path d="M224.134 108.286C225.423 112.614 226.161 117.086 226.332 121.598C226.98 140.062 217.649 154.149 211.921 162.76C207.4 169.558 202.084 175.793 196.087 181.332C201.006 179.717 205.666 177.399 209.921 174.451C216.033 170.113 221.219 164.601 225.179 158.238C228.523 153.204 231.194 147.753 233.123 142.026C233.982 148.274 235.805 154.351 238.527 160.04C241.571 165.997 245.387 171.526 249.876 176.486C254.404 181.929 259.342 187.018 264.647 191.708C269.849 196.423 275.335 200.815 281.075 204.858C276.707 199.078 272.929 192.874 269.799 186.34C268.232 183.061 266.917 179.891 265.8 176.9C267.313 178.323 268.826 179.855 270.321 181.494C278.596 190.791 284.689 201.82 288.155 213.774C290.384 210.338 292.324 206.723 293.955 202.966C295.274 199.903 296.387 196.756 297.288 193.545C298.024 187.1 297.266 180.573 295.072 174.469C286.418 170.35 278.063 165.631 270.069 160.346C258.162 152.456 252.92 147.736 250.074 144.656C246.93 141.245 244.063 137.588 241.499 133.722C239.842 131.218 238.635 128.966 238.527 128.75C237.302 126.444 236.545 124.697 236.383 124.336C235.267 121.814 232.204 117.203 224.134 108.286Z" fill="#719392"/>
<path d="M171.696 186.862C178.268 183.394 184.042 178.589 188.647 172.757C192.52 167.803 194.573 162.814 198.698 152.798C203.238 141.792 203.832 136.91 204.102 134.316C204.383 130.296 204.135 126.256 203.364 122.301C204.644 124.293 205.661 126.443 206.39 128.696C208.219 134.388 208.27 140.502 206.534 146.223C214.151 138.059 218.619 127.455 219.144 116.302C220.371 119.528 221.382 122.832 222.17 126.192C222.805 128.877 223.244 131.604 223.485 134.352C224.242 144.169 217.198 154.978 215.055 158.13L218.946 137.306C218.075 145.514 215.393 153.427 211.092 160.472C198.446 180.827 176.487 185.871 171.696 186.862Z" fill="#719392"/>
<path d="M153.79 185.277C152.34 176.88 151.983 168.33 152.727 159.841C153.005 153.136 154.336 146.516 156.672 140.224C161.896 127.399 172.038 119.581 179.118 115.347C179.959 128.284 178.302 141.262 174.236 153.573C177.28 149.123 180.739 144.566 184.648 139.72C190.154 133.044 196.093 126.738 202.427 120.842C202.001 125.398 201.225 129.915 200.104 134.352C198.441 140.844 196.067 147.133 193.024 153.104C190.125 158.659 186.712 163.931 182.828 168.848C172.723 182.07 167.859 183.8 162.797 193.545C160.362 198.228 158.644 203.249 157.699 208.442C156.572 185.985 159.57 163.511 166.544 142.134C157.597 154.724 153.097 169.935 153.754 185.367L153.79 185.277Z" fill="#719392"/>
<path d="M117.943 106.575C112.482 117.425 109.714 129.43 109.873 141.575C110.161 164.453 121.095 183.62 121.762 183.385C121.703 182.112 121.503 180.85 121.168 179.62C121.168 179.62 120.699 176.702 120.249 173.081C119.395 163.79 119.643 154.43 120.987 145.196C121.366 142.35 121.996 138.315 123.059 133.487C122.717 135.793 122.446 138.279 122.284 140.927C122.021 144.765 122.021 148.617 122.284 152.456C123.077 157.175 123.816 162.021 124.464 166.993C125.707 176.306 126.608 185.259 127.22 193.851C129.13 191.077 131.994 186.772 135.218 181.35C140.244 172.883 143.775 165.624 153.88 142.999C156.456 137.216 159.699 129.921 163.428 121.382C152.441 127.174 142.969 135.467 135.777 145.593C136.002 140.89 135.912 136.178 135.506 131.488C134.997 125.452 133.96 119.473 132.408 113.618C130.259 116.115 128.267 118.745 126.446 121.49C124.508 124.371 122.768 127.38 121.24 130.497C123.349 122.401 122.164 113.799 117.943 106.575V106.575Z" fill="#719392"/>
<path d="M117.943 106.575C115.331 113.78 112.827 121.598 110.612 129.993C106.093 147.042 103.234 164.489 102.073 182.088C94.2914 165.373 93.0072 146.36 98.4704 128.75C96.29 135.608 95.1603 142.756 95.1198 149.952C95.0117 173.37 106.667 190.303 111.783 196.896C103.709 194.114 96.7931 188.72 92.1295 181.566C91.5531 189.708 91.445 196.499 91.463 201.381C91.463 220.025 93.4626 225.573 94.8496 228.744C96.6907 232.904 99.2042 236.732 102.289 240.074C95.8337 236.06 90.4934 230.485 86.7615 223.862C85.6446 221.791 84.6719 219.521 82.7444 215.035C79.4659 207.38 77.8266 203.561 77.4664 201.129C77.016 198.301 77.1601 196.499 75.665 194.878C74.0709 193.601 72.3918 192.433 70.6392 191.383C68.8378 190.086 68.6036 189.888 68.4235 189.582C67.0725 187.781 67.5949 185.817 67.6309 183.295C67.585 179.917 66.7978 176.59 65.3251 173.55C63.7219 169.785 62.7852 170.343 61.2 166.687C59.9213 163.502 59.2611 160.103 59.2545 156.671C59.0554 153.048 59.3279 149.415 60.0651 145.863C65.0178 144.744 69.7855 142.924 74.2239 140.459C77.0697 138.902 79.7706 137.093 82.294 135.055C86.2089 131.829 89.6904 128.112 92.6519 123.994C94.254 121.818 95.7277 119.551 97.0653 117.203C97.4976 118.32 97.9119 119.473 98.3082 120.698C99.7726 125.147 100.745 129.744 101.208 134.406C103.004 124.718 107.8 115.839 114.917 109.025C115.962 108.16 116.934 107.331 117.943 106.575Z" fill="#719392"/>
<path d="M92.2013 181.548C91.4301 184.278 91.2762 187.145 91.751 189.942C95.912 196.852 101.346 202.91 107.765 207.794C106.558 205.426 105.535 202.969 104.703 200.444C103.825 197.812 103.162 195.113 102.721 192.374C101.136 190.987 99.5149 189.474 97.8576 187.799C95.732 185.673 93.8586 183.565 92.2013 181.548Z" fill="#719392"/>
<path d="M60.5334 141.846C59.2003 142.782 57.7052 143.647 56.066 144.674C54.4267 145.701 52.9136 146.367 51.4905 147.052C52.9676 147.052 54.5708 146.799 56.2461 146.547C57.435 146.385 58.5519 146.169 59.5967 145.953L60.5334 141.846Z" fill="#7BA8A7"/>
<path d="M298.26 115.6C302.04 115.31 305.839 115.788 309.429 117.005C310.758 117.469 312.053 118.028 313.302 118.68C315.736 126.501 317.383 134.545 318.219 142.692C318.652 146.8 318.832 150.69 318.85 154.311C315.414 139.858 308.324 126.528 298.26 115.6V115.6Z" fill="#719392"/>
<path d="M381.39 276.262C381.35 276.262 381.313 276.268 381.274 276.268C380.087 258.274 365.156 244.036 346.861 244.036C336.355 244.036 326.963 248.744 320.63 256.147C318.692 255.754 316.688 255.545 314.635 255.545C300.882 255.545 289.326 264.835 285.824 277.473C274.519 280.933 266.296 291.446 266.296 303.884C266.296 319.139 278.663 331.507 293.918 331.507H381.39C396.645 331.507 409.012 319.14 409.012 303.884C409.012 288.629 396.645 276.262 381.39 276.262Z" fill="#CEE6E8"/>
<path d="M379.087 322.299H322.464C307.223 322.299 294.157 310.352 293.921 295.113C293.744 283.65 300.558 273.775 310.37 269.432C312.541 268.471 314.305 266.811 315.265 264.64C316.635 261.543 318.448 258.686 320.62 256.145C318.686 255.753 316.685 255.544 314.635 255.544C300.882 255.544 289.326 264.834 285.823 277.472C274.313 280.996 265.996 291.832 266.304 304.567C266.669 319.706 279.677 331.507 294.82 331.507H379.087C381.63 331.507 383.691 329.445 383.691 326.903C383.691 324.36 381.63 322.299 379.087 322.299Z" fill="#ACD7D8"/>
</g>
<defs>
<clipPath id="clip0">
<rect width="371" height="371" rx="185.5" fill="white"/>
</clipPath>
</defs>
</svg>
