<svg width="56" height="57" viewBox="0 0 56 57" fill="none" xmlns="http://www.w3.org/2000/svg">
<path d="M54.535 17.8186C52.6167 15.8782 49.4952 15.8783 47.5762 17.819C46.986 18.4165 43.2176 22.231 42.6419 22.8138V9.6682C42.6419 8.33895 42.1301 7.08931 41.2008 6.14943L36.5621 1.45754C35.6328 0.517548 34.3972 0 33.0829 0H4.92022C2.20721 0 0 2.23243 0 4.97643V51.6443C0 54.3883 2.20721 56.6207 4.92022 56.6207H37.7217C40.4347 56.6207 42.6419 54.3883 42.6419 51.6443V36.8953L54.5349 24.8564C56.4578 22.9116 56.4583 19.7636 54.535 17.8186ZM32.8016 3.31762C33.1115 3.31762 33.7086 3.26332 34.2427 3.80343L38.8815 8.49531C39.4019 9.02182 39.3619 9.59875 39.3619 9.95286H32.8016V3.31762ZM39.3618 51.6443C39.3618 52.5589 38.6262 53.3031 37.7217 53.3031H4.92022C4.01589 53.3031 3.28015 52.5589 3.28015 51.6443V4.97643C3.28015 4.06176 4.01589 3.31762 4.92022 3.31762H29.5213V11.6117C29.5213 12.5278 30.2557 13.2705 31.1614 13.2705H39.3618V26.1343L34.5229 31.0326L32.2046 33.3775C32.0246 33.5595 31.8888 33.7815 31.8084 34.0258L29.4889 41.0636C29.2924 41.6597 29.4458 42.3169 29.8851 42.7611C30.325 43.206 30.975 43.3604 31.5635 43.1619L38.5217 40.816C38.7633 40.7346 38.9828 40.5974 39.1628 40.4152L39.3618 40.214V51.6443ZM35.6837 34.5505L38.003 36.8963L37.1171 37.7924L33.638 38.9653L34.7977 35.4464L35.6837 34.5505ZM40.322 34.5499L38.0026 32.204C39.2377 30.9538 44.7231 25.401 45.8864 24.2234L48.2058 26.5693L40.322 34.5499ZM52.2151 22.5109L50.5244 24.2224L48.205 21.8765L49.8962 20.1645C50.5361 19.5177 51.5763 19.5178 52.2157 20.1645C52.855 20.8114 52.8584 21.8601 52.2151 22.5109Z" fill="#CEE6E8"/>
<path d="M29.7841 15.8562H7.83763C6.97189 15.8562 6.27002 16.5661 6.27002 17.4418C6.27002 18.3175 6.97189 19.0275 7.83763 19.0275H29.7841C30.6499 19.0275 31.3517 18.3175 31.3517 17.4418C31.3517 16.5661 30.6499 15.8562 29.7841 15.8562Z" fill="#CEE6E8"/>
<path d="M23.5137 22.1987H7.83763C6.97189 22.1987 6.27002 22.9087 6.27002 23.7844C6.27002 24.66 6.97189 25.37 7.83763 25.37H23.5137C24.3794 25.37 25.0813 24.66 25.0813 23.7844C25.0813 22.9087 24.3794 22.1987 23.5137 22.1987Z" fill="#CEE6E8"/>
<path d="M23.5137 28.5413H7.83763C6.97189 28.5413 6.27002 29.2512 6.27002 30.1269C6.27002 31.0026 6.97189 31.7125 7.83763 31.7125H23.5137C24.3794 31.7125 25.0813 31.0026 25.0813 30.1269C25.0813 29.2512 24.3794 28.5413 23.5137 28.5413Z" fill="#CEE6E8"/>
<path d="M23.5137 34.8838H7.83763C6.97189 34.8838 6.27002 35.5937 6.27002 36.4694C6.27002 37.3451 6.97189 38.055 7.83763 38.055H23.5137C24.3794 38.055 25.0813 37.3451 25.0813 36.4694C25.0813 35.5937 24.3794 34.8838 23.5137 34.8838Z" fill="#CEE6E8"/>
<path d="M29.7843 44.6089H20.3786C19.5129 44.6089 18.811 45.3188 18.811 46.1945C18.811 47.0702 19.5129 47.7801 20.3786 47.7801H29.7843C30.65 47.7801 31.3519 47.0702 31.3519 46.1945C31.3519 45.3188 30.65 44.6089 29.7843 44.6089Z" fill="#CEE6E8"/>
</svg>
