<svg width="54" height="60" viewBox="0 0 54 60" fill="none" xmlns="http://www.w3.org/2000/svg">
<path d="M46.8184 5.85938H42.7168V1.75781C42.7168 0.787031 41.9298 0 40.959 0H12.834C11.8632 0 11.0762 0.787031 11.0762 1.75781V5.85938H6.97461C3.42066 5.85938 0.529297 8.75074 0.529297 12.3047V18.2776C0.529297 22.4509 3.16438 26.213 7.08629 27.6389L12.3774 29.5629C13.0441 29.8054 13.8676 30.7187 14.0398 31.4068C14.264 32.3025 13.9978 33.2645 13.3448 33.9173C12.5458 34.7162 11.4837 35.1562 10.3538 35.1562H9.31836C8.34758 35.1562 7.56055 35.9433 7.56055 36.9141C7.56055 37.8848 8.34758 38.6719 9.31836 38.6719H10.3538C12.4227 38.6719 14.3679 37.8662 15.8307 36.4032C16.225 36.0089 16.5576 35.5656 16.8266 35.0897C18.213 36.6244 19.8228 37.9743 21.623 39.0885V49.4531H18.6934C18.2271 49.4531 17.78 49.6383 17.4505 49.968L13.9348 53.4837C13.6051 53.8132 13.4199 54.2603 13.4199 54.7266V58.2422C13.4199 59.213 14.207 60 15.1777 60H38.6152C39.586 60 40.373 59.213 40.373 58.2422V54.7266C40.373 54.2603 40.1879 53.8132 39.8581 53.4837L36.3425 49.968C36.013 49.6383 35.5659 49.4531 35.0996 49.4531H32.1699V39.0885C33.9703 37.9741 35.58 36.6243 36.9664 35.0896C37.2354 35.5655 37.5678 36.0088 37.9621 36.4031C39.4251 37.8662 41.3703 38.6719 43.4391 38.6719H44.4746C45.4454 38.6719 46.2324 37.8848 46.2324 36.9141C46.2324 35.9433 45.4454 35.1562 44.4746 35.1562H43.4391C42.3092 35.1562 41.2471 34.7162 40.4482 33.9173C39.7953 33.2645 39.5289 32.3025 39.7531 31.4067C39.9254 30.7186 40.7487 29.8054 41.4154 29.5629L46.7067 27.6389C50.6286 26.213 53.2637 22.4509 53.2637 18.2776V12.3047C53.2637 8.75074 50.3723 5.85938 46.8184 5.85938ZM8.2877 24.3349C5.75 23.4122 4.04492 20.978 4.04492 18.2776V12.3047C4.04492 10.6893 5.35918 9.375 6.97461 9.375H11.0762V20.1614C11.0762 22.0175 11.3103 23.8398 11.7527 25.5948L8.2877 24.3349ZM34.3715 52.9688L36.8574 55.4546V56.4844H16.9355V55.4546L19.4214 52.9688H34.3715ZM25.1387 49.4531V39.8438H28.6543V49.4531H25.1387ZM39.2012 20.1614C39.2012 26.8164 35.666 32.9699 29.9458 36.3281H23.8473C18.127 32.9699 14.5918 26.8164 14.5918 20.1614V18.75H39.2012V20.1614ZM39.2012 15.2344H14.5918V11.7188H39.2012V15.2344ZM39.2012 8.20312H14.5918V3.51562H39.2012V8.20312ZM49.748 18.2776C49.748 20.978 48.043 23.4122 45.5053 24.3349L42.0404 25.5948C42.4827 23.8398 42.7168 22.0174 42.7168 20.1614V9.375H46.8184C48.4338 9.375 49.748 10.6893 49.748 12.3047V18.2776Z" fill="#CEE6E8"/>
</svg>
