<svg width="60" height="60" viewBox="0 0 60 60" fill="none" xmlns="http://www.w3.org/2000/svg">
<path d="M59.9297 4.47913C59.7998 2.09577 57.9042 0.200493 55.5209 0.0704153C50.7117 -0.192319 41.3011 0.0632671 32.3025 4.7176C27.7152 7.09042 22.8637 11.1133 18.9919 15.7549C18.9442 15.8121 18.8978 15.8696 18.8505 15.9269L10.0637 16.6057C8.61741 16.7175 7.32917 17.4756 6.52925 18.6854L0.534639 27.7524C-0.0720411 28.67 -0.168486 29.8183 0.276475 30.8242C0.721553 31.8301 1.63608 32.5311 2.723 32.6995L10.1258 33.8461C10.0997 33.99 10.0735 34.1338 10.0494 34.2777C9.803 35.7519 10.2914 37.2676 11.3562 38.3323L21.6678 48.6439C22.5505 49.5267 23.7434 50.0134 24.9657 50.0134C25.2174 50.0134 25.4705 49.9926 25.7224 49.9506C25.8664 49.9265 26.0101 49.9003 26.1541 49.8742L27.3006 57.2771C27.469 58.364 28.17 59.2787 29.1757 59.7237C29.5942 59.9088 30.0371 60.0002 30.4779 60.0002C31.097 60.0001 31.7118 59.8199 32.2476 59.4656L41.3146 53.4709C42.5246 52.6708 43.2825 51.3826 43.3941 49.9364L44.0728 41.1498C44.1301 41.1024 44.1878 41.056 44.245 41.0083C48.8867 37.1366 52.9097 32.285 55.2824 27.6976C59.937 18.6987 60.1921 9.28792 59.9297 4.47913V4.47913ZM39.3757 50.5382L30.7026 56.2725L29.5851 49.0578C33.2507 47.9801 36.8768 46.2539 40.3314 43.9414L39.8892 49.6655C39.8617 50.0225 39.6744 50.3407 39.3757 50.5382V50.5382ZM24.1537 46.158L13.842 35.8464C13.5789 35.5832 13.4573 35.2134 13.5169 34.8573C13.8235 33.0241 14.2998 31.2791 14.8895 29.6352L30.3615 45.1072C28.3872 45.8144 26.6187 46.2363 25.1427 46.4831C24.786 46.5424 24.4167 46.4211 24.1537 46.158V46.158ZM10.3346 20.1109L16.0585 19.6687C13.7459 23.1233 12.0197 26.7494 10.9419 30.4151L3.72741 29.2977L9.46186 20.6244C9.65944 20.3256 9.97761 20.1384 10.3346 20.1109V20.1109ZM41.9933 38.3085C39.1535 40.6772 36.3969 42.3905 33.8561 43.6302L16.3692 26.1433C17.9932 22.8265 19.9752 20.0645 21.6916 18.0069C25.2746 13.7114 29.7308 10.0058 33.9178 7.84018C42.1765 3.56835 50.8778 3.33831 55.3295 3.58065C55.9187 3.61276 56.3874 4.08139 56.4195 4.67073C56.6622 9.12245 56.4317 17.8236 52.1598 26.0824C49.9943 30.2693 46.2887 34.7255 41.9933 38.3085Z" fill="#CEE6E8"/>
<path d="M41.1004 27.6845C43.3506 27.6843 45.6018 26.8276 47.3149 25.1145C48.975 23.4545 49.8891 21.2474 49.8891 18.8999C49.8891 16.5524 48.9749 14.3453 47.3149 12.6853C43.8881 9.25842 38.3123 9.25865 34.8858 12.6853C33.2257 14.3453 32.3115 16.5524 32.3115 18.8999C32.3115 21.2474 33.2258 23.4545 34.8858 25.1145C36.5993 26.828 38.8493 27.6847 41.1004 27.6845ZM37.3714 15.1711C38.3994 14.143 39.7498 13.629 41.1001 13.629C42.4506 13.629 43.8009 14.143 44.8289 15.1711C45.8249 16.1671 46.3733 17.4913 46.3733 18.8998C46.3733 20.3083 45.8249 21.6326 44.8289 22.6286C42.773 24.6846 39.4274 24.6845 37.3713 22.6286C36.3754 21.6326 35.8268 20.3084 35.8268 18.8999C35.8268 17.4914 36.3755 16.1671 37.3714 15.1711Z" fill="#CEE6E8"/>
<path d="M1.79291 49.4456C2.24279 49.4456 2.69268 49.2741 3.0358 48.9307L8.77482 43.1917C9.46131 42.5052 9.46131 41.3923 8.77482 40.7058C8.08846 40.0193 6.97541 40.0193 6.28893 40.7058L0.55002 46.4448C-0.136465 47.1313 -0.136465 48.2442 0.55002 48.9307C0.893145 49.274 1.34303 49.4456 1.79291 49.4456V49.4456Z" fill="#CEE6E8"/>
<path d="M14.0349 45.9655C13.3486 45.2791 12.2355 45.2791 11.549 45.9655L0.515352 56.9993C-0.171133 57.6858 -0.171133 58.7988 0.515352 59.4852C0.858594 59.8285 1.30836 60 1.75824 60C2.20813 60 2.65801 59.8285 3.00113 59.4851L14.0348 48.4514C14.7214 47.765 14.7214 46.652 14.0349 45.9655V45.9655Z" fill="#CEE6E8"/>
<path d="M16.8081 51.2248L11.0691 56.9638C10.3826 57.6503 10.3826 58.7633 11.0691 59.4497C11.4123 59.793 11.8622 59.9647 12.312 59.9647C12.7617 59.9647 13.2117 59.7931 13.5548 59.4497L19.2939 53.7107C19.9803 53.0242 19.9803 51.9113 19.2939 51.2248C18.6075 50.5383 17.4944 50.5383 16.8081 51.2248Z" fill="#CEE6E8"/>
</svg>
