<svg width="141" height="128" viewBox="0 0 141 128" fill="none" xmlns="http://www.w3.org/2000/svg">
<g clip-path="url(#clip0)">
<path d="M102.465 51.4755C99.4419 51.4755 96.5074 51.863 93.7113 52.5879C88.7004 45.3508 80.3424 40.6107 70.8741 40.6107C67.7979 40.6107 64.845 41.1175 62.0792 42.0408C57.4175 21.4111 38.9882 6 16.9497 6C-8.60986 6 -29.3298 26.7206 -29.3298 52.2808C-29.3298 52.808 -29.3067 53.3299 -29.2909 53.8505C-32.5437 52.831 -36.004 52.2808 -39.5929 52.2808C-58.5948 52.2808 -74 67.6833 -74 86.6905C-74 105.692 -58.5942 121.096 -39.5929 121.096H63.4262H82.5454H102.467C121.693 121.096 137.279 105.511 137.279 86.2859C137.278 67.0599 121.691 51.4755 102.465 51.4755Z" fill="#CEE6E8"/>
</g>
<defs>
<clipPath id="clip0">
<rect width="141" height="128" fill="white"/>
</clipPath>
</defs>
</svg>
