<svg width="150" height="98" viewBox="0 0 150 98" fill="none" xmlns="http://www.w3.org/2000/svg">
<path d="M130.041 53.5364C131.283 36.1508 115.276 22.7493 98.4716 26.8283C95.065 11.4788 81.3731 0 64.9979 0C45.5914 0 29.9425 16.1261 30.7391 35.7081C30.7286 35.7081 30.7183 35.7075 30.7078 35.7075C13.7481 35.7075 0 49.4557 0 66.415C0 82.9753 13.1097 96.4715 29.5168 97.0973V97.1225H128.164C140.223 97.1225 150 87.3461 150 75.2864C150 63.86 141.221 54.4891 130.041 53.5364Z" fill="#CEE6E8"/>
<path d="M130.041 53.5364C131.283 36.1505 115.276 22.7493 98.4716 26.8283C95.065 11.4788 81.3731 0 64.9979 0C59.5792 0 54.454 1.2583 49.8975 3.49687C51.04 3.38173 52.1987 3.32167 53.3715 3.32167C69.7466 3.32167 83.4385 14.8005 86.8452 30.1499C103.649 26.0707 119.656 39.4722 118.415 56.8581C129.595 57.8111 138.373 67.1817 138.373 78.6083C138.373 86.416 134.273 93.2623 128.111 97.1225H128.164C140.224 97.1225 150 87.3461 150 75.2864C150 63.86 141.221 54.4891 130.041 53.5364Z" fill="#ACD7D8"/>
</svg>
