<svg width="53" height="53" viewBox="0 0 53 53" fill="none" xmlns="http://www.w3.org/2000/svg">
<path d="M47.1887 48.0345C39.0787 54.6549 13.7559 54.6549 5.81145 48.0345C-2.29849 41.4142 -1.47096 13.1122 5.81145 5.66429C13.0939 -1.7836 39.9063 -1.7836 47.1887 5.66429C54.4711 13.1122 55.2986 41.4143 47.1887 48.0345Z" fill="#A8B9B9"/>
<path d="M42.2235 26.5184C42.2235 28.1735 40.8994 29.4976 39.2443 29.4976H29.3139V39.4281C29.3139 41.0831 27.9898 42.4072 26.3347 42.4072C24.6796 42.4072 23.3556 41.0831 23.3556 39.4281V29.4976H13.425C11.7699 29.4976 10.4458 28.1735 10.4458 26.5184C10.4458 24.8634 11.7699 23.5393 13.425 23.5393H23.3554V13.6088C23.3554 11.9537 24.6795 10.6296 26.3346 10.6296C27.9897 10.6296 29.3137 11.9537 29.3137 13.6088V23.5393H39.2442C40.8994 23.5393 42.2235 24.8633 42.2235 26.5184Z" fill="white"/>
</svg>
