<svg width="67" height="68" viewBox="0 0 67 68" fill="none" xmlns="http://www.w3.org/2000/svg">
<path d="M65.2002 29.1447C65.1987 29.1432 65.1972 29.1417 65.1956 29.1401L37.8622 1.80768C36.6971 0.642094 35.1481 0 33.5004 0C31.8528 0 30.3037 0.641583 29.1382 1.80717L1.819 29.1258C1.80979 29.135 1.80059 29.1447 1.79139 29.1539C-0.601128 31.5603 -0.597038 35.4645 1.80315 37.8647C2.89972 38.9617 4.34801 39.5972 5.8965 39.6636C5.95938 39.6698 6.02277 39.6728 6.08667 39.6728H7.17609V59.7879C7.17609 63.7682 10.4147 67.0068 14.3961 67.0068H25.0898C26.1736 67.0068 27.0529 66.128 27.0529 65.0437V49.2736C27.0529 47.4572 28.5303 45.9798 30.3467 45.9798H36.6541C38.4705 45.9798 39.9479 47.4572 39.9479 49.2736V65.0437C39.9479 66.128 40.8267 67.0068 41.911 67.0068H52.6048C56.5862 67.0068 59.8248 63.7682 59.8248 59.7879V39.6728H60.8349C62.4821 39.6728 64.0311 39.0313 65.1972 37.8657C67.5999 35.4614 67.6009 31.5506 65.2002 29.1447Z" fill="white"/>
</svg>
