<svg width="93" height="93" viewBox="0 0 93 93" fill="none" xmlns="http://www.w3.org/2000/svg">
<path d="M82.5145 69.5458C83.1604 69.1789 83.6806 68.6296 84.001 67.943C84.4094 67.0682 84.4515 66.0874 84.1217 65.1813L83.6472 63.8779C89.9792 58.6408 92.6718 49.7884 89.7046 41.6371C86.4881 32.8006 77.6487 27.6093 68.6909 28.6193V15.4939C68.6909 13.4908 67.0612 11.8611 65.0581 11.8611H54.8405C54.3929 10.3615 53.0175 9.25781 51.374 9.25781H43.5526C42.802 6.00645 39.8667 3.62695 36.4802 3.62695C33.0937 3.62695 30.1584 6.00645 29.4079 9.25781H21.5857C19.9429 9.25781 18.5668 10.3615 18.1193 11.8611H7.90234C5.89921 11.8611 4.26953 13.4908 4.26953 15.4939V87.6655C4.26953 89.6687 5.89921 91.2984 7.90234 91.2984H65.0588C67.062 91.2984 68.6916 89.6687 68.6916 87.6655V68.3085C69.4386 68.3942 70.1905 68.4516 70.9491 68.4516C70.9956 68.4516 71.0428 68.4458 71.09 68.4458L71.5652 69.7507C71.8951 70.6574 72.5577 71.3811 73.4317 71.7887C73.9178 72.0154 74.4359 72.1295 74.9561 72.1295C75.1726 72.1295 75.3891 72.1077 75.6042 72.0677L80.0202 87.9213C80.39 89.2494 81.3062 90.3734 82.5319 91.0041C83.2403 91.3681 84.0221 91.5527 84.8054 91.5527C85.3786 91.5527 85.9533 91.4531 86.5011 91.254C87.7966 90.7832 88.8472 89.7835 89.3812 88.5127C89.9153 87.2405 89.8949 85.791 89.3238 84.5341L82.5145 69.5458Z" fill="#E6E7E8"/>
<path d="M62.1519 87.6658H4.99609C3.39112 87.6658 2.08984 86.3645 2.08984 84.7595V12.5879C2.08984 10.9829 3.39112 9.68164 4.99609 9.68164H62.1526C63.7576 9.68164 65.0588 10.9829 65.0588 12.5879V84.7595C65.0581 86.3645 63.7576 87.6658 62.1519 87.6658Z" fill="#A8B9B9"/>
<path d="M58.519 82.5798H8.62891C7.82605 82.5798 7.17578 81.9296 7.17578 81.1267V16.2207C7.17578 15.4179 7.82605 14.7676 8.62891 14.7676H58.5198C59.3219 14.7676 59.9729 15.4179 59.9729 16.2207V81.1267C59.9722 81.9296 59.3219 82.5798 58.519 82.5798Z" fill="#D6E2E2"/>
<path d="M40.0428 7.07764C39.5996 3.89747 36.8764 1.44678 33.5742 1.44678C30.272 1.44678 27.5488 3.89747 27.1056 7.07764H18.6797C17.0747 7.07764 15.7734 8.37891 15.7734 9.98389V16.1597C15.7734 16.9625 16.4244 17.6128 17.2266 17.6128H49.9219C50.7247 17.6128 51.375 16.9625 51.375 16.1597V9.98389C51.375 8.37891 50.0737 7.07764 48.4688 7.07764H40.0428Z" fill="#576D6D"/>
<path d="M49.9214 15.4331H17.2261C16.4239 15.4331 15.7729 14.7828 15.7729 13.98V16.1597C15.7729 16.9625 16.4239 17.6128 17.2261 17.6128H49.9214C50.7242 17.6128 51.3745 16.9625 51.3745 16.1597V13.98C51.3745 14.7828 50.7242 15.4331 49.9214 15.4331Z" fill="white"/>
<path d="M33.5737 10.1655C34.7775 10.1655 35.7534 9.18965 35.7534 7.98584C35.7534 6.78203 34.7775 5.80615 33.5737 5.80615C32.3699 5.80615 31.394 6.78203 31.394 7.98584C31.394 9.18965 32.3699 10.1655 33.5737 10.1655Z" fill="white"/>
<path d="M33.5739 49.9163C41.0042 49.9163 47.0276 43.8929 47.0276 36.4625C47.0276 29.0322 41.0042 23.0088 33.5739 23.0088C26.1436 23.0088 20.1201 29.0322 20.1201 36.4625C20.1201 43.8929 26.1436 49.9163 33.5739 49.9163Z" fill="#576D6D"/>
<path d="M23.9863 45.894C26.4269 48.3745 29.8192 49.9163 33.574 49.9163C37.3289 49.9163 40.7212 48.3745 43.1618 45.894V42.8846C43.1618 40.1825 40.9712 37.9927 38.2698 37.9927H28.8783C26.1762 37.9927 23.9863 40.1833 23.9863 42.8846V45.894Z" fill="#A8B9B9"/>
<path d="M39.5982 32.8801C39.5982 36.1925 36.9012 38.8779 33.5742 38.8779C30.2473 38.8779 27.5503 36.1925 27.5503 32.8801C27.5503 29.5677 30.2473 26.8823 33.5742 26.8823C36.9012 26.8823 39.5982 29.5677 39.5982 32.8801Z" fill="white"/>
<path d="M83.3471 87.6659C81.0258 88.5109 78.477 87.1995 77.8136 84.82L73.2007 68.2616L78.6463 66.2795L85.7557 81.929C86.7787 84.1784 85.6685 86.8209 83.3471 87.6659Z" fill="#576D6D"/>
<path d="M79.8824 60.7344C78.3283 61.9485 76.5627 62.946 74.609 63.6573C72.6553 64.3686 70.6616 64.7392 68.6904 64.8075L69.3422 66.597C69.8871 68.0945 71.5422 68.8661 73.0396 68.3211L78.81 66.2206C80.3074 65.6757 81.079 64.0206 80.5341 62.5232L79.8824 60.7344Z" fill="#576D6D"/>
<path d="M68.0234 64.8184C78.6571 64.8184 87.2773 56.1981 87.2773 45.5645C87.2773 34.9308 78.6571 26.3105 68.0234 26.3105C57.3898 26.3105 48.7695 34.9308 48.7695 45.5645C48.7695 56.1981 57.3898 64.8184 68.0234 64.8184Z" fill="#576D6D"/>
<path d="M68.0233 60.7507C76.4102 60.7507 83.2092 53.9517 83.2092 45.5648C83.2092 37.1779 76.4102 30.3789 68.0233 30.3789C59.6364 30.3789 52.8374 37.1779 52.8374 45.5648C52.8374 53.9517 59.6364 60.7507 68.0233 60.7507Z" fill="#D6E2E2"/>
<path d="M53.584 59.9871H27.4277C27.0267 59.9871 26.7012 60.3118 26.7012 60.7136C26.7012 61.1154 27.0267 61.4402 27.4277 61.4402H53.584C53.9858 61.4402 54.3105 61.1154 54.3105 60.7136C54.3105 60.3118 53.9858 59.9871 53.584 59.9871Z" fill="#576D6D"/>
<path d="M22.9601 52.9074L22.073 53.8614C21.6748 53.3375 21.0507 52.9931 20.3437 52.9931H15.0762C13.8744 52.9931 12.8965 53.9711 12.8965 55.1728V60.4404C12.8965 61.6421 13.8744 62.6201 15.0762 62.6201H20.3437C21.5455 62.6201 22.5234 61.6421 22.5234 60.4404V55.5107L24.0245 53.8962C24.2977 53.6027 24.281 53.1428 23.9875 52.8696C23.6932 52.5979 23.234 52.6131 22.9601 52.9074V52.9074ZM21.0696 60.4404C21.0696 60.8414 20.7434 61.1669 20.343 61.1669H15.0754C14.6751 61.1669 14.3489 60.8414 14.3489 60.4404V55.1728C14.3489 54.7717 14.6751 54.4462 15.0754 54.4462H20.343C20.6758 54.4462 20.9453 54.6751 21.0311 54.981L17.8691 58.3813L16.1595 56.4879C15.8914 56.1907 15.4322 56.166 15.1336 56.4356C14.8357 56.7044 14.8124 57.1636 15.0813 57.4615L17.3212 59.9441C17.4578 60.0953 17.6511 60.1825 17.8553 60.1839H17.8604C18.0623 60.1839 18.2549 60.1004 18.3922 59.9521L21.0689 57.0735V60.4404H21.0696Z" fill="#576D6D"/>
<path d="M53.584 68.7058H27.4277C27.0267 68.7058 26.7012 69.0306 26.7012 69.4324C26.7012 69.8342 27.0267 70.1589 27.4277 70.1589H53.584C53.9858 70.1589 54.3105 69.8342 54.3105 69.4324C54.3105 69.0306 53.9858 68.7058 53.584 68.7058Z" fill="#576D6D"/>
<path d="M53.584 74.5183H27.4277C27.0267 74.5183 26.7012 74.8431 26.7012 75.2449C26.7012 75.6467 27.0267 75.9714 27.4277 75.9714H53.584C53.9858 75.9714 54.3105 75.6467 54.3105 75.2449C54.3105 74.8431 53.9858 74.5183 53.584 74.5183Z" fill="#576D6D"/>
<path d="M22.9601 67.4395L22.073 68.3935C21.6748 67.8697 21.0514 67.526 20.3437 67.526H15.0762C13.8744 67.526 12.8965 68.504 12.8965 69.7057V74.9733C12.8965 76.175 13.8744 77.153 15.0762 77.153H20.3437C21.5455 77.153 22.5234 76.175 22.5234 74.9733V70.0428L24.0245 68.4291C24.2977 68.1356 24.281 67.6757 23.9875 67.4025C23.6932 67.1293 23.234 67.1453 22.9601 67.4395V67.4395ZM21.0696 74.9725C21.0696 75.3736 20.7434 75.6991 20.343 75.6991H15.0754C14.6751 75.6991 14.3489 75.3736 14.3489 74.9725V69.705C14.3489 69.3039 14.6751 68.9784 15.0754 68.9784H20.343C20.6758 68.9784 20.9446 69.2073 21.0311 69.5132L17.8691 72.9127L16.1595 71.0193C15.8914 70.7222 15.4322 70.6982 15.1336 70.967C14.8357 71.2358 14.8124 71.695 15.0813 71.9929L17.3212 74.4756C17.4578 74.6267 17.6511 74.7139 17.8553 74.7153H17.8604C18.0623 74.7153 18.2549 74.6318 18.3922 74.4836L21.0689 71.6057V74.9725H21.0696Z" fill="#576D6D"/>
</svg>
