<svg width="364" height="364" viewBox="0 0 364 364" fill="none" xmlns="http://www.w3.org/2000/svg">
<path d="M240.419 126.677C240.367 126.677 240.317 126.685 240.266 126.685C238.694 102.856 218.921 84 194.693 84C180.78 84 168.342 90.2355 159.955 100.04C157.389 99.5183 154.735 99.2422 152.016 99.2422C133.803 99.2422 118.499 111.545 113.861 128.281C98.8904 132.864 88 146.786 88 163.258C88 183.461 104.378 199.839 124.581 199.839H240.419C260.622 199.839 277 183.461 277 163.258C277 143.055 260.622 126.677 240.419 126.677Z" fill="#D8E0E2"/>
<path d="M237.371 187.645H162.384C142.2 187.645 124.897 171.823 124.585 151.641C124.351 136.462 133.374 123.384 146.368 117.632C149.243 116.359 151.58 114.162 152.851 111.286C154.665 107.185 157.066 103.402 159.942 100.037C157.381 99.5173 154.731 99.2412 152.016 99.2412C133.803 99.2412 118.499 111.544 113.861 128.28C98.6171 132.947 87.6034 147.297 88.0109 164.162C88.4949 184.211 105.721 199.838 125.775 199.838H237.371C240.738 199.838 243.468 197.108 243.468 193.742C243.468 190.374 240.738 187.645 237.371 187.645Z" fill="#B7C5C6"/>
<path d="M108.938 226.344C111.797 227.368 113.226 228.733 113.226 230.44C113.226 230.995 112.97 232.04 112.458 233.576L100.17 269.096C100.085 269.395 99.9353 269.757 99.722 270.184C99.5087 270.611 98.9327 271.187 97.994 271.912C97.098 272.595 96.01 272.936 94.73 272.936C93.4927 272.936 92.4047 272.595 91.466 271.912C90.57 271.187 89.9727 270.483 89.674 269.8L82.186 247.72C77.45 261.715 75.0393 268.84 74.954 269.096C74.8687 269.352 74.6767 269.715 74.378 270.184C74.0793 270.653 73.738 271.08 73.354 271.464C72.3727 272.445 71.1993 272.936 69.834 272.936C68.4687 272.936 67.338 272.616 66.442 271.976C65.5887 271.336 65.0127 270.696 64.714 270.056L64.266 269.096L51.914 233.576C51.4447 232.168 51.21 231.123 51.21 230.44C51.21 228.733 52.6393 227.389 55.498 226.408C56.7353 225.981 57.8447 225.768 58.826 225.768C59.85 225.768 60.618 226.109 61.13 226.792C61.6847 227.475 62.1753 228.52 62.602 229.928L69.642 251.304L76.618 230.248C77.2153 228.456 78.3033 227.219 79.882 226.536C80.5647 226.237 81.4393 226.088 82.506 226.088C83.6153 226.088 84.6393 226.451 85.578 227.176C86.5167 227.859 87.114 228.541 87.37 229.224L94.73 251.432L101.77 229.928C102.111 228.947 102.389 228.221 102.602 227.752C102.815 227.283 103.199 226.835 103.754 226.408C104.351 225.939 105.077 225.704 105.93 225.704C106.783 225.704 107.786 225.917 108.938 226.344ZM134.136 242.856C134.392 240.467 136.077 239.272 139.192 239.272C140.856 239.272 142.093 239.4 142.904 239.656C143.714 239.912 144.269 240.36 144.568 241C144.909 241.64 145.101 242.216 145.144 242.728C145.229 243.197 145.272 243.923 145.272 244.904V267.304C145.272 268.285 145.229 269.032 145.144 269.544C145.101 270.013 144.93 270.568 144.632 271.208C144.034 272.317 142.562 272.872 140.216 272.872C137.912 272.872 136.354 272.595 135.544 272.04C134.776 271.443 134.328 270.589 134.2 269.48C132.621 271.741 129.976 272.872 126.264 272.872C122.594 272.872 119.181 271.187 116.024 267.816C112.866 264.445 111.288 260.541 111.288 256.104C111.288 251.624 112.866 247.72 116.024 244.392C119.224 241.021 122.722 239.336 126.52 239.336C127.97 239.336 129.293 239.592 130.488 240.104C131.682 240.616 132.514 241.107 132.984 241.576C133.453 242.003 133.837 242.429 134.136 242.856ZM122.488 256.168C122.488 257.576 123.042 258.856 124.152 260.008C125.261 261.117 126.605 261.672 128.184 261.672C129.762 261.672 131.064 261.096 132.088 259.944C133.154 258.792 133.688 257.533 133.688 256.168C133.688 254.76 133.176 253.459 132.152 252.264C131.17 251.069 129.826 250.472 128.12 250.472C126.456 250.472 125.09 251.069 124.024 252.264C123 253.459 122.488 254.76 122.488 256.168ZM169.125 239.272C173.391 239.272 176.933 240.915 179.749 244.2C182.607 247.443 184.037 251.411 184.037 256.104V267.368C184.037 268.349 183.994 269.096 183.909 269.608C183.866 270.077 183.695 270.611 183.397 271.208C182.799 272.36 181.135 272.936 178.405 272.936C175.375 272.936 173.626 272.147 173.157 270.568C172.901 269.843 172.773 268.755 172.773 267.304V256.04C172.773 254.291 172.261 252.925 171.237 251.944C170.255 250.963 168.911 250.472 167.205 250.472C165.541 250.472 164.175 250.984 163.109 252.008C162.085 253.032 161.573 254.376 161.573 256.04V267.368C161.573 268.349 161.53 269.096 161.445 269.608C161.402 270.077 161.21 270.611 160.869 271.208C160.314 272.36 158.671 272.936 155.941 272.936C153.253 272.936 151.61 272.36 151.013 271.208C150.714 270.568 150.522 270.013 150.437 269.544C150.394 269.032 150.373 268.285 150.373 267.304V244.648C150.373 243.709 150.394 243.005 150.437 242.536C150.522 242.024 150.735 241.469 151.077 240.872C151.674 239.805 153.317 239.272 156.005 239.272C158.607 239.272 160.207 239.763 160.805 240.744C161.231 241.469 161.445 242.344 161.445 243.368C161.615 243.069 161.999 242.643 162.597 242.088C163.194 241.533 163.77 241.085 164.325 240.744C165.775 239.763 167.375 239.272 169.125 239.272ZM212.545 256.104L219.649 263.272C221.185 264.808 221.953 266.131 221.953 267.24C221.953 268.307 221.185 269.608 219.649 271.144C218.113 272.637 216.812 273.384 215.745 273.384C214.678 273.384 213.377 272.616 211.841 271.08L204.801 263.976L197.697 271.08C196.161 272.616 194.86 273.384 193.793 273.384C192.769 273.384 191.468 272.637 189.889 271.144C188.353 269.608 187.585 268.307 187.585 267.24C187.585 266.131 188.353 264.808 189.889 263.272L196.993 256.104L189.889 248.936C188.353 247.4 187.585 246.099 187.585 245.032C187.585 243.923 188.353 242.6 189.889 241.064C191.468 239.528 192.769 238.76 193.793 238.76C194.86 238.76 196.161 239.528 197.697 241.064L204.801 248.232L211.841 241.064C213.377 239.528 214.678 238.76 215.745 238.76C216.812 238.76 218.113 239.528 219.649 241.064C221.185 242.6 221.953 243.923 221.953 245.032C221.953 246.099 221.185 247.4 219.649 248.936L212.545 256.104ZM225.498 244.904C225.498 243.923 225.519 243.197 225.562 242.728C225.647 242.216 225.839 241.64 226.138 241C226.735 239.891 228.399 239.336 231.13 239.336C233.178 239.336 234.628 239.699 235.482 240.424C236.207 241.021 236.591 241.939 236.634 243.176C236.676 243.603 236.698 244.221 236.698 245.032V267.432C236.698 268.413 236.655 269.16 236.57 269.672C236.527 270.141 236.335 270.696 235.994 271.336C235.439 272.445 233.796 273 231.066 273C228.378 273 226.735 272.424 226.138 271.272C225.839 270.632 225.647 270.077 225.562 269.608C225.519 269.139 225.498 268.392 225.498 267.368V244.904ZM235.994 233.064C235.695 233.661 235.14 234.088 234.33 234.344C233.519 234.6 232.431 234.728 231.066 234.728C229.743 234.728 228.676 234.6 227.866 234.344C227.055 234.088 226.479 233.64 226.138 233C225.839 232.36 225.647 231.805 225.562 231.336C225.519 230.824 225.498 230.077 225.498 229.096C225.498 228.115 225.519 227.389 225.562 226.92C225.647 226.408 225.839 225.853 226.138 225.256C226.735 224.104 228.399 223.528 231.13 223.528C233.818 223.528 235.439 224.104 235.994 225.256C236.335 225.896 236.527 226.472 236.57 226.984C236.655 227.453 236.698 228.179 236.698 229.16C236.698 230.141 236.655 230.888 236.57 231.4C236.527 231.869 236.335 232.424 235.994 233.064ZM260.69 264.104H245.458C243.069 264.104 241.639 263.379 241.17 261.928C240.957 261.16 240.85 260.179 240.85 258.984C240.85 257.789 240.978 256.829 241.234 256.104C241.49 255.379 241.895 254.867 242.45 254.568C243.218 254.184 244.242 253.992 245.522 253.992H260.754C263.143 253.992 264.551 254.696 264.978 256.104C265.234 256.872 265.362 257.853 265.362 259.048C265.362 260.243 265.234 261.224 264.978 261.992C264.765 262.717 264.402 263.229 263.89 263.528C263.122 263.912 262.055 264.104 260.69 264.104ZM272.57 226.024H308.154C309.519 226.024 310.522 226.195 311.162 226.536C311.802 226.835 312.228 227.325 312.442 228.008C312.655 228.691 312.762 229.587 312.762 230.696C312.762 231.805 312.655 232.701 312.442 233.384C312.228 234.024 311.866 234.472 311.354 234.728C310.586 235.112 309.498 235.304 308.09 235.304H295.866V267.496C295.866 268.477 295.823 269.203 295.738 269.672C295.695 270.141 295.503 270.696 295.162 271.336C294.863 271.933 294.308 272.36 293.498 272.616C292.687 272.872 291.62 273 290.298 273C288.975 273 287.908 272.872 287.098 272.616C286.33 272.36 285.775 271.933 285.434 271.336C285.135 270.696 284.943 270.141 284.858 269.672C284.815 269.16 284.794 268.413 284.794 267.432V235.304H272.506C271.14 235.304 270.138 235.155 269.498 234.856C268.858 234.515 268.431 234.003 268.218 233.32C268.004 232.637 267.898 231.741 267.898 230.632C267.898 229.523 268.004 228.648 268.218 228.008C268.431 227.325 268.794 226.856 269.306 226.6C270.074 226.216 271.162 226.024 272.57 226.024Z" fill="#576D6D"/>
</svg>
